<svg xmlns="http://www.w3.org/2000/svg" width="91.304" height="117.172" viewBox="0 0 91.304 117.172">
  <g id="Сгруппировать_318" data-name="Сгруппировать 318" transform="translate(10556.958 10821)">
    <g id="Сгруппировать_317" data-name="Сгруппировать 317" transform="translate(-10556.958 -10821)">
      <rect id="Прямоугольник_104" data-name="Прямоугольник 104" width="3.319" height="51.955" transform="translate(43.935 55.493) rotate(-0.124)" fill="#151325"/>
      <g id="Сгруппировать_256" data-name="Сгруппировать 256" transform="translate(0 10.934)">
        <path id="Контур_237" data-name="Контур 237" d="M1029.919,945.078H1026.6v-1.66A37.892,37.892,0,0,1,1029.834,928a45.443,45.443,0,0,1,42.418-28.743h1.66v3.319h-1.66a42.14,42.14,0,0,0-39.335,26.654,34.929,34.929,0,0,0-3,14.189Z" transform="translate(-1026.6 -899.257)" fill="#151325"/>
        <path id="Контур_238" data-name="Контур 238" d="M1145.718,946.538H1142.4c0-6.188-5.031-10.987-9.358-10.987a9.37,9.37,0,0,0-9.358,9.359h-3.319a9.37,9.37,0,0,0-9.358-9.359h-1.66v-3.319H1111a12.685,12.685,0,0,1,11.017,6.412,12.685,12.685,0,0,1,11.018-6.412,11.61,11.61,0,0,1,8.437,3.915,40.782,40.782,0,0,0-26.573-29.939l-1.564-.557,1.113-3.127,1.563.556a44.023,44.023,0,0,1,29.7,41.83Z" transform="translate(-1054.414 -900.355)" fill="#151325"/>
        <path id="Контур_239" data-name="Контур 239" d="M1073.867,961.612h-3.319v-1.66a9.359,9.359,0,0,0-18.622-1.332,12.605,12.605,0,0,1,.07,1.332v1.66h-3.483v-1.66a12.771,12.771,0,0,1,.069-1.332,9.359,9.359,0,0,0-18.622,1.332v1.66h-3.319v-1.66a12.675,12.675,0,0,1,23.613-6.408,12.676,12.676,0,0,1,23.614,6.408Z" transform="translate(-1026.613 -915.398)" fill="#151325"/>
      </g>
      <rect id="Прямоугольник_105" data-name="Прямоугольник 105" width="3.319" height="14.253" transform="translate(43.912)" fill="#151325"/>
      <path id="Контур_240" data-name="Контур 240" d="M1102.679,1050.4a9.74,9.74,0,0,1-9.729-9.728h3.319a6.41,6.41,0,0,0,12.819,0v-7.83h3.319v7.83A9.74,9.74,0,0,1,1102.679,1050.4Z" transform="translate(-1048.903 -933.225)" fill="#151325"/>
      <rect id="Прямоугольник_106" data-name="Прямоугольник 106" width="3.319" height="3.402" transform="translate(65.948 53.829)" fill="#151325"/>
    </g>
  </g>
</svg>
