<svg xmlns="http://www.w3.org/2000/svg" width="89.438" height="21.133" viewBox="0 0 89.438 21.133">
  <g id="Сгруппировать_112" data-name="Сгруппировать 112" transform="translate(-332.504 -277.89)">
    <path id="Контур_72" data-name="Контур 72" d="M337.8,292.955v2.133l-.025.385c0,2.181.1,2.3.719,2.523.282.1.028.128.7.192v.753c-1.386-.064-1.861-.064-3.349-.064-1.565,0-1.824,0-3.338.064v-.753c1.077-.064,1.157-.192,1.362-.577.154-.321.205-.6.205-2.138v-13.18l-.025-.481-.026-.9a1.35,1.35,0,0,0-1.257-1.539c-.077,0,.1-.032-.029-.064v-.447c2.021,0,5.087-.008,5.087-.008l-.019,8.005v6.094Z" transform="translate(0 -0.474)" fill-rule="evenodd"/>
    <path id="Контур_73" data-name="Контур 73" d="M351.592,295.55c.155-1.782-.577-4.314-1.643-4.314-1.236,0-1.939,1.652-2.061,4.314Zm-1.741,9.027c-3.491,0-5.915-2.919-5.915-7.216s2.473-7.44,5.843-7.44c2.934,0,4.946,2.437,4.946,6,0,.61-.045,1.005-.034,1.043H347.9a7.192,7.192,0,0,0,.093,1.93c.364,2.117,1.479,3.368,3.079,3.368a3.794,3.794,0,0,0,3.535-1.844l.2.529c-1.043,2.084-2.921,3.633-4.957,3.633Z" transform="translate(-5.614 -5.908)" fill-rule="evenodd"/>
    <path id="Контур_74" data-name="Контур 74" d="M373.96,294.318c-.873-2.084-2.05-3.224-3.41-3.224-1.026,0-2.076.674-2.076,1.636a2.059,2.059,0,0,0,1.334,2.006l1.616.641c2.488.962,3.566,2.406,3.566,4.811,0,2.758-2.024,4.49-4.77,4.49-1.02,0-2.664-.689-3.462-.727-.383-.018-.381.6-.381.6h-.7c0-1.988-.043-2.35-.033-4.618h.574c.9,2.373,2.027,3.8,3.541,3.769a2.121,2.121,0,0,0,2.332-1.86,2.47,2.47,0,0,0-1.924-2.39l-.963-.462c-1.757-1.123-3.437-1.844-3.4-4.542.039-2.765,1.719-4.064,4.125-4.4a8.792,8.792,0,0,1,3.7.63c.143,0,.3-.591.3-.591h.364c-.025.93-.025,1.6-.025,2.052,0,.481,0,1.219.025,2.181Z" transform="translate(-16.275 -5.96)" fill-rule="evenodd"/>
    <path id="Контур_75" data-name="Контур 75" d="M400.055,288.191l.026,5.075h-.733c-.411-2.694-1.575-4.45-3.32-4.45h-.667v4.163c-.025,3.816.488,4.586,3.027,4.586,2.136,0,5.071-2.752,5.509-5.4l.733.038c-.1,1.761-.892,5.078-.993,6.221l-.808-.032h-9.5c-2.463,0-2.594,0-4.133.032l.076-.837c1.885-.03,2.044-1.61,2.056-2.753l.025-2.085V282.713l-.025-.513c-.026-2.438-.131-2.951-2.132-3.015V277.89c1.539.064,1.491.064,4.03.064h6.312l2.129-.032,1.766.006c.026,2.437.053,6.784.053,6.784l-.722.019c-.582-3.435-1.548-5.27-5.176-5.27-1.283,0-2.078.064-2.181.224-.051.1-.077-.322-.077.833v7.127h.641c1.821.032,3.344-2.052,3.421-4.394h.721l-.065,4.939Z" transform="translate(-27.845)" fill-rule="evenodd"/>
    <path id="Контур_76" data-name="Контур 76" d="M424.83,305.225c-3.244,0-5.964-1.988-5.964-7.3,0-4.426,2.77-7.41,6.568-7.41,2.437,0,4.174,1.315,4.208,3.111.038,2.075-.909,2.075-1.652,2.075-.821,0-1.762-.069-1.809-2.129-.023-1.01-.319-1.9-1.284-1.9-1.518.015-2.207,2.015-2.207,5.639,0,3.543,1.893,5.652,3.13,5.8a3.294,3.294,0,0,0,3.5-1.749l.63.592a5.74,5.74,0,0,1-5.117,3.257Z" transform="translate(-42.413 -6.202)" fill-rule="evenodd"/>
    <path id="Контур_77" data-name="Контур 77" d="M447.668,284.563c2.335,0,3.566,1.539,3.566,4.393v3.656c0,.737,0,1.958-.026,2.439v.385c0,2.533.1,2.758,1.334,2.95l0,.032v.447c-1.36-.064-1.593-.064-2.8-.064-1.232,0-1.568,0-3.236.064v-.447l0-.032c1.231-.192,1.334-.417,1.334-2.95v-.385c-.026-.481-.026-1.7-.026-2.439V290.3c0-2.469-.513-3.769-1.744-3.769-1.642,0-2.386,1.507-2.386,4.939v3.963c0,2.533.077,2.758,1.309,2.95l.028.032v.447c-1.386-.064-1.593-.064-2.953-.064s-1.644,0-3.158.064v-.447l.028-.032c1.232-.192,1.308-.417,1.308-2.919V282.895c0-3.5-.077-3.026-1.334-3.251a1.521,1.521,0,0,1-.289-.064v-.791c1.963,0,5.042-.008,5.042-.008l.019,8.379a4.261,4.261,0,0,1,3.977-2.6Z" transform="translate(-52.119 -0.438)" fill-rule="evenodd"/>
    <path id="Контур_78" data-name="Контур 78" d="M470.916,291.12c-1.719,0-2.54,2.23-2.54,6.335s.8,6.367,2.488,6.367c1.77,0,2.514-2.1,2.514-6.239,0-4.233-.769-6.463-2.463-6.463Zm-.051,13.615c-3.592,0-6.337-3.143-6.337-7.248s2.8-7.344,6.363-7.344c3.541,0,6.311,3.207,6.311,7.28,0,4.169-2.745,7.312-6.337,7.312Z" transform="translate(-64.837 -6.017)" fill-rule="evenodd"/>
    <path id="Контур_79" data-name="Контур 79" d="M498.2,294.018c-.872-2.084-2.05-3.224-3.41-3.224-1.026,0-2.076.674-2.076,1.636a2.059,2.059,0,0,0,1.334,2.005l1.616.642c2.488.962,3.566,2.405,3.566,4.811,0,2.758-2.024,4.49-4.77,4.49-1.019,0-2.663-.689-3.462-.727-.383-.018-.381.6-.381.6h-.7c0-1.988-.044-2.35-.033-4.618h.574c.9,2.373,2.027,3.8,3.541,3.769a2.121,2.121,0,0,0,2.332-1.86,2.472,2.472,0,0,0-1.924-2.39l-.963-.461c-1.757-1.123-3.437-1.844-3.4-4.542.039-2.766,1.719-4.064,4.125-4.4a8.786,8.786,0,0,1,3.7.63c.143,0,.3-.592.3-.592h.364c-.026.93-.026,1.6-.026,2.053,0,.481,0,1.218.026,2.181Z" transform="translate(-77.289 -5.812)" fill-rule="evenodd"/>
  </g>
</svg>
