<svg xmlns="http://www.w3.org/2000/svg" width="85.191" height="22.647" viewBox="0 0 85.191 22.647">
  <g id="Сгруппировать_119" data-name="Сгруппировать 119" transform="translate(-94.727 -210.713)">
    <path id="Контур_92" data-name="Контур 92" d="M598.7,258.1h3.6a4.3,4.3,0,0,0-4.624-4.521c-4.407,0-5.228,3.223-5.228,5.526a5.663,5.663,0,0,0,6.113,5.931,12.55,12.55,0,0,0,3.443-.472v-1.923c-2.174.946-5.4.987-5.81-2.593-.343-2.993.214-4.9,1.262-4.9.909,0,1.246,1.324,1.246,2.949" transform="translate(-432.931 -37.283)"/>
    <path id="Контур_93" data-name="Контур 93" d="M682.462,258.163V259.3h-6.28c.221,4.42,3.532,4.284,5.859,3.331v1.923a11.638,11.638,0,0,1-3.362.471c-5.4,0-6.2-4.018-6.2-6.057,0-2.36,1.032-5.4,5.164-5.4,3.045,0,4.817,1.928,4.817,4.6m-3.8-.569c-.019-1.229-.257-2.457-1.151-2.457-.845,0-1.157.978-1.286,2.457Z" transform="translate(-502.544 -37.271)"/>
    <path id="Контур_94" data-name="Контур 94" d="M423.521,257.561v7.125h-5.935c-2.183,0-3.785-.9-3.78-3.344.008-3.972,4.614-3.828,5.952-3.831v-.276c0-2.421-2.4-2.186-3.837-1.768a7.366,7.366,0,0,0-.8.293l0-1.789a13.356,13.356,0,0,1,3.492-.407c3.163,0,4.908,1.491,4.908,4m-4.375,5.5.613,0v-4.054a2.1,2.1,0,0,0-2.166,2.238C417.594,262.9,418.379,263.026,419.146,263.057Z" transform="translate(-277.543 -37.271)"/>
    <path id="Контур_95" data-name="Контур 95" d="M374.514,253.562h-.8c-3.114,0-5.142,1.657-5.144,3.868v7.256h3.763v-7.14a2.018,2.018,0,0,1,2.183-2.289v-1.694" transform="translate(-238.193 -37.271)"/>
    <path id="Контур_96" data-name="Контур 96" d="M322.485,221.925c-3.283,0-6.06.464-6.06,4.48v10.762h3.762V228.1h2.571v-1.688h-2.571v-.844c0-2,1.588-1.974,3.1-1.974v-1.668h-.8" transform="translate(-192.838 -9.752)"/>
    <path id="Контур_97" data-name="Контур 97" d="M504.3,256.382v10.757h3.762v-9.068h.2c1.307.006,2.234.121,2.234,2.6v6.467h3.762V260.88c0-2.007-.009-4.5-5.33-4.5H504.3" transform="translate(-356.257 -39.724)"/>
    <path id="Контур_98" data-name="Контур 98" d="M273.4,355.23a2.05,2.05,0,1,1-2.05-2.051,2.05,2.05,0,0,1,2.05,2.051" transform="translate(-151.849 -123.92)"/>
    <rect id="Прямоугольник_45" data-name="Прямоугольник 45" width="3.763" height="10.757" transform="translate(117.622 216.658)"/>
    <path id="Контур_99" data-name="Контур 99" d="M99.936,237.167H94.727V221.925h3.785v4.486h1.1c5.108,0,5.106,4,5.106,5.276,0,1.686-.534,5.481-4.776,5.481M98.8,235.573c1.552,0,2.091-1.473,2.091-3.912,0-2.327-.539-3.687-2.144-3.687h-.235v7.6Z" transform="translate(0 -9.752)"/>
    <path id="Контур_100" data-name="Контур 100" d="M187.882,256.382c4.243,0,4.776,3.794,4.776,5.48,0,1.28,0,5.277-5.106,5.277h-1.1v4.486h-3.784V256.382h5.208m-1.136,1.566-.288,0v7.6h.235c1.6,0,2.146-1.36,2.146-3.685C188.838,259.421,188.3,257.948,186.746,257.948Z" transform="translate(-76.498 -39.724)"/>
    <path id="Контур_101" data-name="Контур 101" d="M273.4,212.764a2.05,2.05,0,1,1-2.05-2.051,2.05,2.05,0,0,1,2.05,2.051" transform="translate(-151.849 0)"/>
  </g>
</svg>
