<svg xmlns="http://www.w3.org/2000/svg" width="50.443" height="85.535" viewBox="0 0 50.443 85.535">
  <g id="Сгруппировать_152" data-name="Сгруппировать 152" transform="translate(-12 -2)">
    <path id="Контур_135" data-name="Контур 135" d="M52.606,2H21.836C16.41,2.012,12.013,6.078,12,11.1V78.437c.011,5.019,4.41,9.088,9.836,9.1h30.77c5.427-.01,9.824-4.078,9.836-9.1V11.1C62.43,6.078,58.033,2.012,52.606,2Zm5.633,76.437a5.434,5.434,0,0,1-5.633,5.21H21.836a5.434,5.434,0,0,1-5.633-5.21h0V11.1a5.434,5.434,0,0,1,5.633-5.21h30.77a5.434,5.434,0,0,1,5.633,5.21h0Z" transform="translate(0 0)" fill="#ffe604"/>
    <path id="Контур_136" data-name="Контур 136" d="M34.712,6H22.1a2.1,2.1,0,0,0,0,4.2H34.712a2.1,2.1,0,1,0,0-4.2Z" transform="translate(8.814 4.407)" fill="#ffe604"/>
    <ellipse id="Эллипс_31" data-name="Эллипс 31" cx="3.5" cy="4" rx="3.5" ry="4" transform="translate(34 70.969)" fill="#ffe604"/>
  </g>
</svg>
