<svg xmlns="http://www.w3.org/2000/svg" width="85.596" height="98.839" viewBox="0 0 85.596 98.839">
  <g id="s-icon4" transform="translate(-6087.208 1224.312)">
    <path id="Контур_279" data-name="Контур 279" d="M141.736,1515.56l-42.8-24.71V1454.7h3.319v34.231l39.479,22.793,40.309-23.272,1.66,2.875Z" transform="translate(5988.271 -2641.033)" fill="#151325"/>
    <path id="Контур_280" data-name="Контур 280" d="M150.076,1485.037a26.3,26.3,0,1,1,26.3-26.3A26.329,26.329,0,0,1,150.076,1485.037Zm0-49.279a22.98,22.98,0,1,0,22.98,22.98A23.006,23.006,0,0,0,150.076,1435.758Z" transform="translate(5979.921 -2633.549)" fill="#151325"/>
    <path id="Контур_278" data-name="Контур 278" d="M184.955,1457.539h-3.319v-33.425l-39.479-22.793-40.309,23.273-1.66-2.875,41.969-24.231,42.8,24.71Z" transform="translate(5987.85 -2621.8)" fill="#151325"/>
  </g>
</svg>
