<svg xmlns="http://www.w3.org/2000/svg" width="70.946" height="88.624" viewBox="0 0 70.946 88.624">
  <g id="s-icon5" transform="translate(-6819.871 1219.041)">
    <g id="Сгруппировать_281" data-name="Сгруппировать 281" transform="translate(6819.871 -1219.041)">
      <rect id="Прямоугольник_108" data-name="Прямоугольник 108" width="16.626" height="3.319" transform="translate(0 7.105)" fill="#151325"/>
      <rect id="Прямоугольник_109" data-name="Прямоугольник 109" width="40.048" height="3.319" transform="translate(30.898 7.105)" fill="#151325"/>
      <rect id="Прямоугольник_110" data-name="Прямоугольник 110" width="52.057" height="3.319" transform="translate(0 42.636)" fill="#151325"/>
      <rect id="Прямоугольник_111" data-name="Прямоугольник 111" width="4.617" height="3.319" transform="translate(66.33 42.636)" fill="#151325"/>
      <rect id="Прямоугольник_112" data-name="Прямоугольник 112" width="28.482" height="3.319" transform="translate(0 78.168)" fill="#151325"/>
      <rect id="Прямоугольник_113" data-name="Прямоугольник 113" width="28.482" height="3.319" transform="translate(42.465 78.168)" fill="#151325"/>
      <path id="Контур_251" data-name="Контур 251" d="M1233.926,1423.021a8.8,8.8,0,1,1,8.8-8.8A8.807,8.807,0,0,1,1233.926,1423.021Zm0-14.273a5.477,5.477,0,1,0,5.477,5.477A5.483,5.483,0,0,0,1233.926,1408.748Z" transform="translate(-1210.164 -1405.429)" fill="#151325"/>
      <path id="Контур_252" data-name="Контур 252" d="M1287.3,1476.5a8.8,8.8,0,1,1,8.8-8.8A8.806,8.806,0,0,1,1287.3,1476.5Zm0-14.273a5.477,5.477,0,1,0,5.477,5.477A5.483,5.483,0,0,0,1287.3,1462.223Z" transform="translate(-1228.105 -1423.404)" fill="#151325"/>
      <path id="Контур_253" data-name="Контур 253" d="M1251.567,1530.019a8.8,8.8,0,1,1,8.8-8.8A8.807,8.807,0,0,1,1251.567,1530.019Zm0-14.273a5.477,5.477,0,1,0,5.477,5.477A5.484,5.484,0,0,0,1251.567,1515.746Z" transform="translate(-1216.094 -1441.396)" fill="#151325"/>
    </g>
  </g>
</svg>
