<svg id="saf3" xmlns="http://www.w3.org/2000/svg" width="81.618" height="112.831" viewBox="0 0 81.618 112.831">
  <path id="Контур_205" data-name="Контур 205" d="M159.721,1303.652h-40.4a8.9,8.9,0,0,1-8.893-8.893l3.319-.028a5.586,5.586,0,0,0,5.574,5.6h40.4a5.579,5.579,0,0,0,5.573-5.574v-32.418h3.319v32.418A8.9,8.9,0,0,1,159.721,1303.652Z" transform="translate(-102.243 -1190.821)" fill="#f8f8ee"/>
  <rect id="Прямоугольник_93" data-name="Прямоугольник 93" width="3.319" height="18.878" transform="translate(63.05 22.507)" fill="#f8f8ee"/>
  <path id="Контур_206" data-name="Контур 206" d="M113.745,1195.054h-3.319V1163.5a8.9,8.9,0,0,1,8.893-8.893h40.4a8.9,8.9,0,0,1,8.892,8.893h-3.319a5.58,5.58,0,0,0-5.573-5.574h-40.4a5.58,5.58,0,0,0-5.574,5.574Z" transform="translate(-102.243 -1154.607)" fill="#f8f8ee"/>
  <rect id="Прямоугольник_94" data-name="Прямоугольник 94" width="3.319" height="18.41" transform="translate(8.183 72.241)" fill="#f8f8ee"/>
  <path id="Контур_207" data-name="Контур 207" d="M151.729,1306.747a5.486,5.486,0,1,1,5.486-5.486A5.492,5.492,0,0,1,151.729,1306.747Zm0-7.654a2.167,2.167,0,1,0,2.167,2.167A2.17,2.17,0,0,0,151.729,1299.093Z" transform="translate(-114.283 -1202.059)" fill="#f8f8ee"/>
  <rect id="Прямоугольник_95" data-name="Прямоугольник 95" width="14.589" height="3.319" transform="translate(30.152 11.535)" fill="#f8f8ee"/>
  <path id="Контур_208" data-name="Контур 208" d="M200.391,1247.473H180.706v-32.156h19.685Zm-16.366-3.319h13.047v-25.518H184.025Z" transform="translate(-125.868 -1175.014)" fill="#f8f8ee"/>
  <path id="Контур_209" data-name="Контур 209" d="M215.772,1243.935H205.359v-18.1h10.413Zm-7.094-3.319h3.775v-11.459h-3.775Z" transform="translate(-134.154 -1178.551)" fill="#f8f8ee"/>
  <path id="Контур_210" data-name="Контур 210" d="M117.785,1247.421H98.1v-32.156h19.685Zm-16.366-3.319h13.047v-25.518H101.419Z" transform="translate(-98.1 -1174.997)" fill="#f8f8ee"/>
</svg>
