<svg xmlns="http://www.w3.org/2000/svg" width="64.708" height="135.345" viewBox="0 0 64.708 135.345">
  <g id="Сгруппировать_201" data-name="Сгруппировать 201" transform="translate(34.188 1.931)">
    <path id="Контур_150" data-name="Контур 150" d="M-34.188,122.64a10.783,10.783,0,0,0,10.77,10.774H19.75a10.754,10.754,0,0,0,7.528-18.45,10.716,10.716,0,0,0,0-15.36,10.754,10.754,0,0,0-7.528-18.45H-3.06V24.026a3.3,3.3,0,0,1,3.3-3.3,3.3,3.3,0,0,1,3.3,3.3V43.041a11.331,11.331,0,0,0,22.661,0V24.026A25.987,25.987,0,0,0,.236-1.931,25.986,25.986,0,0,0-25.721,24.026V81.413a10.785,10.785,0,0,0-8.467,10.511A10.73,10.73,0,0,0-30.95,99.6a10.73,10.73,0,0,0-3.238,7.68,10.73,10.73,0,0,0,3.238,7.68A10.713,10.713,0,0,0-34.188,122.64ZM.236,4.249A19.8,19.8,0,0,1,20.018,24.026V43.041a5.15,5.15,0,1,1-10.3,0V24.026A9.489,9.489,0,0,0,.236,14.55,9.488,9.488,0,0,0-9.24,24.026V81.153h-10.3V24.026A19.8,19.8,0,0,1,.236,4.249ZM-28.008,91.923a4.6,4.6,0,0,1,4.59-4.59H19.75a4.59,4.59,0,1,1,0,9.18H-23.418A4.6,4.6,0,0,1-28.008,91.923Zm0,15.36a4.6,4.6,0,0,1,4.59-4.59H19.75a4.59,4.59,0,1,1,0,9.18H-23.418A4.6,4.6,0,0,1-28.008,107.284Zm47.757,10.77a4.59,4.59,0,1,1,0,9.18H-23.418a4.6,4.6,0,0,1-4.59-4.594,4.593,4.593,0,0,1,4.59-4.586Z" transform="translate(0 0)" fill="#f8f8ee"/>
  </g>
</svg>
