<svg xmlns="http://www.w3.org/2000/svg" width="448.889" height="379.992" viewBox="0 0 448.889 379.992">
  <g id="Сгруппировать_153" data-name="Сгруппировать 153" transform="translate(-6.586 -13.497)">
    <path id="Контур_137" data-name="Контур 137" d="M93.777,59.973l-.031-.149-.01-.051-.179-.589c-.01-.041-.031-.072-.041-.108a.356.356,0,0,0-.051-.118l-.22-.441v-.01l-.02-.02a.746.746,0,0,0-.138-.22,1.276,1.276,0,0,0-.138-.149.123.123,0,0,0-.051-.051v-.01l-.318-.272-.072-.051a.459.459,0,0,0-.128-.082.678.678,0,0,0-.128-.082l-.072-.031-.451-.179-.051-.021c-.051-.01-.1-.031-.149-.041l-.138-.031-.051-.01-.461-.051h-.22a1.045,1.045,0,0,0-.19.031l-.061.01-.379.092h-.02l-.092.031c-.051.01-.092.031-.138.041l-.031.021h-.021l-.159.072-.63.282-.01.01a.52.52,0,0,0-.138.082l-.118.072-.02.01-.6.461-.02.021L88,58.472l-.641.538-.01.01-.1.108-.1.108-.01.01-.338.471a.174.174,0,0,0-.061.061.482.482,0,0,0-.1.1.608.608,0,0,0-.092.128l-.061.062-.5.81-.02.051-.031.041-.5.963L85.4,62c-.01.031-.031.041-.031.072L85,62.961l-.01.031a452.109,452.109,0,0,1-.082.277v.021l-.138.9v.143l-.051.912v.164l.051.682v.1l.051.359.02.041v.051l.051.22.01.041a.238.238,0,0,0,.031.118l.061.149.01.051.22.43v.01l.01.01c.041.082.082.138.118.21l.041.051c.051.051.1.108.149.149l.031.031.359.318.041.031a.623.623,0,0,0,.1.072,1.554,1.554,0,0,0,.128.092l.051.02.369.179c.021.021.051.021.072.031a.589.589,0,0,0,.19.061.606.606,0,0,0,.138.031.245.245,0,0,0,.092.021l.548.051.1.01h.021A1.712,1.712,0,0,0,88.027,69l.082-.02h.072l.5-.149.159-.061a.268.268,0,0,0,.082-.031l.63-.313.031-.02a.519.519,0,0,0,.138-.082l.671-.441.01-.01.138-.118.082-.062v-.01l.538-.538.041-.061.051-.031.63-.769a1.237,1.237,0,0,0,.082-.118l.051-.061.492-.81.02-.031.01-.01.5-.912.01-.041a1.122,1.122,0,0,0,.072-.128l.359-.9v-.02a.963.963,0,0,0,.061-.231l.021-.031.159-.871a.152.152,0,0,0,.021-.092l.021-.128.041-.912V60.2l-.01-.061C93.787,60.076,93.787,60.024,93.777,59.973Z" transform="translate(322.241 180.272)" fill="#f8f8ee"/>
    <path id="Контур_138" data-name="Контур 138" d="M112.892,62.206a.321.321,0,0,0-.031-.138.709.709,0,0,0-.041-.149l-.01-.031-.261-.733h-.01a.59.59,0,0,0-.062-.128.8.8,0,0,0-.072-.128v-.01l-.41-.63c-.01-.031-.041-.051-.061-.082a.737.737,0,0,0-.1-.118,1.071,1.071,0,0,0-.108-.108l-.072-.061-.589-.451a1.6,1.6,0,0,0-.138-.092.669.669,0,0,1-.108-.061h-.01L110.227,59l-.051-.02-.138-.051a.6.6,0,0,0-.138-.031l-.051-.02-.492-.082a.826.826,0,0,0-.159-.01l-.092-.01h-.261l-.118.01a.478.478,0,0,1-.118.01l-.769.128a1.283,1.283,0,0,0-.128.041.5.5,0,0,0-.118.031l-.861.318h-.02a.959.959,0,0,0-.128.072.5.5,0,0,0-.138.072l-.01.01-.82.538-.031.02c-.01.021-.02.021-.041.021l-3.526,2.634L102,62.7l-.041.031-3.433,2.844-.02.021-.021.01-3.444,3.034-.01.02-.021.01-3.433,3.264-.02.021-.02.021-3.274,3.4-.01.02-.021.01-3.213,3.561-.02.02V79l-3.172,3.674-.01.02-.031.031-3.064,3.884-.021.021-.01.02-2.224,2.972v.01l-.7.953-.031.02-.031.031L72.886,94.8v.01l-.01.021-2.721,4.243V99.1l-.01.02-1.993,3.31h-.01l-.01.01-.538.953v.01l-.313.538-.02.031c-.021.062-.051.1-.061.149a.372.372,0,0,0-.051.128l-.01.041-.149.538-.01.041c-.01.051-.01.1-.02.138l-.01.128-.072.338v.1a.8.8,0,0,0-.01.159.855.855,0,0,0,.01.159v.1l.092.441a.245.245,0,0,0,.02.092l.01.072.1.313.01.041c.031.072.051.138.082.21l.041.072a1.568,1.568,0,0,0,.108.149l.051.072.128.128.041.041.272.22c.041.031.082.051.118.082a.223.223,0,0,0,.082.051.809.809,0,0,0,.251.118l.272.092a.493.493,0,0,0,.108.031.3.3,0,0,0,.092.021,1.226,1.226,0,0,0,.272.031h.4a1.226,1.226,0,0,0,.272-.031.244.244,0,0,0,.092-.021.3.3,0,0,0,.108-.031l.4-.138.041-.01a1.444,1.444,0,0,0,.179-.092l.082-.041.051-.031.461-.318a.4.4,0,0,0,.108-.1.625.625,0,0,0,.1-.072l.01-.02.348-.348.092-.128a.123.123,0,0,0,.051-.051l.292-.41,3.085-3.741,3.141-3.643,3.192-3.551,3.2-3.515,3.321-3.413h.01l3.244-3.331,3.4-3.182,3.321-3.1,3.464-2.962,3.413-2.931,3.423-2.731.328-.261.041-.031.041-.02.313-.272v-.01l.01-.01.348-.3.292-.241.318-.241.02-.021.082-.082c.061-.051.1-.1.159-.159l.031-.031.21-.282.169-.169.272-.21.02-.021a.847.847,0,0,0,.092-.082,1.36,1.36,0,0,0,.149-.149l.031-.041.21-.282.292-.292a.66.66,0,0,0,.082-.092.352.352,0,0,1,.062-.062l.272-.369.261-.338.031-.051.061-.082.01-.01.021-.051a.343.343,0,0,1,.061-.1.194.194,0,0,1,.031-.092.422.422,0,0,1,.031-.082.3.3,0,0,1,.02-.092l.01-.031.231-1.081a.334.334,0,0,1,.01-.108l.01-.128.041-1a.342.342,0,0,0,0-.1v-.108l-.092-.892Zm-4.714.84-.128.62-.051.072-.251.261-.041.041-.041.041-.21.241-.282.251a.928.928,0,0,0-.169.179l-.031.041-.159.2-.2.159a.666.666,0,0,0-.092.082l-.1.092-.3.338-.169.159-.282.21v.01c-.031.021-.072.062-.108.092l-.108.108-.179.2-.179.118-.072.061c-.031.021-.072.031-.092.061l-.313.261-3.474,2.834v.01h-.01l-3.444,2.854v.02l-.031.01-3.433,3.034-.021.01-.021.021L90.8,78.9h-.01v.01l-3.392,3.2-.01.01-.01.01L84.037,85.4l-.031.02-.021.021-1.793,1.922-.569.2,2.4-3.023,3.121-3.633,3.192-3.541L93.563,74l3.392-3.213,3.382-2.993,3.423-2.824,3.454-2.572.651-.43.282-.108.021.4v.784Z" transform="translate(248.613 186.755)" fill="#f8f8ee"/>
    <path id="Контур_139" data-name="Контур 139" d="M455.383,228.628l-.179-1.009-.01-.051c-.01-.051-.031-.092-.041-.138a1.221,1.221,0,0,0-.062-.138c0-.021,0-.041-.02-.051l-.4-.82-.051-.061a.677.677,0,0,0-.082-.128,1,1,0,0,0-.092-.108l-.051-.072-.548-.538-.031-.031-.061-.051a.719.719,0,0,0-.092-.061l-.092-.072-.031-.02-21.7-12.509.021-.733v-.092l-.22-5.744-.01-.072-.01-.051-.671-5.437-.021-.072v-.082l-1.189-5.022a.148.148,0,0,0-.021-.072l-.01-.072-1.594-4.663-.031-.082c-.021-.031-.021-.062-.041-.082l-2.081-4.212a.241.241,0,0,0-.062-.092.364.364,0,0,0-.041-.092l-2.531-3.664-.072-.072a1.538,1.538,0,0,0-.108-.128l-.118-.108-.082-.072-1.942-1.3-.021-.021-.051-.02-.021-.021-2-1.132-.092-.051-.092-.041-2.214-.851v-.01h-.01c-.041-.02-.1-.02-.138-.041a.575.575,0,0,0-.118-.031h-.021l-2.444-.441v-.01l-.041-.01h-.128a.515.515,0,0,0-.118-.02h-.261l-4.356-24.028a.382.382,0,0,0-.02-.092c-.01-.051-.031-.1-.041-.149a.829.829,0,0,0-.062-.118.439.439,0,0,0-.072-.128.352.352,0,0,0-.082-.108.548.548,0,0,0-.062-.1l-13.3-14.922c-.01-.021-.041-.031-.051-.051a1.172,1.172,0,0,1-.118-.108l-.108-.082-.072-.041-7.958-4.663c-.02-.021-.051-.021-.082-.041l-.138-.061a.639.639,0,0,1-.138-.051.241.241,0,0,1-.082-.02l-19.6-4.023a.228.228,0,0,0-.092-.01c-.051-.01-.1-.01-.159-.021l-.118.01a1,1,0,0,0-.169.01,1.3,1.3,0,0,1-.128.041.392.392,0,0,0-.1.031l-6.723,2.444-1.281-7.056-.031-.092a.627.627,0,0,0-.041-.149c-.021-.051-.041-.082-.061-.128a1.118,1.118,0,0,0-.072-.128.267.267,0,0,0-.092-.108.417.417,0,0,0-.051-.092l-13.3-14.932-.061-.051c-.031-.031-.072-.061-.108-.1l-.118-.092-.072-.041-7.958-4.612c-.02-.02-.051-.02-.082-.041l-.138-.062c-.046-.02-.1-.031-.149-.051-.02,0-.041-.021-.072-.021l-4.064-.81-9.936-5.744,1.22-.7.041-.031a.667.667,0,0,0,.118-.092.724.724,0,0,0,.1-.082.971.971,0,0,0,.1-.1l.092-.108a1.029,1.029,0,0,0,.072-.118l.072-.118a.47.47,0,0,0,.041-.128.738.738,0,0,0,.041-.128l.031-.072,1.143-.4.02-.01a.986.986,0,0,0,.179-.092l.072-.031.128-.1a.319.319,0,0,0,.092-.072l1.143-1.04c.031-.031.051-.072.082-.1s.051-.031.062-.051l5.883-7.246.02-.031a.728.728,0,0,0,.108-.169.153.153,0,0,0,.031-.072l.031-.031.5-1.092.021-.061c.021-.051.031-.1.051-.159l.031-.118.01-.072.19-1.409v-.338l-.179-1.512v-.031l-.031-.118c-.01-.036-.01-.082-.021-.128l-.512-1.63-.031-.1c-.02-.031-.02-.072-.041-.1l-.779-1.63a.341.341,0,0,0-.061-.1.321.321,0,0,0-.051-.1l-1.03-1.491c-.031-.031-.061-.051-.072-.082l-.061-.082-1.143-1.22-.118-.108-.108-.092-1.312-.912a.746.746,0,0,1-.092-.051l-.108-.061-1.209-.589-.092-.021-.138-.061-.149-.031a.193.193,0,0,1-.082-.02l-1.173-.128h-.061a.75.75,0,0,0-.149-.01.7.7,0,0,1-.138.01h-.051l-7.138,1.179-.031-.021-.108-.041c-.061-.021-.108-.041-.149-.051a.7.7,0,0,0-.138-.021c-.041-.01-.092-.01-.138-.02a.563.563,0,0,0-.128.01h-.149l-.118.031a.49.49,0,0,0-.138.041c-.061.02-.118.051-.169.072a.363.363,0,0,1-.092.041v.01l-.328.19-.441.092-.051.01-.051.01-.031.01-1.532.451-.041.01a.913.913,0,0,0-.138.062l-.128.061a.745.745,0,0,0-.108.082.427.427,0,0,0-.128.092l-.031.02-1.173,1.081a1.811,1.811,0,0,0-.19.22,1.1,1.1,0,0,0-.138.241l-13.5,7.794-.092-.061-4.023-4.474-.062-.061-.108-.092a.931.931,0,0,0-.118-.092l-.061-.051-8.015-4.653-.072-.031a1.356,1.356,0,0,1-.149-.072c-.051-.01-.1-.031-.149-.041l-.082-.031-4.064-.758-9.931-5.775,1.174-.671.041-.031a.483.483,0,0,0,.128-.092.4.4,0,0,0,.1-.082.674.674,0,0,0,.1-.108.4.4,0,0,0,.082-.1.653.653,0,0,1,.082-.108.564.564,0,0,0,.061-.128l.062-.128.031-.128a.138.138,0,0,0,.021-.092l1.163-.369.041-.02.149-.061.1-.061c.041-.031.082-.051.118-.082l.118-.092.02-.02,1.133-1.091.061-.072.062-.062,5.883-7.236.021-.031a1.025,1.025,0,0,0,.108-.169l.041-.061.01-.031.5-1.04.01-.072a.465.465,0,0,0,.061-.159.359.359,0,0,0,.031-.118c0-.02.02-.051.02-.082l.179-1.363v-.021a.75.75,0,0,0,.01-.149v-.169l-.19-1.63a.571.571,0,0,0-.031-.118.292.292,0,0,0-.021-.128l-.492-1.63-.062-.118a.353.353,0,0,0-.041-.118l-.01-.031-.8-1.553-.041-.061-.031-.061-.933-1.46-.031-.031a.341.341,0,0,0-.062-.1.832.832,0,0,0-.092-.1l-1.173-1.271v-.01c-.041-.041-.082-.061-.108-.1-.041-.031-.082-.072-.118-.092l-.01-.01-1.322-.9v-.01a.953.953,0,0,1-.128-.072.711.711,0,0,1-.138-.072l-1.271-.5-.02-.01a.83.83,0,0,1-.138-.041.582.582,0,0,0-.148-.031l-.01-.01-1.179-.123h-.369a.174.174,0,0,0-.072.01l-7.256,1.153-.072-.02a.571.571,0,0,0-.118-.031.794.794,0,0,0-.149-.02.562.562,0,0,0-.128-.01.854.854,0,0,0-.159.01,42.6,42.6,0,0,0-.266.051c-.041.01-.072.031-.118.041a.428.428,0,0,1-.1.041l-.359.179-.533.108h-.01l-.072.01-.072.021-1.491.451-.041.021a.731.731,0,0,0-.159.061.714.714,0,0,0-.108.051l-.118.082c-.041.031-.082.072-.118.1l-.041.031-1.132,1.1-.041.041c-.041.041-.072.082-.1.118s-.051.082-.082.118c-.02.021-.02.041-.041.051l-.041.062L247.19,55.1l-6.323-3.623a.371.371,0,0,0-.061-.138.3.3,0,0,0-.051-.108l-.01-.02-.179-.318-.021-.021a.608.608,0,0,0-.092-.128.357.357,0,0,0-.092-.108l-.01-.02-.272-.282-.041-.031c-.041-.031-.082-.072-.118-.1a.748.748,0,0,0-.108-.082l-.051-.041L220.241,38.924l1.25-.743.031-.02c.051-.031.092-.072.128-.092a.927.927,0,0,0,.1-.092c.031-.031.061-.072.1-.108a.925.925,0,0,0,.092-.1l.062-.118a.558.558,0,0,0,.072-.118c.021-.041.031-.092.051-.128l.041-.128.01-.031,1.122-.328a.11.11,0,0,0,.062-.02,1.454,1.454,0,0,1,.149-.061.415.415,0,0,0,.108-.051l.108-.082a.335.335,0,0,0,.118-.1l.041-.031,1.179-1.132.072-.082.051-.061,5.8-7.236.021-.031a.641.641,0,0,0,.118-.179c0-.021.02-.031.031-.041v-.01l.533-1.091.041-.072a.825.825,0,0,0,.051-.159.458.458,0,0,1,.041-.118l.01-.092.179-1.363v-.031a.653.653,0,0,0,.01-.138V24.55l-.179-1.583a.92.92,0,0,0-.051-.179.308.308,0,0,0-.021-.108l-.533-1.619-.041-.082c-.01-.02-.01-.051-.031-.072l-.723-1.594c-.01-.031-.041-.061-.051-.092-.031-.031-.041-.072-.072-.108l-.979-1.481a.929.929,0,0,0-.092-.1.887.887,0,0,0-.072-.1l-1.189-1.23-.082-.082c-.031-.01-.051-.041-.092-.072l-1.3-.989-.041-.02c-.041-.031-.082-.051-.128-.082s-.082-.051-.118-.072l-.041-.02-1.271-.5-.061-.01c-.051-.01-.092-.031-.138-.041a.792.792,0,0,0-.159-.031l-.051-.01-1.179-.092h-.01a.822.822,0,0,0-.159,0,.855.855,0,0,0-.159.01h-.01l-7.174,1.1c-.01-.01-.041-.01-.062-.031l-.128-.031a.66.66,0,0,0-.128-.031.7.7,0,0,0-.138-.02.315.315,0,0,0-.138,0,.653.653,0,0,0-.138.01.515.515,0,0,0-.128.02l-.138.031-.128.061a.961.961,0,0,0-.128.061l-.051.031-.231.138-.441.051-.1.02a.93.93,0,0,0-.149.041h-.041l-1.5.512h-.021a.709.709,0,0,0-.138.072.514.514,0,0,0-.118.061l-.092.051a1.521,1.521,0,0,0-.138.118l-.01.01-1.153,1.071-.01.01-.031.021c-.051.061-.108.118-.159.19a.928.928,0,0,0-.1.169l-.041.061-13.544,7.789-21.01-12.042a.246.246,0,0,0-.082-.041c-.056-.02-.1-.051-.149-.072a.753.753,0,0,1-.154-.041c-.026,0-.067-.02-.1-.02l-.282-.051h-.067a.776.776,0,0,0-.154-.01h-.143l-.067.01-.282.041h-.005l-.031.01a.335.335,0,0,0-.092.02.906.906,0,0,0-.169.041,1.035,1.035,0,0,0-.154.072.4.4,0,0,0-.1.041l-.026.01-.256.149-.031.01-.1.082a.558.558,0,0,0-.118.072l-.272.231c-.021.021-.026.041-.051.051l-.051.041-.313.318a1.217,1.217,0,0,0-.113.138l-.082.092v.01l-.225.359c-.021.02-.021.041-.031.061l-.041.072-.231.451v.031a.326.326,0,0,0-.056.128.925.925,0,0,0-.051.138l-.005.02-.1.41v.01a.751.751,0,0,0-.01.149.453.453,0,0,0-.02.138v.338l.005.1a.5.5,0,0,0,.015.118l.036.313a.262.262,0,0,1,.031.1l.015.072.087.318.015.02.041.082a.538.538,0,0,0,.062.159.234.234,0,0,0,.056.082.437.437,0,0,0,.092.138l.056.082a1.276,1.276,0,0,0,.123.118l.067.061a1.268,1.268,0,0,0,.225.138l.241.118,22.2,13V44.9a.869.869,0,0,0,.031.159.4.4,0,0,0,.041.159c.01.031.01.072.02.092L201.922,63.9l-84.942,49.05-1.291-3.341-.021-.031a1.174,1.174,0,0,0-.072-.138.656.656,0,0,0-.067-.108.606.606,0,0,0-.092-.108.38.38,0,0,0-.092-.108.663.663,0,0,1-.092-.082,1.544,1.544,0,0,0-.128-.092l-.026-.031-1.2-.743-.241-.589,2.229-1.553c.031-.02.056-.051.082-.072a.46.46,0,0,0,.092-.082,1.213,1.213,0,0,0,.164-.2l.041-.041,8.414-12.708.005-.01a1.136,1.136,0,0,0,.108-.19l4.75-10.31.01-.051a.655.655,0,0,0,.056-.138l.031-.128a.411.411,0,0,0,.021-.138l.01-.138-.01-.128a.474.474,0,0,0-.021-.149l-.005-.061-.774-3.2v-.02a1.153,1.153,0,0,0-.067-.169l-.031-.1-.087-.128a.429.429,0,0,0-.067-.108.73.73,0,0,0-.077-.092,1.066,1.066,0,0,1-.108-.118l-.087-.061a1.574,1.574,0,0,0-.149-.108h-.01l-8.056-4.622-.026-.01a.656.656,0,0,0-.149-.061l-.118-.062a.6.6,0,0,0-.128-.02.905.905,0,0,0-.154-.031h-.036l-3.162-.231a.67.67,0,0,0-.143,0h-.092a1.523,1.523,0,0,0-.62.2l-6.39,3.4-8.117,4.156-7.22,1.363a.426.426,0,0,0-.108.031.436.436,0,0,1-.113.021l-1.993.733-.015.01-.01.01-8.778,3.392-.051.021a.4.4,0,0,0-.128.072.382.382,0,0,0-.118.072.746.746,0,0,0-.108.082l-.108.1-.041.041L77.81,91.024l-.067.092-.082.108a1.2,1.2,0,0,0-.072.138l-.051.108a.693.693,0,0,0-.046.169l-.031.082-1.4,8.1-.005.021c-.005.061-.005.118-.005.179a.793.793,0,0,0-.005.108,1.3,1.3,0,0,0,.02.149l.021.128.041.118a.488.488,0,0,0,.056.138l.01.031,1.671,3.392a2.057,2.057,0,0,0,.123.21l.046.051a.946.946,0,0,0,.133.149l.046.041a.95.95,0,0,0,.2.149l.015.01,15.973,9.229.051.02a.913.913,0,0,0,.241.108c.036,0,.067.021.1.021a1.093,1.093,0,0,0,.313.041l.021.01h.041l5.155-.138a.478.478,0,0,1,.118-.01.694.694,0,0,0,.149-.031,1.414,1.414,0,0,0,.21-.062l.061-.02.01-.01h.005l.584-.261.01.041,5.073,13.6L92.588,170.876h-.41c-.046,0-.092.02-.133.02a.793.793,0,0,0-.159.02h-.01L80.428,173.49h-.005a1.143,1.143,0,0,1-.159.051,1.2,1.2,0,0,0-.113.051h-.01L68.15,179.157l-.02.01c-.041.021-.087.062-.123.082l-.123.082-.021.01L44.511,197.989l-.031.031-.1.092c-.036.041-.077.082-.1.118l-.031.031L24.614,224.954l-.01.01a.789.789,0,0,1-.077.118.954.954,0,0,1-.072.128l-.01.021L11.188,255.536l-.01.041a1.109,1.109,0,0,0-.051.138l-.036.138-.01.041L6.6,285.181c-.01.031,0,.051-.01.092l-.005.138a.76.76,0,0,0,.015.159.449.449,0,0,0,.01.082l4.479,24.382a.455.455,0,0,0,.031.108.791.791,0,0,0,.031.118c.02.061.051.108.077.169.015.021.02.051.041.072a1.5,1.5,0,0,0,.149.22l.01.01L24.69,325.714c.02.02.036.02.056.051a1.4,1.4,0,0,0,.128.118l.113.072.067.062,8.05,4.566.051.02a.986.986,0,0,0,.231.092.427.427,0,0,1,.1.041h.026L53.064,334.9l.031.01a2.427,2.427,0,0,0,.272.02,1.591,1.591,0,0,0,.487-.082v-.01l6.692-2.4,1.266,6.928.031.1a.4.4,0,0,0,.036.118.852.852,0,0,0,.077.169l.036.072a.936.936,0,0,0,.159.22l.005.01,13.262,14.984.062.062c.041.031.082.072.123.108l.113.082a.313.313,0,0,0,.072.051l8.05,4.566.051.02a.868.868,0,0,0,.225.092.462.462,0,0,0,.108.041l.036.01,19.549,4.074h.026a2.247,2.247,0,0,0,.266.031l.092-.01.149-.01a.938.938,0,0,0,.241-.072l6.692-2.383,1.281,6.954.031.1.031.118a.878.878,0,0,0,.087.169l.026.072a2.454,2.454,0,0,0,.164.22l.005.01,13.3,14.932.051.051a1.3,1.3,0,0,1,.128.108.746.746,0,0,0,.108.082l.056.041,8,4.663.051.02a1.54,1.54,0,0,0,.246.1l.1.031.046.01,19.59,4.074.031.01a2.078,2.078,0,0,0,.261.02h.092a.79.79,0,0,0,.154-.02,1.11,1.11,0,0,0,.241-.062l23.167-8.286.041-.021a.65.65,0,0,0,.19-.092.224.224,0,0,0,.082-.051l.092-.051,20.892-16.152h.01l.041-.051a1.5,1.5,0,0,0,.179-.179l.021-.01,18.248-22.988c.051-.072.092-.149.138-.22v-.01l.01-.01,13.569-26.462.01-.031a1.3,1.3,0,0,0,.072-.179.241.241,0,0,0,.02-.082h.01l6.534-24.93,2.393,1.384h.01l.01.01,1.922,1.061.01.01.01.01.061.02.179.092.072.01.031.01.051.02a1.613,1.613,0,0,0,.313.031h.01a1.248,1.248,0,0,0,.328-.041l.031-.01h.031a2.539,2.539,0,0,0,.3-.128l.021-.02,43.188-24.93,5.806,6.523-1.471,2.393-.021.021-.01.02-3.725,6.564-.01.031-.01.02-3.392,6.657-.021.031-.01.031-3.075,6.836-.01.041-.01.031-2.721,6.867v.041l-.031.031-2.3,6.877a1.353,1.353,0,0,0-.072.292v.266l.01.138a.9.9,0,0,1,.031.128,1.106,1.106,0,0,0,.051.128.417.417,0,0,0,.051.128.725.725,0,0,0,.072.118l.072.118.118.118.082.092a1.5,1.5,0,0,0,.231.159l1.932,1.122v.01h.01l.01.01,12.57,7.236h.01l1.932,1.132h.01l.041.021a2,2,0,0,0,.22.092l.051.02.041.01.041.01a1.688,1.688,0,0,0,.318.041h.01a1.743,1.743,0,0,0,.318-.041l.072-.021a.945.945,0,0,0,.282-.118l.041-.01,127.73-73.755.031-.02c.061-.041.128-.082.19-.128l.031-.02.169-.2.031-.051a1.7,1.7,0,0,0,.108-.159l.041-.082c0-.02.021-.041.021-.072l2.542-6.605.01-.041.02-.051,2.07-6.554.01-.041.021-.051L429.807,231l.01-.041.01-.041.758-4.115,16.613,9.577h.01c.051.031.1.051.148.082l.062.021.722.272a.738.738,0,0,0,.128.041c.031,0,.072.02.1.02a1.223,1.223,0,0,0,.272.031h.072l.9-.051a.253.253,0,0,0,.092-.01.849.849,0,0,0,.159-.02.731.731,0,0,1,.128-.041c.031-.021.072-.021.092-.041l1-.389.021-.02a1.438,1.438,0,0,0,.179-.092l.072-.041h.01l.9-.641.1-.082.092-.082.912-.9c.041-.051.072-.1.108-.149.021-.021.041-.031.051-.051l.733-1.04.01-.031a1.181,1.181,0,0,0,.128-.22v-.01l.492-1.122.021-.051.061-.159.3-1.173a.138.138,0,0,0,.021-.082.607.607,0,0,0,.021-.128l.149-1.163v-.21a.372.372,0,0,0-.021-.149C455.383,228.664,455.383,228.643,455.383,228.628ZM194.63,28.957,174.184,16.987l.1-.2.108-.169.113-.118L194.63,28.03Zm145.3,86.3a.746.746,0,0,0,.179-.092l.062-.041.02-.01.461-.318.061-.051c.051-.051.118-.1.169-.159h.01l.4-.451a1.229,1.229,0,0,0,.128-.169l.031-.051.359-.579.021-.041.041-.072.272-.538.01-.041a1.088,1.088,0,0,0,.072-.159l.031-.092v-.01l.138-.538a.283.283,0,0,1,.01-.092.278.278,0,0,1,.031-.128l.041-.471.051.021,12.883,14.461,1.291,7.128-10.889,3.884-1.85-9.936a.143.143,0,0,1-.031-.092.573.573,0,0,0-.051-.149.482.482,0,0,0-.051-.118c-.031-.041-.041-.092-.072-.128a.39.39,0,0,0-.092-.118.427.427,0,0,0-.062-.082l-5.724-6.385.569.108a1.391,1.391,0,0,0,.282.031,1.435,1.435,0,0,0,.277-2.844l-4.8-.963L321.545,113.3a.255.255,0,0,0-.092-.01.794.794,0,0,0-.149-.021l-.138.01a.758.758,0,0,0-.3.051l-.092.021-4.822,1.742L311.9,104.4l4.064-1.46,21.507,12.432.041.021a1.949,1.949,0,0,0,.251.108.19.19,0,0,1,.072.02l.359.092h.041a1.047,1.047,0,0,0,.313.041,1.093,1.093,0,0,0,.313-.041h.031l.369-.092.082-.031.108-.031.451-.179Zm-13.282,16.859-.031-.082-.041-.082-2.08-4.212a.36.36,0,0,0-.051-.082l-.041-.082-2.49-3.7a1,1,0,0,0-.179-.231,2.067,2.067,0,0,0-.231-.19l-1.983-1.3-.02-.021-.051-.02v-.01l-.969-.548-1.491-3.772,4.381-1.583,11.812,2.48,8.015,8.947,1.87,10.028-.261.108-.041.02a.289.289,0,0,0-.118.072.52.52,0,0,0-.138.082l-.031.02-9.3,7.087-2.654,1.84-.041.041-.051.031-.241.21-.723-5.094c0-.031-.021-.041-.021-.072l-.01-.061-1.173-5.053-.031-.082-.01-.072Zm.061,10.859-6.113-15.921,1.384,2.05,1.993,4.033,1.532,4.474,1.143,4.925Zm3.751-37.152h.01l9.106,5.206.01.021-.021.22-.072.282-.169.338-.251.43-.22.22-.179.128-.082.041L317.128,100.3,315.1,99.1v-.01l.01-.108.108-.369.159-.379.19-.292.241-.272.149-.128.041-.01,2.132,1.189.01.01Zm-5.714-30.249.733.092.9.43,1.092.748.963,1.03.9,1.312.692,1.419.42,1.419.138,1.23-.118,1.009-.338.712L324.435,92l-.733.671V78.325a.8.8,0,0,1-.02-.149.662.662,0,0,0-.031-.128c-.01-.046-.031-.092-.041-.128a.337.337,0,0,0-.051-.128.514.514,0,0,0-.061-.118.38.38,0,0,0-.072-.118.6.6,0,0,0-.092-.108.977.977,0,0,0-.1-.1.719.719,0,0,0-.1-.082c-.041-.031-.082-.072-.118-.092l-.051-.031-1.722-.979ZM298.26,109.3l4.115,10.577-2.234.81c-.031.01-.051.031-.072.031a.708.708,0,0,0-.138.072.607.607,0,0,0-.118.082.256.256,0,0,0-.072.041l-5.944,4.643-.01.01h-.021l-8.747,6.774h-.01l-2.444,1.86a.964.964,0,0,0-.1.1.574.574,0,0,0-.118.108l-.379.441-23.47,13.559,5.345-10.541,4.212-5.463a.256.256,0,0,0,.072.041l.021.021,5.524,3.213a.041.041,0,0,1,.041.021c.082.031.169.072.261.108a.3.3,0,0,1,.092.021,1.533,1.533,0,0,0,.313.041h.031a1.582,1.582,0,0,0,.313-.041l.108-.031c.072-.031.138-.051.22-.092a.714.714,0,0,1,.092-.061,1.973,1.973,0,0,0,.2-.138l.082-.072.021-.02L281.1,129.4c.031-.031.041-.061.061-.082l.092-.118c.031-.036.041-.082.072-.118a.647.647,0,0,0,.062-.118.83.83,0,0,0,.041-.138.735.735,0,0,0,.041-.128.585.585,0,0,0,.01-.138.6.6,0,0,0,.021-.128.691.691,0,0,0-.021-.149.519.519,0,0,0-.01-.128.707.707,0,0,0-.041-.149l-.021-.092-2.3-6,.082-.051,4.966-3.792,9.168-7.005,1.132-.379h.021l.02-.01Zm-20.246,9.8L266.294,88.456l4.356-1.573,11.812,2.48,8,9.029,1.87,9.967-.169.061a.217.217,0,0,0-.072.031.755.755,0,0,0-.149.061,1.3,1.3,0,0,0-.128.082l-.072.051-9.357,7.138-2.6,1.881-.031.031-.031.02Zm18.125-15.45a1.2,1.2,0,0,1,.041.159.546.546,0,0,0,.031.1l1.03,2.711-2.162.779-1.86-9.931a.2.2,0,0,0-.031-.082c-.01-.051-.031-.108-.041-.149a.672.672,0,0,0-.062-.138l-.061-.108a.513.513,0,0,0-.1-.128.118.118,0,0,0-.051-.072l-5.7-6.436.492.108a3.024,3.024,0,0,0,.3.031,1.458,1.458,0,0,0,1.409-1.143,1.439,1.439,0,0,0-1.122-1.7l-4.745-1-12.673-2.665a.366.366,0,0,0-.108-.01.7.7,0,0,0-.138-.02c-.046,0-.108.01-.159.01a.44.44,0,0,0-.118.01.92.92,0,0,0-.179.041l-.082.02-.051.021-4.735,1.722-4.115-10.669,4.125-1.471,21.466,12.452.021.01a1.486,1.486,0,0,0,.313.128h.031l.292.092a.152.152,0,0,1,.072.01l.082.021a1.934,1.934,0,0,0,.241.031l.031-.01a.479.479,0,0,0,.118-.01l.461-.041.01-.01,7.717,4.474V103.4l.01.1A.488.488,0,0,0,296.138,103.65Zm-16.424-27.1h.021v.01l8.276,4.714a1.469,1.469,0,0,0,.712,1.153l.861.5.021.01,6.513,3.654v.892l-6.9-3.992-.758-.451a1.406,1.406,0,0,0-1.363-.051l-20.677-12-2.04-1.179h-.01l.01-.051.149-.492.108-.359.169-.22.231-.241.272-.19,2.121,1.153ZM273.94,46.308l.8.108.953.379,1.05.733.979,1.05.851,1.322.723,1.409.42,1.384.149,1.322-.128.963-.318.692-5.729,7.036-.769.723V49.055a.7.7,0,0,0-.01-.149.472.472,0,0,0-.031-.128l-.031-.138a.516.516,0,0,0-.062-.118.289.289,0,0,0-.061-.118l-.072-.118-.092-.108-.092-.1a.545.545,0,0,0-.108-.082.574.574,0,0,0-.118-.092l-.041-.041-1.742-.989ZM247.534,79.981l4.125,10.628-2.244.81-.061.031a.571.571,0,0,0-.149.072c-.041.021-.072.051-.108.072l-.072.041-17.192,13.3a.475.475,0,0,1-.072.072l-.072.051-.451.461-23.5,13.621,5.375-10.566,4.182-5.452.051.021.021.01,5.565,3.264.041.021a2,2,0,0,0,.272.108.3.3,0,0,0,.092.02,1.173,1.173,0,0,0,.318.051h.01a1.214,1.214,0,0,0,.328-.051c.031,0,.061-.02.092-.02.072-.031.149-.051.231-.092l.092-.061a1.8,1.8,0,0,0,.19-.138l.092-.072.02-.02,5.657-6.016.051-.072a.622.622,0,0,0,.108-.128.671.671,0,0,1,.061-.108l.062-.128c.02-.036.031-.092.051-.128l.031-.138c0-.041.02-.092.02-.128l.01-.138-.01-.138a.271.271,0,0,0-.02-.128l-.031-.149a.489.489,0,0,1-.031-.092l-2.28-6.026L242.64,81.764Zm4.735,13.462L248.845,95.4l1.763-1.363Zm-6.882-19.1.031.159c.02.031.02.072.041.1l1.04,2.69-5.032,1.814-.072.031a.711.711,0,0,0-.138.072.61.61,0,0,0-.118.082l-.061.031-13.764,10.51L210.069,44.807l2.654-1.532,23.3,13.5.061.02a.269.269,0,0,0,.092.051l.313.138.041.021a1.78,1.78,0,0,0,.19.051l.067.01a1.08,1.08,0,0,0,.272.041,2.1,2.1,0,0,0,.251-.031l.015-.01.328-.061,7.7,4.545V74.082a.348.348,0,0,0,.01.1A.572.572,0,0,0,245.387,74.344Zm-8.081-22.368a1.436,1.436,0,0,0,.671,1.112l.82.5h.01l.01.021h.01l6.523,3.741v.871l-6.805-4.012-.041-.021-.041-.031-.81-.41a1.42,1.42,0,0,0-1.189-.031L213.657,40.487v-.128l.082-.251.169-.41.19-.282.251-.272.292-.2,2,1.2.01.02h.02ZM223.265,17.064l.789.062.881.348,1.071.81,1.01,1.05.861,1.291.641,1.4.471,1.409.149,1.261-.128.953-.359.733-5.637,7.046-.81.769V19.785l-.01-.051a.7.7,0,0,0-.01-.149l-.021-.138c-.01-.041-.031-.082-.041-.128s-.031-.092-.051-.128a.727.727,0,0,0-.072-.118.328.328,0,0,0-.072-.108,1.212,1.212,0,0,1-.082-.108,1.066,1.066,0,0,1-.108-.108.75.75,0,0,0-.092-.082.914.914,0,0,1-.128-.092l-.041-.031-1.645-.948ZM99.947,111.106l-4.463.128-15.25-8.819-1.271-2.583,1.25-7.236L84.1,88.185l8.424-3.254h.005l1.881-.682,7.3-1.389h.036a.424.424,0,0,1,.108-.031,1.425,1.425,0,0,0,.2-.082l.046-.01,8.322-4.253.01-.01h.01l6.108-3.254,2.419.169,7.241,4.156.518,2.121-4.5,9.757-8.2,12.4-2.926,2.05-1.02.651-7.215,3.295Zm11.94-.251-2.783,2.634-3.264-1.86,5.37-2.46.215.523ZM53.248,331.992l-18.924-4.033-7.651-4.346-12.842-14.5L9.471,285.365l4.412-28.855L27,226.522,46.438,200.1,69.5,181.684l11.689-5.427,10.961-2.46a1.445,1.445,0,0,0,.835.661,1.425,1.425,0,0,0,1.783-.968l.22-.743,14.43-45.11.015-.051.026-.149a.605.605,0,0,0,.02-.128.638.638,0,0,0,.005-.138l-.01-.149-.026-.118a1.037,1.037,0,0,0-.041-.159l-.01-.041-4.617-12.37,3.828,2.183a.07.07,0,0,1,.056.02.87.87,0,0,0,.225.092.428.428,0,0,1,.1.041,1.525,1.525,0,0,0,.307.031h.031a1.1,1.1,0,0,0,.318-.041.281.281,0,0,0,.092-.031,1.161,1.161,0,0,0,.241-.092l.072-.041a1.03,1.03,0,0,0,.261-.19l3.577-3.382,1.02,2.634,1.983,5.2a1.453,1.453,0,0,0,1.348.933,1.307,1.307,0,0,0,.512-.1,1.432,1.432,0,0,0,.83-1.85l-1.553-4.064,86.4-49.881.031-.02a.922.922,0,0,0,.128-.092c.036-.031.082-.051.1-.082a.676.676,0,0,0,.1-.108.927.927,0,0,0,.092-.1c.031-.041.041-.082.072-.118a.724.724,0,0,0,.072-.118,1.113,1.113,0,0,1,.051-.128c.01-.051.031-.082.041-.128a11.414,11.414,0,0,1,.041-.266.323.323,0,0,0-.01-.138v-.138l-.031-.128a.7.7,0,0,0-.041-.149l-.01-.031-7.558-19.478V28.522L211.868,20.3v-.01l3.075-1.773a.69.69,0,0,0,.169-.092l.179-.108,4.064,2.332V36.136l-1.942,1.143-1-.61-1.671-3.331-.41-.82-.02-.041a.921.921,0,0,0-.092-.128.649.649,0,0,0-.072-.108.966.966,0,0,1-.1-.1c-.041-.031-.072-.072-.118-.108A.033.033,0,0,1,213.9,32l-.63-.451a.094.094,0,0,1-.061-.041l-.062-.041-1.22-.723a1.441,1.441,0,1,0-1.46,2.485l1.163.682.3.21.241.5.963,1.911-.118.036-.451.318-.021.01-.1.092a1.171,1.171,0,0,0-.118.108h-.01l-.4.451-.051.061c-.01.031-.041.041-.051.072l-.359.492-.01.031a1.4,1.4,0,0,0-.082.138.631.631,0,0,0-.072.128l-.02.031-.22.589v.01l-.179.5-.031.092c-.01.051-.031.1-.041.149s-.01.1-.02.159v.482l-2.521.159-.338-.082-1.05-.62a1.434,1.434,0,1,0-1.45,2.475l1.22.723c.01.02.031.02.051.02a.76.76,0,0,0,.251.108l.072.031h.031l.082.02v.01a.493.493,0,0,0-.072.108c-.021.051-.051.082-.072.128a.751.751,0,0,0-.051.118.829.829,0,0,0-.041.138.655.655,0,0,0-.031.128l-.01.138a.536.536,0,0,0,0,.128.564.564,0,0,0,.01.138.249.249,0,0,0,.031.128l.031.149.02.031L225.3,92.622l2.352,6.185-4.263,4.525-4.156-2.434-.359-.9v-.01l-.62-1.512,2.024-3.936a1.439,1.439,0,1,0-2.562-1.312l-2.3,4.525-4.807,9.357v.01l-7.446,14.63-13.534,7.779,22.952-44.859.021-.041.061-.149.041-.118a.7.7,0,0,0,.021-.138c0-.041.02-.092.02-.128v-.138a.361.361,0,0,0-.02-.149.519.519,0,0,0-.021-.118c-.01-.061-.031-.1-.041-.149l-.01-.031-2.772-7.056,2.424-1.409a1.435,1.435,0,0,0,.512-1.963,1.414,1.414,0,0,0-1.952-.512L207.384,74.6l-62.533,36.06-.318.051-.015.01a.616.616,0,0,0-.123.031.674.674,0,0,0-.154.041h-.01l-1.942.758-8.768,3.392-.056.031-.133.072a.72.72,0,0,0-.113.072c-.031.031-.072.051-.108.082l-.113.108-.036.031-4.053,4.586-8.84,5.083-.031.021a1.382,1.382,0,0,0-.128.092c-.036.031-.072.051-.1.082l-.1.108a.44.44,0,0,0-.092.1l-.067.118-.082.118-.036.128a.968.968,0,0,0-.056.128l-.015.138-.021.128.005.138.005.138.041.128a.492.492,0,0,0,.041.149l.005.031L145.4,193.7l-2.1,6.488h-.4a1.071,1.071,0,0,0-.184.02.42.42,0,0,0-.113.01h-.005l-4.228.922-22.045-56.619,1.758-5.586a1.459,1.459,0,0,0-.943-1.8,1.439,1.439,0,0,0-1.809.943l-1.891,6.057-.005.01-9.367,29.634h-.005l-.635,2.039a1.445,1.445,0,0,0,.948,1.8,1.534,1.534,0,0,0,.43.061,1.441,1.441,0,0,0,1.368-1l.231-.743,4.74,1.189,7.763,4.463,9.337,8.015,5.565,12.55-2.634.6c-.036.02-.061.02-.1.041a1.483,1.483,0,0,0-.179.061l-8.389,3.9-.343-3.464-.015-.082c-.015-.041-.015-.1-.026-.138l-.051-.149a.147.147,0,0,1-.021-.072l-5.155-11.719-.015-.02a.9.9,0,0,0-.092-.149.416.416,0,0,0-.051-.092c-.031-.041-.067-.072-.092-.108a1.069,1.069,0,0,1-.108-.108l-.026-.02-.62-.548a1.4,1.4,0,0,0,.553-.789,1.42,1.42,0,0,0-.989-1.763l-3.946-1.1H111.5l-8.045-2.214a.4.4,0,0,1-.1-.021.553.553,0,0,1-.128-.021h-.154l-.087-.01-1.414.092-4.161.051h-.077c-.051.01-.1.01-.154.021l-.143.031-.072.021-9,3.044h-.005L76.272,191.4a.365.365,0,0,0-.092.041l-.133.062a.586.586,0,0,0-.128.092.223.223,0,0,0-.077.041L55.165,208.115l-.031.031c-.041.031-.072.072-.108.1a1.062,1.062,0,0,1-.1.108l-.026.041-17.413,23.71-.005.01a.754.754,0,0,0-.082.128,1.037,1.037,0,0,0-.072.128h-.005L25.464,259.385l-.015.031-.046.149a.61.61,0,0,0-.036.138l-.01.041-3.895,26.114c-.01.021,0,.051-.01.082v.149a.725.725,0,0,0,.01.149l.005.082,3.9,21.548.026.108.036.108a1.35,1.35,0,0,0,.077.179l.036.061a1.515,1.515,0,0,0,.154.22l.01.01,8.588,9.767,3.172,3.613a1.435,1.435,0,0,0,1.081.492,1.455,1.455,0,0,0,.953-.359,1.435,1.435,0,0,0,.128-2.024l-.333-.379,8.327,1.753h.031a2.251,2.251,0,0,0,.266.02h.046a.681.681,0,0,0,.2-.02,1.771,1.771,0,0,0,.21-.051H48.4l.005-.01,9.5-3.331,2.1,11.54Zm108.57-196.8-1.009.651-7.241,3.305-2.88,1.281-4.479.082-15.25-8.778-1.322-2.624L130.908,122l3.956-4.484,8.45-3.264v-.01h.01l1.8-.712.43-.072h.026l.026-.01,6.826-1.312h.036a.39.39,0,0,1,.1-.031c.072-.02.133-.051.2-.072a.041.041,0,0,1,.041-.02l8.332-4.212.015-.01.02-.01,6.1-3.285,2.419.179,7.246,4.181.528,2.132-4.525,9.747-8.209,12.4Zm.758,4.935-2.757,2.665-3.259-1.85,5.381-2.455.2.5Zm-35.845-10.6a.429.429,0,0,0,.026.149c0,.041.026.072.031.108.02.051.036.108.061.159l.01.021,1.717,3.413.015.021.01.02a1.733,1.733,0,0,0,.195.282.3.3,0,0,1,.067.072c.067.061.149.128.231.19l.056.031.01.01,15.973,9.188c.01.021.031.021.051.021a.816.816,0,0,0,.246.108c.026,0,.051.02.087.02a1.08,1.08,0,0,0,.318.041l.01.01h.036l5.124-.1h.031l.113-.01c.056-.01.108-.01.164-.02a1.253,1.253,0,0,0,.287-.092l.553-.251,5.119,13.59L146.8,189.355l-24.228-62.481,5.083-2.921-.917,5.124v.031a.593.593,0,0,0-.015.159,1.116,1.116,0,0,0-.005.128A.41.41,0,0,0,126.732,129.533Zm39.883,5.811.077-.072.1-.082a1.54,1.54,0,0,0,.164-.2l.041-.041,8.419-12.708h.005a1.793,1.793,0,0,1,.108-.19l4.786-10.31.021-.061.051-.138a.428.428,0,0,1,.031-.128l.02-.138a.675.675,0,0,0,.01-.138.6.6,0,0,0-.01-.138c-.01-.046-.01-.1-.02-.138l-.01-.072-.81-3.213v-.01a1.771,1.771,0,0,1-.082-.21c-.01-.02-.01-.041-.031-.051a1.44,1.44,0,0,0-.461-.548l-.092-.061-.01-.01-8.056-4.653-.031-.01a.986.986,0,0,0-.149-.072.706.706,0,0,0-.113-.051l-.128-.031-.154-.031h-.041l-3.162-.231H167a1.374,1.374,0,0,0-.2.01l-.062.01a2.229,2.229,0,0,0-.22.051l-.067.031a.794.794,0,0,0-.149.072l-4.1,2.2,45.187-26.063,2.352,6.047-24.669,48.22-17.361,10-1.291-3.321-.036-.061a1.174,1.174,0,0,0-.072-.138l-.067-.108a.934.934,0,0,1-.092-.108l-.1-.1-.108-.092a.784.784,0,0,1-.118-.092l-.056-.031-1.153-.661-.225-.569Zm-36.757,51.874-9.178-7.876-.01-.01-.01-.01a.737.737,0,0,0-.1-.061,1.085,1.085,0,0,0-.123-.1l-8.045-4.612-.051-.02a.775.775,0,0,0-.133-.061.886.886,0,0,0-.133-.051l-.046-.02-4.771-1.2,7.681-24.31ZM57.322,314.887v.092l.041.189-9.536,3.341-11.673-2.455-8.02-9.106-3.777-20.907,3.823-25.688L39.9,233.671l17.2-23.429,20.333-16.2,8.742-2.972-21.661,67.3v.01l-.01.01-.02.092c-.015.072-.031.128-.036.179a.7.7,0,0,0-.01.138v.138c.005.051.02.1.031.159a.442.442,0,0,0,.02.108.717.717,0,0,0,.051.138l.046.128.077.108.077.118a1.065,1.065,0,0,0,.108.108l.087.092c.046.041.1.072.149.108a.336.336,0,0,0,.077.051l.015.01,5.509,3.213.026.01a1.118,1.118,0,0,0,.318.128l.041.01a1.73,1.73,0,0,0,.236.041L61.9,284.75l-.02.041a.944.944,0,0,1-.046.128c-.01.061-.026.1-.036.149l-.01.041-4.479,29.363v.092l-.01.159A.844.844,0,0,0,57.322,314.887ZM67.6,258.16l21.963-68.246,8.1-2.731,1.993-.021L82.3,241.967l-1.517,4.807-5.463,7.456-.01.01a.656.656,0,0,0-.077.128.63.63,0,0,0-.072.128l-.01.02-2.229,5.263-1.43.651Zm35.092-71.09.236-.01,7.5,2.06,3.956,3.474,4.93,11.217.425,4.243-.892.42-.015.01a.957.957,0,0,0-.128.072c-.036.031-.092.051-.123.082l-.015.021L95.212,227.2l-.031.031c-.036.031-.072.072-.108.108a.515.515,0,0,0-.1.108l-.031.031-8.922,12.273-.02.01Zm1.281,174.157-18.94-3.951-7.646-4.335-12.842-14.5-1.507-8.2L60.423,315.85l-.005-.01v-.01l-.225-1.163L64.6,285.749l10.741-24.31.005-.01.005-.021,2.378-5.627,5.514-7.517.005-.01,4.868-6.5.005-.01.005-.01,9.029-12.421,23.065-18.325,1.655-.779,10.08-4.684,3.792-.871,2.029-.451,5.15-1.122a1.439,1.439,0,0,0,.881.661,1.377,1.377,0,0,0,.359.041,1.449,1.449,0,0,0,1.389-1.081l.174-.671,2.552-7.927.005-.01L160.148,156.9l.005-.051a.849.849,0,0,0,.031-.149.58.58,0,0,0,.015-.128.418.418,0,0,0,0-.138V156.3c-.005-.051-.021-.082-.026-.128l-.041-.149-.015-.051-4.648-12.339,3.864,2.193.051.021a2.232,2.232,0,0,0,.236.092.464.464,0,0,0,.108.041,2.644,2.644,0,0,0,.3.031h.031a3.176,3.176,0,0,0,.318-.031c.041-.021.067-.021.1-.041a.985.985,0,0,0,.231-.092c.026-.021.061-.021.087-.041a1.379,1.379,0,0,0,.256-.2l.015-.01h.005l3.546-3.444,1.025,2.624v.01l1.983,5.273a1.442,1.442,0,0,0,1.343.933,1.5,1.5,0,0,0,.512-.092,1.435,1.435,0,0,0,.835-1.85l-1.563-4.156,18.125-10.428.031-.01,18.074-10.4.021-.021L232.857,107.9l22.3-12.8.031-.021a.8.8,0,0,0,.128-.1.369.369,0,0,0,.1-.072c.041-.041.061-.082.1-.108a.837.837,0,0,1,.092-.1.557.557,0,0,1,.072-.118.516.516,0,0,0,.061-.118.33.33,0,0,0,.051-.118.384.384,0,0,0,.041-.138.312.312,0,0,0,.031-.128c0-.051.021-.092.021-.138v-.128c-.01-.051-.01-.1-.021-.138a.447.447,0,0,0-.021-.128.72.72,0,0,0-.041-.159l-.01-.021-.9-2.4v-.01h-.01l-5.165-13.313-1.471-3.813v-16l14.333-8.266h.02v-.01l2.921-1.712a1.384,1.384,0,0,0,.451-.261l4.1,2.373V65.427l-1.932,1.1-1.061-.579-1.609-3.341-.01-.01-.02-.031-.4-.769-.01-.021a.483.483,0,0,0-.092-.128.624.624,0,0,0-.072-.1c-.031-.041-.062-.061-.082-.092a.621.621,0,0,0-.128-.108l-.01-.021-.6-.451-.072-.062a.268.268,0,0,1-.092-.051l-1.261-.733a1.44,1.44,0,0,0-1.43,2.5l1.189.682.261.2.251.471.933,1.932-.01.01a.117.117,0,0,0-.062.031l-.461.318a.665.665,0,0,1-.092.082.564.564,0,0,1-.092.072l-.41.42a.606.606,0,0,1-.082.082c-.01.031-.051.051-.061.082l-.369.512-.031.061-.082.138-.062.128-.031.072-.179.579-.01.021v.01l-.179.589-.01.072a.265.265,0,0,0-.031.082l-.092.5v.041l-.01.061-2.48.159-.369-.062-.979-.62a1.44,1.44,0,0,0-1.522,2.444l1.209.748v.01l.01.01a2.2,2.2,0,0,0,.22.108l.061.021a1.566,1.566,0,0,0,.21.051l.02.01-.061.1a.629.629,0,0,0-.072.128c-.031.031-.031.072-.051.1l-.062.149v.072a1.418,1.418,0,0,0-.031.359V73.7l.02.061a1.571,1.571,0,0,0,.051.21v.01l.272.769v.01l.021.021v.01L263.1,88.144l12.939,33.841,2.342,6.134-4.253,4.525L270,130.24l-.4-.922-.641-1.542,2-3.982a1.432,1.432,0,1,0-2.552-1.3l-2.311,4.576-4.745,9.419-.021-.01-.01.01-7.394,14.574-13.559,7.794,1.63-3.213,5.8-11.32,15.552-30.357.02-.051.061-.138a.458.458,0,0,1,.041-.118c.01-.051.01-.1.02-.138l.01-.138v-.128a.7.7,0,0,0-.01-.149c0-.041-.02-.082-.02-.118a1.237,1.237,0,0,0-.051-.149l-.01-.051-2.793-7.077,2.393-1.373a1.439,1.439,0,1,0-1.435-2.5l-3.464,1.993H258.1l-22.337,12.939-9.69,5.565L211.443,130.8l-15.875,9.178-.313.051h-.01l-.082.031a.639.639,0,0,0-.2.051l-1.952.733-8.778,3.336-.041.031a.706.706,0,0,0-.138.072.328.328,0,0,0-.108.072.351.351,0,0,0-.108.082.417.417,0,0,0-.108.1l-.051.041-4.059,4.576-4.176,2.424-4.653,2.665-.041.031a.408.408,0,0,0-.123.092l-.1.072-.1.108-.092.108a.366.366,0,0,0-.062.118,1.159,1.159,0,0,1-.082.108l-.041.128c-.026.051-.036.092-.051.128l-.02.138-.01.138a.537.537,0,0,0,0,.128l.005.149.031.128a.73.73,0,0,0,.046.138l.015.051,1.445,3.623,5.468,14.23,3.2,8.286,15.839,40.836-2.06,6.523H193.6a.9.9,0,0,0-.159.02.52.52,0,0,0-.128.01l-4.243.922-.42-1.04-16.321-41.974L167.04,173.8l1.758-5.575a1.442,1.442,0,0,0-2.752-.861l-1.9,6.057-9.408,29.634-.01.021v.02l-.594,2.029a1.449,1.449,0,0,0,.979,1.783,1.38,1.38,0,0,0,.4.061,1.443,1.443,0,0,0,1.384-1.04l.205-.7,4.8,1.24h.015l.026.01,7.63,4.433L179,218.9l5.591,12.56-2.7.62v.01l-.128.041c-.051.02-.1.031-.144.051l-8.368,3.874-.374-3.444-.01-.072c-.01-.041-.015-.1-.031-.149l-.051-.138-.026-.062L167.65,220.47l-.01-.021a.547.547,0,0,0-.082-.138.429.429,0,0,0-.067-.108.729.729,0,0,0-.077-.092l-.113-.128-.021-.021-.671-.589a1.434,1.434,0,0,0-.436-2.562l-3.946-1.081-5.017-1.363H157.2l-3.018-.81-.015-.01-.225-.031a.367.367,0,0,0-.108-.01h-.072l-1.435.041-4.192.051h-.077a.906.906,0,0,1-.154.021.528.528,0,0,0-.144.041l-.077.01-8.937,3.075-2.086.682-.005.01h-.005l-9.639,3.254a.919.919,0,0,1-.1.041l-.128.062a.923.923,0,0,0-.128.092l-.087.051L105.9,237.4l-.036.031-.1.1c-.036.041-.077.082-.1.118l-.031.021-7.692,10.459h-.005l-9.69,13.313a.492.492,0,0,1-.062.1.956.956,0,0,0-.087.159L76.185,288.681l-.01.041c-.015.051-.036.092-.046.138a1.375,1.375,0,0,0-.036.138l-.01.041-2.849,18.683v.01L72.142,315.2l-.005.082-.005.149.01.149.005.082L74,325.889l2.08,11.309c.005.041.026.072.031.108l.031.108a1.291,1.291,0,0,0,.082.169l.031.082c.051.072.1.149.159.22h.005l8.6,9.736,3.157,3.613a1.455,1.455,0,0,0,1.081.492,1.41,1.41,0,0,0,.943-.359,1.426,1.426,0,0,0,.138-2.024l-.323-.379,8.317,1.783h.031a1.181,1.181,0,0,0,.266.031h.005l.113-.01a.24.24,0,0,0,.123-.021.977.977,0,0,0,.241-.061l9.531-3.4,2.065,11.55Zm109.354-191.82-2.813,2.67-3.193-1.881,5.355-2.444.179.512h.02v.02Zm-.753-4.986-1.061.7-7.215,3.305-2.9,1.291-3.864.118h-.589l-12.452-7.195-.272-.179-.061-.041c-.021-.01-.031-.031-.061-.041l-2.393-1.373-1.348-2.583,1.348-7.287,3.884-4.392,8.435-3.223,1.814-.671.441-.072h.031l.02-.01,6.836-1.312.031-.01.1-.031a.747.747,0,0,0,.21-.082l.041-.01,6.877-3.526v-.01l1.44-.723.01-.01h.021l6.144-3.285,2.414.2,7.215,4.115.538,2.214-4.576,9.716-8.117,12.391Zm-17.987,21.85c.01.02,0,.041.02.061l3.936,21.61v.01c.01.082.041.149.051.21l.021.051a1.622,1.622,0,0,0,.108.231l.051.061c.041.061.082.108.118.159l.02.031.84.881.441.512-2.68,8.527-14.42-37.162,1.773-15.265,10.982,6.334.051.021.082.041-1.389,13.344v.2Zm2.864-.261,1.4-13.344,2.865-.092h.051c.041,0,.082-.02.108-.02.041-.01.1-.01.149-.021a.665.665,0,0,0,.2-.072l.072-.01.01-.01.01-.01.538-.241,5.083,13.59L201.86,204.8l-.789,1.04ZM178.6,169.836l-4.089-10.648,2.726-5.345,1.173-.682-.953,5.232-.01.041-.01.159v.128l.01.138a.6.6,0,0,1,.026.138l.046.118a.7.7,0,0,0,.061.138l.015.041,1.768,3.4.02.021a1.423,1.423,0,0,0,.169.261l.082.072a1.086,1.086,0,0,0,.231.19l.041.031.01.01,1.573.9Zm2.865.712-.6,5.155-.871-2.27Zm35.906-5.919.092-.082a.563.563,0,0,0,.092-.072,1.558,1.558,0,0,0,.2-.241l.01-.01v-.005h.01l8.307-12.7h.01l.01-.021a1.265,1.265,0,0,0,.092-.159l4.832-10.269.021-.051c.02-.061.041-.108.051-.149a.352.352,0,0,0,.031-.128,1.007,1.007,0,0,0,.031-.138v-.266a.733.733,0,0,0-.031-.159v-.061l-.81-3.305-.01-.01c-.01-.061-.041-.108-.051-.169-.02-.031-.031-.072-.051-.1a.557.557,0,0,0-.072-.118.61.61,0,0,0-.082-.118.193.193,0,0,0-.062-.072,1.511,1.511,0,0,0-.118-.128l-.061-.051c-.061-.041-.118-.082-.179-.118v-.01l-8.025-4.566-.01-.01a.887.887,0,0,0-.159-.072c-.031-.021-.072-.031-.108-.051a.444.444,0,0,1-.118-.031c-.062,0-.108-.021-.159-.021l-.02-.01-3.141-.272h-.3l-.128.031-.138.031a1.514,1.514,0,0,0-.19.082l-.062.021-.01.01-.02.01-3.792,2.029.01-.01,12.821-7.425,8.927,22.26a.415.415,0,0,0,.051.092l.01.041,3.8,7.246.031.041.031.041-3.085,6.093L218.473,171.5l-1.332-3.382-.031-.051a.632.632,0,0,0-.072-.128.559.559,0,0,0-.072-.118.6.6,0,0,0-.092-.108.518.518,0,0,0-.092-.092,1.188,1.188,0,0,0-.108-.092c-.041-.041-.082-.061-.118-.092l-.051-.041-1.143-.641-.22-.589Zm20.267-17.853-9.06-22.568,7.154-4.115,9.208,23.5-4.433,8.655Zm.61-28.133L258.1,107.155l2.4,6.078-13.81,26.954Zm-67.432,72.833,9.706,24.951-9.162-7.769-.031-.021a.344.344,0,0,0-.1-.072l-.108-.082-6.938-4.033ZM161.506,203.4l-3.572-.922,7.728-24.3,3.766,9.716ZM108.048,344.213l.015.092v.031l.026.082-9.542,3.413-11.673-2.48-8.02-9.075-1.788-9.716.036-.02a1.081,1.081,0,0,0,.174-.082l.092-.061.082-.051L98.358,310.1h.005l.036-.041a1.071,1.071,0,0,0,.184-.19l.021-.01,16.746-21.076a.831.831,0,0,0,.051.092.649.649,0,0,0,.077.108,1.061,1.061,0,0,0,.108.108.924.924,0,0,0,.092.1c.051.041.108.072.154.108a.29.29,0,0,1,.067.051l.026.01,5.509,3.192.01.01a1.28,1.28,0,0,0,.323.138h.036a.875.875,0,0,0,.236.041l-9.393,21.348-.015.031a1.09,1.09,0,0,0-.046.138l-.041.149-.01.031-4.479,29.327-.005.108a.823.823,0,0,0-.005.159A.424.424,0,0,0,108.048,344.213ZM87.93,299.554l.005-.01.061-.051a1.288,1.288,0,0,0,.164-.169l.02-.01,16.111-20.139a1.255,1.255,0,0,0,.143-.22l.01-.01v-.02l12.114-23.29.015-.031a.725.725,0,0,0,.072-.179l.036-.072v-.01l3.987-14.912,8.358-3.936A1.434,1.434,0,0,0,127.8,233.9l-8.947,4.2h-.005l-15.25,7.154,4.233-5.755,20.328-16.193,7.64-2.583v3.023l-17.223,53.386-4.094,8.1L96.452,307.923l-19.965,15.5-1.46-8.076L76,308.691Zm-11.309,5.058L78.9,289.639l11.76-26.652,9.378-12.883,17.233-8.076-3.321,12.432L101.956,277.5,86.05,297.387Zm41.7-17.177,2.952-9.3,17.341-53.714,1.717-5.186,8.061-2.783,2-.02-2.747,8.747-14.615,46.058v.021l-1.471,4.822-5.468,7.456-.015.01c-.026.031-.041.082-.067.108a1.319,1.319,0,0,0-.077.149l-2.275,5.206-1.45.682Zm31.863-60.8,3.059-1.43.067-.051.1-.062a1.8,1.8,0,0,0,.22-.169l.056-.051a1.451,1.451,0,0,0,.195-.292l.02-.031,3.679-7.118,3.587.969,3.982,3.505,4.9,11.217.451,4.181-.866.389-.026.021a.355.355,0,0,0-.128.072c-.036.031-.082.051-.118.082l-.02.01-23.362,18.637-.031.031a1.076,1.076,0,0,0-.108.108l-.1.1-.026.041-8.957,12.232-.021.01Zm1.179-3.725,2.055-6.523.22-.01,1.1.3-3.167,6.134Zm89.569,68.672-1.353-.779.021-.01,1.343.758Zm-2.168-25.6.241-.471,2.88,7.348-2.25,1.051Zm7.415,18.555-.01.01-2.8,1.353h-.01l-3.715,1.732.523-4.335v-.082l.01-.092v-4.515l-.01-.092v-.092l-.19-1.512,4.356-2.04a.224.224,0,0,1,.082-.051.782.782,0,0,0,.118-.082.659.659,0,0,0,.108-.082.7.7,0,0,0,.108-.1l.092-.108c.021-.031.061-.072.082-.108a.561.561,0,0,0,.072-.118c.02-.041.031-.082.051-.118.021-.051.041-.092.051-.128l.031-.138c.01-.041.01-.092.021-.128v-.138a.627.627,0,0,0-.01-.138.251.251,0,0,0-.02-.128l-.031-.149a.484.484,0,0,1-.031-.092l-4.525-11.54-1.091-2.752-6.277-16.193v-.01L226.309,225.1l-.84-2.26-.02-.01v-.02l-.953-2.362-1.43-3.725h-.01l-5.283-13.6,1.783-5.627a1.441,1.441,0,1,0-2.747-.871l-1.942,6.1-9.357,29.634v.01l-.01.01-.63,2.029a1.425,1.425,0,0,0,.953,1.794,1.209,1.209,0,0,0,.42.072,1.443,1.443,0,0,0,1.373-1.009l.231-.743,4.566,1.112,7.886,4.545,7.1,6.026,2.332,2,5.662,12.673.1.9.369,4.053v.031l1.122,10.356h.01v.021l.3,2.444v4.356l-.789,6.744-.19,1.343v.051l-6.938,26.442-13.441,26.211L197.9,366.571l-20.585,15.911-22.573,8.066-18.96-3.946-7.61-4.422-12.888-14.461-1.507-8.2-2.583-14.43-.01-.031-.005-.041-.251-1.092,4.4-28.855,10.741-24.4h.005l2.424-5.555,5.514-7.528h.01v-.01l4.827-6.534v-.01l9.075-12.381,23.06-18.407,1.64-.748h.015l10.039-4.643,3.782-.871h.01l2.029-.451,5.145-1.122a1.448,1.448,0,0,0,.8.641,1.559,1.559,0,0,0,.43.062,1.433,1.433,0,0,0,1.373-1l.231-.722v-.01l2.531-8,4.161-13.211,1.353-4.243,6.3-19.729.01-.051a.855.855,0,0,0,.031-.149.606.606,0,0,0,.02-.128v-.149a.652.652,0,0,0-.01-.138.435.435,0,0,0-.02-.118.394.394,0,0,0-.051-.149v-.062L206.18,172.86l3.813,2.244c.01.01.041.01.051.031a1.05,1.05,0,0,0,.251.092.253.253,0,0,0,.092.041c.108.02.22.031.328.041a1.91,1.91,0,0,0,.338-.041.193.193,0,0,1,.082-.021,1.569,1.569,0,0,0,.231-.1l.082-.041a1.619,1.619,0,0,0,.272-.19v-.036h.01l3.623-3.433,1.05,2.665,1.983,5.227a1.422,1.422,0,0,0,1.343.933,1.526,1.526,0,0,0,.512-.092,1.432,1.432,0,0,0,.83-1.85l-1.553-4.115,18.125-10.459,18.1-10.418.021-.01,27.856-16.106v-.01h.01l3.664-2.163,3-1.752,3.526-1.942.021-.01h.01l12.032-7.015.031-.02a.936.936,0,0,0,.128-.1.713.713,0,0,0,.1-.082.966.966,0,0,0,.1-.1l.082-.108a.659.659,0,0,1,.082-.108,1.014,1.014,0,0,1,.061-.128c.02-.036.031-.092.051-.128a.813.813,0,0,0,.041-.118.412.412,0,0,0,.021-.149.6.6,0,0,0,.021-.128v-.138l-.021-.138a.521.521,0,0,0-.031-.128c-.01-.051-.031-.1-.041-.149l-.01-.031-.451-1.122-.441-1.2-.01-.01v-.01l-5.155-13.241-1.44-3.833V87.083l14.3-8.255v-.01l3.075-1.783.072-.041.22-.128,4.161,2.373v15.47L318.88,95.84l-1.071-.61L316.2,91.925v-.01h-.01l-.4-.82c-.041-.072-.092-.138-.138-.21l-.021-.031c-.01-.021-.031-.031-.051-.051a1.477,1.477,0,0,0-.149-.159h-.01l-.579-.492c-.051-.041-.1-.072-.149-.108l-.1-.061L313.32,89.3a1.431,1.431,0,1,0-1.353,2.521l1.132.61.251.21.282.548.912,1.87-.041.02a.357.357,0,0,1-.082.051l-.451.369a.242.242,0,0,0-.092.082l-.092.082-.4.451a.559.559,0,0,0-.072.092,1.2,1.2,0,0,0-.082.108l-.318.5c-.021.031-.031.072-.051.1l-.062.108-.241.523-.02.082-.021.051-.19.579a1.533,1.533,0,0,0-.041.21l-.01.082-.061.492-2.47.2-.348-.092-1.091-.62a1.432,1.432,0,1,0-1.425,2.485l1.261.733.041.021a1.473,1.473,0,0,0,.261.108l.061.021c-.031.041-.051.082-.082.118l-.061.118c-.02.036-.031.092-.051.128a.656.656,0,0,0-.031.128.757.757,0,0,0-.031.138.559.559,0,0,0-.01.128v.149a.515.515,0,0,0,.021.128c0,.051.02.1.02.138a.924.924,0,0,1,.051.138l.031.072.348.789,5.032,13.323h.01v.021l.01.01v.01l2.2,5.606.128.348.01.01v.01L326.8,151.24l2.3,6.154-4.217,4.515-4.151-2.4-.4-.963-.01-.01v-.02l-.461-.989-.179-.451,2.039-4.012a1.435,1.435,0,1,0-2.552-1.312l-2.352,4.612-.021.041-.02.051-.021.021-.231.559-3.413,6.626-.021.051v.01l-.989,2.024-27.451,53.7v.01l-.01.01-1.9,3.782-2.383,4.6v.01l-.01.01-3.254,6.416v.01L253.053,281.43l-6.856,3.1ZM231.32,245.81l-.533-.471.282-.169Zm-12.949-10.136a.564.564,0,0,1,.092-.072l.369-.369.118-.128c0-.02.021-.031.041-.051l.328-.461,3.064-3.715,2.121-2.511,5.524,14.092-1.563.9-6.416-5.437a.588.588,0,0,0-.1-.082.4.4,0,0,1-.1-.082l-3.551-2.04Zm-6.144-3.034-3.526-.861,7.676-24.279,3.772,9.67Zm9.2-11.673.1-.21.02.041Zm58.29,19.2-.021.021-.01.02-3.075,3.884-.01.021-.021.01-2.214,2.993h-.02v.01l-.723.989v.021l-.02.01-1.332,1.911,7.277-14.282,2.824-3.044.169-.159-.579,4.935Zm1.65,2.537-.1.9-1.163,1.23-.579.2Zm-35.081,48.948,1.092-3.213.559-1.542,6.764-3.054a.412.412,0,0,0,.092-.051.719.719,0,0,0,.092-.061,1.615,1.615,0,0,0,.251-.19l.031-.031a1.034,1.034,0,0,0,.2-.3l.031-.02L265,264.324l.128.282.01.021.031.041a.949.949,0,0,0,.128.19l.01.031.231.272c.01.021.041.031.051.051a1.019,1.019,0,0,0,.149.149.894.894,0,0,0,.1.072c.051.031.092.061.149.092a.74.74,0,0,0,.118.051l.072.041.282.092a.371.371,0,0,0,.108.031l.1.031a2.051,2.051,0,0,0,.251.01h.169l.4-.051.061-.01a.616.616,0,0,0,.138-.041.894.894,0,0,0,.159-.041l.051-.02.389-.169.01-.01h.01l.01-.01a1.293,1.293,0,0,0,.149-.082l.451-.272a.711.711,0,0,0,.092-.062c.031-.031.072-.051.1-.082a1.547,1.547,0,0,0,.159-.159l.051-.051.3-.389.348-.441,3.075-3.792,3.131-3.623,3.244-3.561,2.824-3.064,3.392,18.755v.02a.792.792,0,0,0,.072.22l.01.031Zm42.706-23.326-.021-.021-.02-.02-.559-.579-3.813-21.117-.01-.01-.461-2.49v-.01l.671-5.806,1.081-9.27v-.031l.318-3.295.313-2.5v-.133l.01-.051v-.21l.748-2.122,27.364-53.514.912-1.25,3.244-4.212a.222.222,0,0,0,.082.051l.021.02,5.565,3.213.051.02a1.469,1.469,0,0,0,.261.108.65.65,0,0,0,.092.021,1.534,1.534,0,0,0,.313.041h.021a1.744,1.744,0,0,0,.318-.041l.092-.031a1.548,1.548,0,0,0,.231-.092l.1-.062a1.055,1.055,0,0,0,.19-.149l.082-.062.02-.02,5.616-5.975.051-.072c.041-.041.072-.082.1-.118a1.373,1.373,0,0,1,.072-.118l.062-.128c.021-.036.031-.092.051-.128a.6.6,0,0,1,.031-.138l.02-.128a.626.626,0,0,0,.01-.138v-.128l-.031-.138a.57.57,0,0,0-.041-.149l-.021-.092-2.26-6.057,5.042-3.833,9.157-6.984,1.173-.461,13.59-4.832,7.938-2.89,18.965,3.894,7.569,4.433,12.883,14.451,4.192,23.2-2.414.338c-.041,0-.082.021-.108.021l-.108.031-2.813.861a.326.326,0,0,0-.092.031l-.092.031-2.88,1.322-.051.02c-.021.01-.041.01-.061.031l-2.931,1.619-.061.041-.072.031-.769.538.748-5.022v-.072a.937.937,0,0,0,.01-.169l-.01-.138a.284.284,0,0,0-.01-.092l-.953-5.242-.01-.01v-.01l-.261-1.363-2.721-14.912a.242.242,0,0,1-.021-.082.721.721,0,0,0-.051-.159l-.051-.128a.56.56,0,0,0-.072-.118.941.941,0,0,0-.092-.128.426.426,0,0,1-.062-.082l-5.734-6.426.538.108a1.389,1.389,0,0,0,.282.031,1.449,1.449,0,0,0,1.409-1.163,1.433,1.433,0,0,0-1.132-1.681L385,145.265l-12.673-2.67h-.092a.85.85,0,0,0-.169-.02h-.118a.749.749,0,0,0-.159.02.357.357,0,0,0-.138.031.365.365,0,0,1-.1.02l-11.12,3.982h-.01l-9.5,3.392-.072.031a.632.632,0,0,0-.128.072.952.952,0,0,0-.128.072l-.061.041-6.026,4.622-6.334,4.883-2.444,1.9h-.01l-.01.01-2.383,1.85-.072.061a.348.348,0,0,0-.061.061l-.723.723-.02.01-4.807,4.986-.041.062-.051.061-3.4,4.381h-.01l-10.218,13.262-.072.1c-.01.031-.041.072-.051.1l-7.184,13.38v.01h-.02l-2.562,4.822v.01l-.01.01a.472.472,0,0,0-.051.128l-.061.118v.021h-.01l-.738,2.424-.01.031-3.936,12.8-1.122,3.654-.01.01a.3.3,0,0,1-.021.1,1.129,1.129,0,0,1-.041.179v.01l-.4,3.961-.318,2.993v.031l-1.261,12.509v.062a.622.622,0,0,0,0,.138.652.652,0,0,0,.01.149v.051l3.172,17.243v.01l.81,4.335a.326.326,0,0,0,.031.092.2.2,0,0,0,.031.108.746.746,0,0,0,.072.159.363.363,0,0,0,.041.092,1.957,1.957,0,0,0,.138.2l.01.021h.01l.81.953v.01l.02.01v.01l1.491,1.63,4.5,5,1.773,2.039v.01l.02.01,2.864,3.182-1.3,1.87-.02.031-.021.031-2.542,4.084-6.636-3.823-3.505-3.936-1.542-1.763v-.01h-.01Zm103.041-85.167c-.02,0-.031.021-.051.031l-.062.021-3.531,1.814-.072.041-.062.041-2.731,1.794-.661.389-.051.041-.072.041-1.891,1.4h-.01l-.01.01-1.389,1.015a.1.1,0,0,1-.041.051l-.051.041-2.665,2.352-.02.021-.061.062a.354.354,0,0,0-.082.092l-.061.072-.021.02-.031.041-.559.6-1.532,1.63c-.031.031-.051.072-.082.108a.743.743,0,0,0-.082.092l-.02.031-1.343,2.05c-.021.031-.021.051-.041.072a.589.589,0,0,1-.061.128,1.436,1.436,0,0,1-.061.149l-.02.072-.451,1.712-.021.1a.8.8,0,0,0-.02.149v.287a.52.52,0,0,1,.02.118.924.924,0,0,1,.041.149c.01.041.041.092.051.138.031.02.031.062.051.092l.2.369.138.5.041.092a.367.367,0,0,0,.041.092.692.692,0,0,0,.092.169l.021.051a1.085,1.085,0,0,0,.169.2l.041.031a1,1,0,0,0,.159.138l.072.041a.863.863,0,0,0,.169.082c.01.021.021.021.041.031l1.353.538v.01h.01l.051.01a.712.712,0,0,0,.21.062,1.228,1.228,0,0,0,.272.031h.072l.733-.031L376.7,204.39l-.01.02-.021.031-2.4,3.162-.01.01v.021l-2.4,3.305-2.49,3.485-2.552,3.495-2.634,3.444-2.562,3.331-2.665,3.295-2.69,3.285-2.742,3.182-2.742,3.152-1.881,2.024-1.819,1.911-.092-.892-.01-.072-.031-.138-.041-.138-.021-.062-.328-.779a.217.217,0,0,1-.031-.072.364.364,0,0,1-.041-.092l-.359-.63a.515.515,0,0,0-.072-.082,1.305,1.305,0,0,0-.082-.128,1.064,1.064,0,0,0-.108-.108.476.476,0,0,1-.072-.072l-.538-.441c-.02-.031-.051-.041-.082-.072a.458.458,0,0,1-.128-.082,1.136,1.136,0,0,1-.138-.072,1.078,1.078,0,0,0-.1-.041l-.63-.22-.051-.021-.138-.031a1.292,1.292,0,0,0-.149-.031h-.051l-.758-.051h-.256l-.769.092-.051.02a.6.6,0,0,0-.138.031.549.549,0,0,0-.138.041l-.062.021-.851.348-.092.051-.092.041-.851.5-.072.051a.576.576,0,0,0-.082.051l-3.485,2.67-.01.01-.02.01-3.485,2.813-.02.021-.021.01-3.444,2.982-.021.031-.031.02-3.392,3.254-.01.02-.031.02-3.254,3.351-.021.021-.02.02-3.213,3.572-.021.01-.01.02-3.172,3.751-.02.02-.01.02L312.782,265l-.01.031-.021.01-2.941,3.982-.021.031-.01.021-1.681,2.47-2.491-2.772,3.444-4.412,4.622-5.565,4.884-5.1,5.017-4.832,5.124-4.443.051-.062.051-.041,9.639-9.987.01-.031.031-.02,1.8-2.04,2.762-3.11.01-.01v-.01l2.772-3.213v-.02l.01-.01,2.721-3.3v-.01l2.67-3.305v-.01l.02-.01,2.665-3.392v-.02h.021l2.583-3.444.01-.01v-.01l2.542-3.485,2.562-3.474.01-.01v-.021L364,202.079l2.414-3.182,2.46-3.075,2.593-2.962h.01l2.552-2.911,2.634-2.721,2.7-2.711,2.7-2.562,2.824-2.3,2.752-1.963,2.854-1.64,2.7-1.163,1.932-.569.641,3.551-.6,4Zm2.608,2.034-.051.318-1.793,1.563-.01.02-.021.01-2.07,1.9-1.681-.969.748-.492,3.4-1.753Zm-10.116,6.856-.031.041a.6.6,0,0,0-.092.108l-.041.041-.359.5-.041.041a1.224,1.224,0,0,0-.072.138c-.02.041-.051.082-.072.128l-.02.051-.231.641-.021.092-.031.082-1.44-.84,1.122-.989.6-.451Zm-4.253,5.734-.318.118-.251.072.092-.461Zm-63.475,70.542-.02.021-.01.01-3.254,3.526-.01.021h-.01l-2.444,2.731-.241-.051-.733-.83,2.07-3.034,2.921-3.961,3.044-3.854,3.141-3.715,3.172-3.531,3.233-3.321L331,249.12l3.382-2.931,3.444-2.783,3.4-2.613.7-.4.589-.251.43-.051.441.031.21.072.138.118.19.328.2.492.062.579-.031.861-.1.538-.021.031-.292.292-.021.02-.02.031-.318.359-.021.02-.021.01-.231.282-.313.318-.041.041-.031.031-.2.241-.241.19-.041.041a.072.072,0,0,1-.051.041l-.256.282-.282.22-.031.021-.041.02-.318.282a.507.507,0,0,0-.072.082l-.092.082-.159.19-.251.179-.01.02h-.01l-3.485,2.772-.02.02-.021.01-3.444,2.941h-.02l-3.464,3.034-.021.01-.01.01-3.392,3.085-.02.01-.021.02L323.42,261.6l-.01.01v.01l-3.31,3.295-.01.02Zm3.1.938-.492.579-.031.021-.01.031-4.263,5.545-.769-.159,1.312-1.46,3.233-3.505Zm-18.217-9.618-2.762-15.035,1.189-11.75,2.7-2.28,3.495-2.854.01-.02.021-.021.3-.261.313-.261.3-.261.328-.251.031-.02.041-.031.359-.313a.832.832,0,0,0,.092-.1c.021-.031.051-.041.061-.072l.19-.21.22-.2a.131.131,0,0,0,.062-.041l.041-.041.348-.359c.041-.031.061-.072.092-.092a.345.345,0,0,1,.061-.062l.2-.282.251-.251v-.01h.01l.313-.318a1.534,1.534,0,0,0,.128-.149l.041-.051.272-.4.01-.021.041-.072.01-.01.031-.062.02-.041c0-.02.021-.041.031-.061l.021-.072a.372.372,0,0,0,.031-.108l.031-.072v-.02l.22-1.071a.349.349,0,0,0,.01-.1l.02-.118.041-.953v-.2l-.092-.912-.01-.051a.4.4,0,0,0-.031-.159l-.031-.128a.075.075,0,0,1-.021-.062l-.328-.81c0-.031-.031-.062-.041-.092l-.041-.092-.359-.64-.062-.072c-.031-.041-.061-.092-.092-.128l-.108-.108-.062-.072-.538-.451-.061-.041a.78.78,0,0,0-.118-.082.63.63,0,0,0-.128-.072l-.051-.031-.641-.272c-.02-.021-.051-.021-.082-.031l-.138-.041a.849.849,0,0,0-.149-.031l-.082-.01-.538-.051h-.343a.439.439,0,0,0-.118.01h-.118l-.748.128-.021.01-.118.031a1.007,1.007,0,0,0-.138.041l-.851.318c-.051.021-.082.041-.118.051s-.072.031-.108.051l-.041.02-.82.482-.072.051a.427.427,0,0,0-.082.062l-.082.061,2.511-8.178,1.05-1.209.021-.01.01-.01,2.762-3.244v.021l2.721-3.264v-.01l.021-.01,2.665-3.351,2.665-3.341.021-.021.01-.01,2.583-3.444.01-.01.01-.01,2.531-3.485v-.01l2.531-3.526,1.43-1.973,9.557,24.013.041.1.021.041,3.843,7.287c0,.021.021.031.031.041a1.564,1.564,0,0,0,.169.241c.021.031.051.051.072.082a1.476,1.476,0,0,0,.241.179l.031.031v.01l5.293,3.054-1.691,2.122-2.7,3.244-2.752,3.192-2.772,3.152-1.794,1.963-9.583,9.931-5.114,4.443-.021.021-.031.02-5.063,4.853-.021.031-.031.021-3.433,3.643Zm3.664,1.2-.461.533-.02.041-.031.031-2.26,2.972-.328-1.773Zm-4.5-35.081.041-.318.969-3.141,3.213-2.46.671-.379.318-.118.061.41-.031.733-.149.62-.062.061-.031.041-.021.031-.21.272-.272.282-.328.318-.041.051a.1.1,0,0,1-.051.041l-.241.282-.3.313-.01.01h-.01l-.231.241-.282.241-.031.031c-.01.02-.02.02-.041.031l-.282.292-.282.22-.041.02-.031.02-.313.272h-.01l-.3.261Zm32.155-57.772c0,.02,0,.041.02.051l.9,2.27,13.124,33.467.01.031.01.02,3.843,8.778.338.769-1.532,2.547-.748-.282-1.25-.538-5.042-2.921-3.623-6.856-10.469-26.3v-.01l-.01-.01-.979-2.393-.661-1.671,2.854-3.684,3.2-3.31v.01Zm31.679-15.2,2.173.41,2,.758,1.573,1.02,2.27,3.433,2,4,1.573,4.5,1.143,4.873.661,5.293.072,1.671-2.69,2.552-.01.01-.021.02-1.353,1.343-11.028-6.364-4.094-2.362,1.512-1.143.041-.021a.1.1,0,0,1,.051-.041l2.8-2.434a.313.313,0,0,1,.082-.082l.051-.062,2.121-2.393a1.214,1.214,0,0,0,.082-.108l.051-.062,1.363-2.08.02-.051a.69.69,0,0,0,.092-.169.391.391,0,0,0,.041-.108.246.246,0,0,0,.031-.092l.451-1.671v-.02c.02-.061.02-.118.041-.169a.334.334,0,0,1,.01-.108l-.01-.149v-.128l-.041-.118a.457.457,0,0,0-.041-.159v-.02l-.451-1.179-.031-.041a.992.992,0,0,0-.061-.128.78.78,0,0,0-.072-.118.356.356,0,0,0-.092-.108.828.828,0,0,0-.092-.1c-.041-.041-.072-.061-.108-.1l-.108-.082a.451.451,0,0,0-.108-.061l-.128-.072-.051-.02L365,160.069a.152.152,0,0,0-.092-.021.428.428,0,0,0-.159-.041c-.041-.01-.092-.01-.148-.021l-.1-.01h-.62l-.061.01-.072-.01-1.43.118-.051.01a.551.551,0,0,1-.108.021.425.425,0,0,0-.128.031l-2.813.723a336.957,336.957,0,0,1-.215.082l-.4.179-2.793,1.163-.031.031a.11.11,0,0,0-.062.02l-3.531,1.814-.061.041-.051.031-3.444,2.214-.031.021-.031.01-1.932,1.353-.01.02h-.01l-.02.01v.01l-1.353.979a.124.124,0,0,1-.051.051l-.051.041-2.67,2.393-.031.041-.02.021-.1.092-.021.031-.031.021-.513.559-.01.01-.021.01v.01l-.01.01-1.619,1.8c-.031.031-.041.072-.072.092s-.051.051-.061.092l-.933,1.419-2.142-5.437.933-1.009,2.644-2.834,2.68-2.67,2.721-2.5,2.813-2.373,2.752-1.963,2.844-1.563,2.721-1.25,2.7-.758,2.511-.379h2.46Zm-1.834-4,9.3-3.31,11.812,2.48,8,8.988,2.383,13.052-.871.118a.439.439,0,0,1-.108.02.168.168,0,0,1-.1.021l-2.854.851-.082.041-.092.031-2.9,1.271-.061.041-.072.02-2.941,1.681-.051.041-.061.031-2.88,2.039-.041.031-.051.031-.282.231-.641-5.135-.021-.072-.01-.082-1.179-5.022a.148.148,0,0,0-.021-.072l-.01-.072-1.63-4.663-.041-.082-.031-.082-2.081-4.171c-.01-.031-.041-.051-.051-.072s-.021-.061-.041-.082l-2.48-3.751h-.01a1.819,1.819,0,0,0-.138-.19l-.041-.041-.041-.041a1.658,1.658,0,0,0-.179-.138h-.01l-1.952-1.271-.051-.031-.041-.031-1.993-1.081a.372.372,0,0,0-.072-.031l-.082-.041-2.2-.892a1.06,1.06,0,0,0-.169-.051l-.118-.041-2.455-.441-.02-.01c-.051-.01-.092,0-.138-.01Zm9.142,36.014-1.46,1.542-7.338-4.248c.031-.021.041-.051.072-.072l.041-.041.4-.492v-.01a1.111,1.111,0,0,0,.149-.231l.031-.061a.738.738,0,0,0,.051-.118l.231-.63.01-.031.021-.031.02-.082Zm-18.32-10.531h.02l.01.02,1.891,1.03,5.837,3.382.051.041.041.072.041.138v.22l-.1.313-.138.379-.2.251-.261.261-.22.118-.108.041-.082-.031-8.266-4.745-1.952-1.122-.041-.02-4.3-2.48,1.132-1.02.548-.4Zm-3.531-5.386.082-.051,3.351-2.162,3.433-1.763.379-.159-.723,4.776-2.393,1.763Zm-3.643,6.918-2.742,1.163-.712.179.83-1.922.01-.041a1.138,1.138,0,0,1,.051-.159.2.2,0,0,1,.031-.108v-.02l.092-.5Zm-3.054,5.806a.99.99,0,0,0,.251-.041h.041l2.742-.723a.193.193,0,0,0,.092-.041l.1-.02,3.305-1.373c.02,0,.041-.021.072-.031l.051-.02,1.343-.723,7.676,4.4,2.731,1.583-.63.2a.309.309,0,0,0-.1.041.39.39,0,0,0-.108.041l-1.573.758c-.041.031-.082.051-.1.072a.288.288,0,0,0-.118.072l-1.543,1.132-.061.051-.062.041-1.481,1.363a.12.12,0,0,0-.051.051l-.072.061-1.389,1.583-.072.082-.051.062-1.22,1.814-.041.072-.051.062-1.03,1.952-.021.051-.021.041-.871,1.942v.01l-.01.072a.819.819,0,0,0-.082.2.4.4,0,0,1-.01.118.879.879,0,0,0-.01.159.6.6,0,0,0,.01.19v.092l.313,1.8a1.241,1.241,0,0,0,.072.261l.589,1.619.021.041.041.082.092.169.031.041.861,1.22a1.024,1.024,0,0,0,.2.22l.5.461.021.021.02.01.579.512.041.02.092.072a1.089,1.089,0,0,1,.138.092l.041.02,1.312.63.051.01.021.01-1.24,1.742-2.3,3.193-2.865-6.523-8.219-20.969Zm11.97,18.894-.061-.061-.671-.943-.482-1.322-.22-1.25.676-1.507.969-1.829,1.133-1.671,1.291-1.45,1.384-1.25,1.373-1.009,1.363-.671.512-.159-.441,2.47-.128.379-.031.108c-.01.051-.041.092-.041.128l-.22,1.22a.317.317,0,0,0-.01.1l-.01.082-.051.861v.072l-1.512,5.826-.441.579-.01.01-.01.01-.64.851-.21.128-1.363.359-1.281.072Zm4.638-34.108.441-2.88,2.142-.548-.021.067-1.173,1.794ZM283.568,309.316l2.68-6.764,3-6.815,3.362-6.6,3.725-6.585.589-.943,2.4,2.69.051.051.128.118c.031.031.072.051.108.082.031.01.041.031.072.041l6.723,3.884-3.684,6.513-.01.031c-.02.01-.02.021-.031.041l-2.573,5.094-16.726,9.659Zm12.657-.641-.01.021-2.721,6.887-.01.031v.021l-.871,2.444-8.886-5.124L298,304.7l-1.753,3.951Zm131.9-84.614-.041.2v.01l-1.122,6.067-1.563,6.436-2.05,6.467L421,249.336l-124.015,71.6,1.1-3.254,2.69-6.785,3.044-6.795,3.321-6.585,3.715-6.508,3.992-6.323,4.223-6.134,4.474-5.837,4.673-5.463,4.873-5.242,5.053-4.786,5.135-4.463.041-.041.041-.041.01-.01,9.6-10,.01-.01.021-.01,1.814-1.993v-.02l.021-.01,2.752-3.162v-.01h.01l2.762-3.213.01-.02,2.711-3.264.02-.01v-.005l2.67-3.341v-.01h.01l2.67-3.392v-.01l2.634-3.392.01-.021.01-.02,2.531-3.526,2.49-3.495,2.342-3.274,2.424-3.192,2.49-3.075,2.572-2.972,2.593-2.865,2.654-2.783,2.68-2.68,2.7-2.572,2.823-2.291,2.793-1.973,2.813-1.6,2.711-1.2,2.711-.81,2.511-.369h2.373l2.245.4,1.983.748,1.583,1.071,2.321,3.351,1.993,4.033,1.532,4.5,1.143,4.894.671,5.283L429,212l-.031,1.542-.041.82-11.52-6.646h-.01l-7.748-4.463,1.522-1.163.041-.041c.01-.01.041-.01.051-.031l2.762-2.49.051-.051.041-.041,2.173-2.3a.817.817,0,0,0,.128-.169l.031-.041,1.363-2.132.021-.051.092-.159.031-.108a.153.153,0,0,0,.031-.072l.451-1.681.01-.031a.846.846,0,0,0,.02-.159.517.517,0,0,0,.021-.118v-.149c-.01-.041-.01-.092-.021-.128l-.031-.128a.629.629,0,0,0-.041-.149c0-.01,0-.031-.021-.031l-.441-1.133-.021-.041c-.031-.041-.041-.092-.072-.128s-.051-.082-.072-.118a.909.909,0,0,1-.082-.1c-.041-.041-.061-.072-.1-.108s-.072-.051-.1-.082-.072-.062-.118-.1a.478.478,0,0,0-.1-.051l-.149-.072-.031-.02-1.363-.492a.3.3,0,0,0-.092-.02.433.433,0,0,0-.149-.041.838.838,0,0,0-.159-.021l-.092-.01h-.722l-1.532.092v.01a.448.448,0,0,0-.128.02.946.946,0,0,0-.169.021l-2.762.758-.041.02-.061.021-.4.138-.031.01-.031.01-2.8,1.122-.082.041c-.021.02-.051.02-.082.041l-3.515,1.891-.041.031-.041.02-3.485,2.173-.041.031-.041.031-1.891,1.353-.021.02h-.021v.01l-1.363,1.03-.031.041-.051.031-2.634,2.362-.021.02-.02.01-.128.138-.02.01-.548.559-.031.02-.02.031-.01.01-1.583,1.814-.061.082-.072.082-1.353,2.08c-.021.021-.021.051-.041.072l-.062.128a1.032,1.032,0,0,0-.061.138l-.031.072-.451,1.671v.041a.968.968,0,0,0-.031.159.521.521,0,0,0-.01.128v.138a.27.27,0,0,0,.021.128.428.428,0,0,0,.031.128c.01.061.031.1.041.149l.01.051.22.523.22.569.01.031.041.062a.579.579,0,0,0,.082.159c.01.031.041.051.051.072l.118.149a.124.124,0,0,0,.051.051,1.2,1.2,0,0,0,.19.149c.01.021.031.021.041.031a1.731,1.731,0,0,0,.19.1l.031.01,1.353.548h.01a.138.138,0,0,0,.082.02.4.4,0,0,0,.179.051.854.854,0,0,0,.282.041h.061l2.121-.1a.958.958,0,0,0,.3-.051h.01l2.762-.723a.466.466,0,0,1,.195-.062l3.254-1.363.062-.041.051-.01,1.384-.733,10.3,5.975-.538.179a.307.307,0,0,0-.1.041,1.067,1.067,0,0,0-.1.041l-1.583.81a.937.937,0,0,1-.092.051l-.072.051-1.542,1.091a.718.718,0,0,0-.092.072.557.557,0,0,0-.092.072l-1.44,1.4c-.021.01-.031.021-.031.041l-.041.021-1.44,1.594a.5.5,0,0,0-.072.082c-.02.031-.051.051-.062.082l-1.22,1.814-.031.041-.041.051-1.071,1.9c-.021.031-.021.051-.041.072l-.031.072-.871,1.993v.02c-.02.072-.051.138-.072.22l-.01.051-.02.108-.01.159v.041a1.915,1.915,0,0,0,.021.251v.01l.369,1.8.031.108.01.072.548,1.583.031.092c.02.031.02.061.041.092a.977.977,0,0,0,.118.2l.01.021h.01v.01l.9,1.209.01.01a1.206,1.206,0,0,0,.22.241h.01l.482.41.5.5.082.051a.674.674,0,0,0,.108.1,1.388,1.388,0,0,0,.128.082l.082.041,1.312.63.061.02a.564.564,0,0,0,.169.061.321.321,0,0,0,.138.031.148.148,0,0,0,.072.02l1.481.19a1.116,1.116,0,0,0,.179.01h.092l1.553-.1h.031a1.664,1.664,0,0,0,.22-.041l.051-.01h.01l1.712-.492c.051-.021.1-.051.149-.072l.082-.021,1.763-.861.041-.021.108-.061,1.763-1.143.072-.061a.33.33,0,0,0,.108-.072l1.671-1.491c.031-.01.041-.041.051-.062a.073.073,0,0,0,.051-.041l1.594-1.722a.258.258,0,0,0,.051-.082c.041-.041.072-.092.1-.128l.062-.118a1.456,1.456,0,0,0,.072-.128.617.617,0,0,0,.041-.138l.031-.128c.01-.046.01-.1.02-.149v-.133l-.01-.149c-.01-.041-.01-.092-.02-.128a1.319,1.319,0,0,0-.041-.128.826.826,0,0,1-.041-.138l-.072-.108-.072-.128c-.031-.041-.061-.061-.082-.092a1.3,1.3,0,0,0-.108-.128l-.021-.01-.082-.062a.513.513,0,0,0-.128-.1l-.108-.061c-.051-.021-.092-.051-.128-.062a.617.617,0,0,0-.138-.041c-.041-.01-.082-.031-.128-.041a.8.8,0,0,0-.159-.01.3.3,0,0,0-.092-.02h-.641l-.3-.092-.22-.159-.22-.318-.2-.548-.1-.748.031-.84.22-1,.4-1.071.492-1.051.63-1.02.379-.471,8.86,5.073Zm-24.73-18.668a.2.2,0,0,0-.051-.092,1.47,1.47,0,0,0-.892-.471l-1.091-.641-.031-.051a1.448,1.448,0,0,0-.692-.379l-4.012-2.326,1.122-1,.548-.42,6.093,3.495,1.922,1.133h.02l9.516,5.493.041.041.01.02.031.169v.22l-.118.42-.1.328-.179.231-.292.272-.159.108-.1.021h-.179l-.072-.021Zm10.935,20.948-.041.031.01-.051Zm-.948-9.7-.441,2.48-.128.389a.558.558,0,0,0-.031.1.391.391,0,0,1-.041.108l-.22,1.179c-.01.031,0,.072-.01.1l-.01.1-.041.748-.01.021v.041l-1.619,6.477-.169.548-.963.482-1.46.42-1.25.108-.83-.159-.128-.1-.671-.912-.441-1.281-.251-1.281.651-1.512,1.02-1.783,1.122-1.671,1.353-1.481,1.343-1.291,1.363-.963,1.389-.723ZM397.2,205.087l-2.742,1.163-.682.179.83-1.911a.056.056,0,0,1,.02-.051.8.8,0,0,0,.041-.159l.031-.108.021-.051.051-.471Zm3.633-6.928.051-.041,3.4-2.121,3.4-1.84.42-.159-.728,4.791-2.373,1.763Zm9.921-2.47.441-2.865,2.111-.579h.041l-.031.118-1.163,1.783ZM448.4,226.235a.466.466,0,0,0-.072.072l-.072.061-.861.851a.665.665,0,0,1-.092.108.923.923,0,0,1-.092.1v.021h-.01l-.682.989v.01l-.02.021a.341.341,0,0,1-.062.1.529.529,0,0,0-.061.118l-.558,1.209-.021.1a.152.152,0,0,0-.041.092l-.359,1.173a.978.978,0,0,0-.031.169.814.814,0,0,0-.031.118v.01l-.031.43-3.9-2.25a1.342,1.342,0,0,0,.451-.461,1.443,1.443,0,0,0-.523-1.973l-10.848-6.323h-.02l-.01-.01v-.01l-12.883-7.374a1.5,1.5,0,0,0,.169-.19l.41-.538a.815.815,0,0,0,.118-.231.363.363,0,0,0,.041-.092.478.478,0,0,0,.051-.1l.19-.579v-.02l.01-.031.02-.082,10.961,6.313,12.621,7.287a1.432,1.432,0,0,0,1.563-2.393l5.124,2.952Zm2.178,4.263-.241.451-.21.318-.108.118.1-.328.149-.328.272-.338.138-.138Z" transform="translate(0 0)" fill="#f8f8ee"/>
    <path id="Контур_140" data-name="Контур 140" d="M111.093,58.25a.61.61,0,0,0-.128-.01h-.072l-1.45.041-4.156.092-.062.01a.842.842,0,0,0-.159.02l-.138.031-.061.02-9.009,3.034v.01l-2.024.671h-.021l-9.685,3.305-.082.031a.668.668,0,0,0-.133.072.394.394,0,0,0-.128.082l-.082.051L63.072,82.12l-.026.031a1.065,1.065,0,0,0-.108.108.638.638,0,0,0-.1.108l-.036.031-7.681,10.49v.01l-9.736,13.3a.9.9,0,0,0-.092.149l-.067.108L33.335,133.43l-.01.041a.724.724,0,0,0-.046.138.667.667,0,0,0-.041.138l-.005.051L30.42,152.441l-1.132,7.476-.005.072-.005.159.01.149a.254.254,0,0,1,.01.092l1.855,10.177,2.075,11.391.036.108a.788.788,0,0,0,.031.118l.082.179.036.061a1.305,1.305,0,0,0,.154.22l.01.01,8.583,9.68.005.01,3.172,3.613a1.436,1.436,0,0,0,2.162-1.891l-.323-.379,8.353,1.783h.026a1.243,1.243,0,0,0,.266.041h.01a.4.4,0,0,0,.108-.02.439.439,0,0,0,.123-.01.963.963,0,0,0,.246-.061l20.564-7.328.026-.01.041-.021a1.028,1.028,0,0,0,.184-.092l.087-.062.087-.051,18.54-14.343h.01l.051-.041c.062-.061.128-.118.179-.179l.01-.02L112.2,153.184a1.457,1.457,0,0,0,.149-.231v-.01h.01L124.4,129.694v-.031a1.188,1.188,0,0,0,.092-.2l.01-.051.01-.01,4.023-14.922,8.378-3.961a1.44,1.44,0,0,0-1.23-2.6l-8.968,4.243L79.347,134.47l-3.869-2.25,2.993-9.316L95.755,69.18l1.722-5.206,8.117-2.742,1.942-.031-2.742,8.758-2.583,8.2-12,37.823-2.168,6.785a1.435,1.435,0,0,0,.938,1.8,1.265,1.265,0,0,0,.43.072,1.442,1.442,0,0,0,1.373-1l1.983-6.185,38.074-17.8h.01l.01-.01,1.373-.682a1.43,1.43,0,0,0,.641-1.922,1.411,1.411,0,0,0-1.122-.779V93.229l-1.722-15.886a.075.075,0,0,0-.02-.061.694.694,0,0,0-.021-.149A.553.553,0,0,0,129.94,77a.1.1,0,0,0-.021-.072l-4.663-10.679-.471-1.035-.021-.021a.509.509,0,0,0-.092-.149c-.01-.031-.041-.072-.051-.1a.926.926,0,0,0-.092-.1,1.068,1.068,0,0,1-.108-.118L124.4,64.7l-.717-.62a1.425,1.425,0,0,0,.589-.83,1.445,1.445,0,0,0-1.03-1.753l-3.9-1-4.986-1.384-.01-.01-3.034-.81-.041-.01ZM36.046,134.424,47.8,107.762,57.22,94.889l17.228-8.117L71.087,99.194,59.142,122.182l-15.916,19.9L33.8,149.336Zm42.5,2.906.02.021a1.119,1.119,0,0,0,.318.128l.041.01a1.8,1.8,0,0,0,.333.041h.005a2.088,2.088,0,0,0,.343-.041l.108-.041a.844.844,0,0,0,.159-.062l45.238-21.3-3.351,12.421-11.9,22.988L93.946,171.355l-18.232,14.1-19.985,7.118L44,190.085,36,181.045,34.2,171.278l.195-.082.072-.051a.987.987,0,0,0,.108-.082L55.432,154.87h.015l.031-.041a1.023,1.023,0,0,0,.184-.179l.015-.021,16.782-21.1a.6.6,0,0,1,.062.1l.082.128c.031.031.067.072.108.108a.522.522,0,0,0,.092.092.818.818,0,0,0,.154.118l.072.041.005.01h.015Zm14.4-68.83L75.755,121.926l-4.13,8.055L53.541,152.713,33.633,168.168,32.167,160.1l1-6.657,11.945-9.2a.1.1,0,0,0,.051-.051,1.13,1.13,0,0,0,.179-.169l.015-.021,16.111-20.139a1.32,1.32,0,0,0,.149-.21l.005-.021v-.01L73.71,100.378v-.01a1.031,1.031,0,0,0,.082-.2l.021-.061v-.01l4.038-14.922,8.307-3.884a1.435,1.435,0,1,0-1.209-2.6l-8.911,4.161-.01.01L60.771,90.032l4.238-5.785L85.291,68.094l7.651-2.6V68.5Zm34.231,9.378,1.691,15.593v3.485l-.041.461-34.9,16.316,10.828-34.169,18.484-10.689ZM114.705,62.186l3.582,1,3.613,3.141-15.865,9.167,1.281-4.074,3.054-1.44.082-.051c.041-.01.061-.041.092-.062a1.792,1.792,0,0,0,.22-.169l.051-.051a1.175,1.175,0,0,0,.21-.292l.021-.021Zm-2.829-.774-3.162,6.175-.22.108,2.06-6.575h.22Z" transform="translate(93.586 184.536)" fill="#f8f8ee"/>
    <path id="Контур_141" data-name="Контур 141" d="M82.634,176.44a1.5,1.5,0,0,0,.533-.108,1.417,1.417,0,0,0,.81-1.85l-2.88-7.369,2.183-4.212h.01l5.094-9.946h.01v-.015l.02-.031.051-.149a.814.814,0,0,0,.041-.092v-.02l.01-.031,7.717-15.112,8.189-16.106.01-.01v-.01l3.151-6.134,12.76-24.879.01-.01,5.734-11.309h.01L136.87,58.057l2.25-4.443h.01l2.49-4.935.01-.041.062-.149.031-.118a.753.753,0,0,0,.031-.138l.01-.138v-.138a.654.654,0,0,0-.01-.138l-.031-.128a.381.381,0,0,0-.051-.138V47.5l-1.081-2.67-.861-2.27v-.02l-.02-.01V42.5l-.82-2.024,2.424-1.363a1.436,1.436,0,0,0-1.414-2.5l-3.526,1.993h-.02L135,39.384h-.01L125.4,44.99l-4.976,2.854h-.01l-.021.01-1.532.933-1.1.548h-.01l-.021.01-.031.021a.066.066,0,0,1-.051.02l-3.613,2.121-9.68,5.565-.01.01v.01l-5.007,2.962-4.755,2.711-4.832,2.752v.01L71.826,75.885,53.732,86.333l-2.25,1.312h-.01L49.12,89.008l-.041.021-.118.092a.576.576,0,0,0-.1.092.97.97,0,0,0-.1.1.546.546,0,0,0-.092.108l-.072.108c-.02.041-.051.082-.072.128a.535.535,0,0,0-.041.128.25.25,0,0,0-.041.118.75.75,0,0,0-.031.138.629.629,0,0,0-.01.138.535.535,0,0,0,0,.128.7.7,0,0,0,.01.149l.031.118a.52.52,0,0,0,.051.159l.01.041.21.533.769,2.024v.01l.41,1.03v.01l5.473,14.2v.02h.01l.4.989,2.291,6.037.031.051.01.021.533,1.2,16.142,41.866,3.392,8.778,3.121,7.979A1.458,1.458,0,0,0,82.634,176.44ZM137.29,48.951l.041-.041.041-.021,1.3-1.132.082.2-1.522,3.013-1.081-.61-.41-.241ZM93.753,136.035l-1.01,1.133-.031.041-.041.031-3.034,3.895v.021l-.021.01-2.931,3.982-.021.031-.02.02-1.691,2.511-2.48-2.742,3.4-4.443,4.663-5.514,4.884-5.206,2.931-2.824Zm40.072-92.659-.359,2.311L131.1,47.45l-2.132-1.23Zm-7.712,4.5L130.48,50.4l1.932,1.132.01.01,2.234,1.271.031.149v.292l-.072.313-.149.318-.2.313-.241.21-.21.138-.138.02-.138.02-4.422-2.583-.082-.041a1.745,1.745,0,0,0-.313-.149l-1.619-.979-.02-.01h-.01l-3.044-1.742ZM120.7,51.452v-.01l.092-.261.051-.251.318-.2,2.2,1.271L120.6,53.122l-.712.19Zm-.441,6.339h.02a1.427,1.427,0,0,0,.22-.031l.061-.01.021-.01,2.762-.769c.02,0,.051-.02.082-.02.021-.02.062-.02.092-.031l3.254-1.363.051-.02.051-.021,1.384-.692,3.982,2.321h.01v.01l1.43.81L124.992,74.9l-6.667-17.023Zm-6.226-2.982,9.208,23.511-4.433,8.717L115.9,81.5l-9.019-22.568Zm-24.8,22.947,2.665-3.305h.01l2.67-3.351.01-.02.01-.021,2.583-3.433.01-.01V67.6l2.542-3.485,1.3-1.753,3.341-1.973,8.875,22.24a.807.807,0,0,1,.041.092l.021.041,3.843,7.287.01.01.062.082-12.1,23.608-3.433,3.6-5.063,4.381-.021.021-.031.02-5.1,4.848c-.01.01-.02.031-.041.031l-.02.031-3.392,3.643-9.5,5.483-2.752-15.045,1.143-11.781,2.7-2.25,3.454-2.793.282-.169.02-.01.108-.092.118-.092.01-.021.231-.231.292-.241.031-.041.041-.031.313-.318.282-.231c.02-.01.031-.031.051-.051l.041-.041.338-.338.272-.272.02-.01v-.01l.359-.348.051-.062.041-.031.231-.282.272-.282.031-.031.051-.041.313-.359.01-.031.031-.02.318-.41.02-.051a.634.634,0,0,0,.1-.149l.01-.01.01-.02a.148.148,0,0,0,.021-.072.416.416,0,0,0,.061-.128l.021-.062a.11.11,0,0,0,.021-.072l.01-.061.19-1v-.1a.2.2,0,0,0,.02-.092L87.758,97v-.215l-.108-.912-.01-.051a.291.291,0,0,0-.031-.138l-.031-.149-.02-.051-.313-.748v-.01l-.051-.108-.082-.138-.41-.63-.02-.031L86.59,93.7l-.092-.108-.041-.021-.5-.461c-.021-.021-.051-.031-.082-.062s-.072-.061-.118-.092a.89.89,0,0,0-.138-.072.359.359,0,0,1-.082-.051l-.682-.272-.051-.021a.631.631,0,0,1-.149-.041.793.793,0,0,0-.149-.02l-.061-.01-.492-.051h-.072l-.041-.01h-.251c-.051,0-.092.021-.128.021h-.118l-.81.149-.128.031a1.28,1.28,0,0,0-.128.041l-.82.313a1.543,1.543,0,0,0-.261.128l-.851.538-.041.031c-.031.021-.041.021-.051.041l-.128.092,2.542-8.235,1.081-1.271,2.752-3.2.01-.021v-.01l2.721-3.305Zm-6.974,59.222-.492.579-.01.02-.021.02-2.342,3.013-.328-1.794Zm-4.576-35.061.031-.338.963-3.085,3.244-2.455.692-.43L82.9,95.5l.051.359-.061.789-.128.63-.02.031-.01.01-.01.01-.231.272-.318.313L82.111,98c-.031.031-.062.051-.072.082l-.22.292-.21.21-.318.282-.062.072L81.158,99l-.22.251-.292.251-.3.261-.01.01v.01l-.348.3-.282.241-.328.251-.01.01-.02.01ZM59.164,110.4l-.389-1.009.451-.492.118-.118Zm.42-10.966L57.2,103.971v.01l-.3.589-4.1-10.618.933-1.814.01-.01,1.8-3.515,13.513-7.8L61.485,95.573v.02l-1.9,3.833ZM78.17,158.4l-.81-.9L61.429,116.152l.149-1.722,1.081-9.26.41-3.351v-.01l.272-2.48v-.021l.041-.3.723-2.234L73.64,78.155,86.82,70.53l-3.362,6.288-.01.01-2.583,4.924a.733.733,0,0,0-.041.128.415.415,0,0,0-.051.108l-.758,2.444h-.021L76.059,97.2l-1.132,3.664a1.7,1.7,0,0,0-.051.22l-.01.061v.01l-.41,3.951-.348,2.982v.01l-.01.021-1.209,12.57c-.01.02,0,.041,0,.051a.363.363,0,0,0,0,.149.7.7,0,0,0,.01.149v.051l3.162,17.233.769,4.294a1.284,1.284,0,0,0,.041.128l.031.108c.031.072.061.138.1.22l.01.02a1.724,1.724,0,0,0,.159.22l.01.01.851.943,1.471,1.712.031.01V146l4.5,4.965,1.332,1.573-3.951,7.707Zm1.532,5.15-.482-1.24.871.492Z" transform="translate(172.428 94.551)" fill="#f8f8ee"/>
  </g>
</svg>
