<svg xmlns="http://www.w3.org/2000/svg" width="77.06" height="67.63" viewBox="0 0 77.06 67.63">
  <g id="Сгруппировать_329" data-name="Сгруппировать 329" transform="translate(12486.177 10428.222)">
    <g id="Сгруппировать_308" data-name="Сгруппировать 308" transform="translate(-12486.177 -10428.222)">
      <path id="Контур_254" data-name="Контур 254" d="M1285.1,1297.411a9.158,9.158,0,1,1,9.157-9.158A9.168,9.168,0,0,1,1285.1,1297.411Zm0-15a5.838,5.838,0,1,0,5.838,5.838A5.845,5.845,0,0,0,1285.1,1282.415Z" transform="translate(-1217.196 -1229.781)" fill="#f8f8ee"/>
      <path id="Контур_255" data-name="Контур 255" d="M1196.607,1297.411a9.158,9.158,0,1,1,9.157-9.158A9.168,9.168,0,0,1,1196.607,1297.411Zm0-15a5.838,5.838,0,1,0,5.838,5.838A5.845,5.845,0,0,0,1196.607,1282.415Z" transform="translate(-1187.45 -1229.781)" fill="#f8f8ee"/>
      <path id="Контур_256" data-name="Контур 256" d="M1244.393,1264.943h-30.244v-1.66a12.92,12.92,0,0,0-12.905-12.9v-3.319a16.248,16.248,0,0,1,16.14,14.564h24.974l9.494-18.676-6.4-34.817H1235.3v-3.319h12.917l7.1,38.641Z" transform="translate(-1192.087 -1204.811)" fill="#f8f8ee"/>
    </g>
  </g>
</svg>
