<svg xmlns="http://www.w3.org/2000/svg" width="87" height="56.55" viewBox="0 0 87 56.55">
  <path id="Контур_76" data-name="Контур 76" d="M271.482,165.489a17.39,17.39,0,0,0-5.261.811l-5.614-12.164v-6.047h10.875a4.35,4.35,0,0,1,0,8.7,2.175,2.175,0,1,0,0,4.35,8.7,8.7,0,0,0,0-17.4h-13.05a2.175,2.175,0,0,0-2.175,2.175v6.525H236.682v-4.35h2.175a2.175,2.175,0,0,0,0-4.35h-17.4a2.175,2.175,0,0,0,0,4.35h10.875v5.977l-6.781,12.592a17.4,17.4,0,1,0,10.992,18.4h8.839c.062,0,.123-.008.185-.013a2.162,2.162,0,0,0,.305-.048c.066-.015.13-.032.194-.053.032-.01.065-.014.1-.026s.049-.026.075-.038a2.379,2.379,0,0,0,.424-.244c.058-.042.115-.086.169-.133s.087-.083.128-.126.09-.1.132-.155.068-.085.1-.129a2.19,2.19,0,0,0,.168-.3l0-.008.014-.029L258.432,159.8l3.842,8.323a17.4,17.4,0,1,0,9.209-2.638Zm-37.306-5.675,8.037,20.9h-5.672a17.383,17.383,0,0,0-7.162-11.987Zm-2.029,20.9h-9.224l4.371-8.117A13.035,13.035,0,0,1,232.147,180.71Zm-12.865,15.229a13.05,13.05,0,1,1,4.184-25.411l-6.1,11.325a2.175,2.175,0,0,0,1.915,3.206h12.867A13.051,13.051,0,0,1,219.282,195.939ZM245.564,177.3l-7.89-20.513h17.358Zm25.919,18.637a13.05,13.05,0,0,1-7.367-23.822l5.392,11.683a2.175,2.175,0,0,0,3.95-1.823l-5.392-11.683a13.05,13.05,0,1,1,3.418,25.645Z" transform="translate(-201.882 -143.739)" fill="#ffe604"/>
</svg>
