<svg xmlns="http://www.w3.org/2000/svg" width="36.056" height="115.901" viewBox="0 0 36.056 115.901">
  <g id="Сгруппировать_321" data-name="Сгруппировать 321" transform="translate(11164.382 10810.434)">
    <g id="Сгруппировать_316" data-name="Сгруппировать 316" transform="translate(-11164.382 -10810.434)">
      <path id="Контур_193" data-name="Контур 193" d="M124.175,970.047h-3.319V931.7a17.994,17.994,0,0,1-9.249-15.665,18.181,18.181,0,0,1,10.174-16.163l2.391-1.175v12.52l4.664,4.455,1.612.015,4.65-4.443v-12.52l2.392,1.175a18.18,18.18,0,0,1,10.174,16.163,17.985,17.985,0,0,1-10.193,16.151l-1.43-2.995a14.558,14.558,0,0,0,2.377-24.87v8.315l-6.651,6.354-4.275-.038-6.639-6.344v-8.314A14.558,14.558,0,0,0,123.23,929.2l.945.45Z" transform="translate(-111.607 -898.702)" fill="#151325"/>
      <path id="Контур_194" data-name="Контур 194" d="M135.1,1036.419V1023.9l-4.662-4.456-1.613-.015-4.65,4.444v12.519l-2.391-1.175a18.181,18.181,0,0,1-10.174-16.163A17.986,17.986,0,0,1,121.8,1002.9l1.43,2.995a14.558,14.558,0,0,0-2.378,24.869v-8.314l6.652-6.356,4.273.039,6.639,6.344v8.314a14.558,14.558,0,0,0-2.377-24.869l-.945-.45V963.6h3.319v39.813a17.991,17.991,0,0,1,9.249,15.665,18.179,18.179,0,0,1-10.174,16.162Z" transform="translate(-111.607 -920.518)" fill="#151325"/>
    </g>
  </g>
</svg>
