<svg xmlns="http://www.w3.org/2000/svg" width="48.385" height="111.235" viewBox="0 0 48.385 111.235">
  <g id="Сгруппировать_320" data-name="Сгруппировать 320" transform="translate(11067.686 10808.102)">
    <g id="Сгруппировать_313" data-name="Сгруппировать 313" transform="translate(-11067.686 -10808.102)">
      <path id="Контур_195" data-name="Контур 195" d="M307.539,977.2H304.22a78.9,78.9,0,0,0-1.692-16.58l3.246-.7A82.282,82.282,0,0,1,307.539,977.2Z" transform="translate(-272.48 -921.612)" fill="#151325"/>
      <path id="Контур_196" data-name="Контур 196" d="M300.328,1026.6" transform="translate(-271.74 -944.027)" fill="#151325" stroke="#ffde00" stroke-miterlimit="10" stroke-width="5"/>
      <g id="Сгруппировать_247" data-name="Сгруппировать 247">
        <path id="Контур_197" data-name="Контур 197" d="M278.757,1013.451H266.469a9.213,9.213,0,0,1-9.2-9.2V992.332a9.213,9.213,0,0,1,9.2-9.2h19.384v3.319H266.469a5.89,5.89,0,0,0-5.884,5.884v11.916a5.89,5.89,0,0,0,5.884,5.884h11.916c.043,0,.085,0,.127-.007l1.2-.06.011.021c12.35-1.173,22.6-24.624,22.6-52.252s-10.245-51.059-22.588-52.251v0l-1.238-.042c-.04,0-.079-.007-.119-.007H266.469a5.89,5.89,0,0,0-5.884,5.884v11.916a5.891,5.891,0,0,0,5.884,5.884H285.88v3.319H266.469a9.214,9.214,0,0,1-9.2-9.2V911.419a9.214,9.214,0,0,1,9.2-9.2h11.916c.055,0,.11,0,.164,0l.209,0c15.079,0,26.893,24.431,26.893,55.618S293.837,1013.451,278.757,1013.451Z" transform="translate(-257.265 -902.216)" fill="#151325"/>
        <path id="Контур_198" data-name="Контур 198" d="M305.753,1003.293l-3.244-.7a78.933,78.933,0,0,0,1.7-16.645h3.319A82.206,82.206,0,0,1,305.753,1003.293Z" transform="translate(-272.474 -930.361)" fill="#151325"/>
      </g>
    </g>
  </g>
</svg>
