<svg xmlns="http://www.w3.org/2000/svg" width="252.37" height="38.932" viewBox="0 0 252.37 38.932">
  <g id="Сгруппировать_140" data-name="Сгруппировать 140" transform="translate(-242.269 -270.074)">
    <path id="Контур_1" data-name="Контур 1" d="M315.813,305.246l5.563-2.944a10.03,10.03,0,0,0,8.377,4.122c3.468,0,5.563-1.57,5.563-4.122,0-2.683-3.6-3.272-8.443-4.319-5.628-1.178-10.667-3.141-10.667-9.1,0-5.432,5.1-9.554,11.649-9.554a16.213,16.213,0,0,1,13.35,6.61l-5.563,2.749a9.072,9.072,0,0,0-7.788-4.123c-3.338,0-5.5,1.571-5.5,3.927,0,2.552,2.094,3.01,7.722,4.124s11.453,3.141,11.453,9.227c0,5.694-5.039,9.882-12.041,9.882C323.536,311.725,318.627,309.173,315.813,305.246Z" transform="translate(-21.606 -2.719)" fill="#f8f8ee"/>
    <path id="Контур_2" data-name="Контур 2" d="M366.962,308.155c-5.629-.262-7.068-2.814-7.134-7.722v-17.67H354.92v-5.5h4.908v-7.192h6.218v7.192h6.674v5.5h-6.674v16.884c0,1.964.785,2.879,2.749,2.879h3.665v5.629Z" transform="translate(-33.094 0)" fill="#f8f8ee"/>
    <path id="Контур_3" data-name="Контур 3" d="M384.482,302.814c0-6.937,5.17-8.508,12.042-10.014,5.235-1.112,8.442-1.439,9.1-3.141V289.2c0-2.552-1.9-4.516-6.61-4.516-4.581,0-7.068,2.094-7.33,5.563v.393H385.2c.2-6.937,5.694-11.126,13.874-11.126,7.919,0,12.631,3.535,12.631,11.387v15.249l.066,4.777h-6.217v-4.646c-2.095,3.665-5.956,5.431-10.406,5.431C388.539,311.714,384.482,308.115,384.482,302.814ZM405.62,298.5v-3.8c-1.9,1.309-5.17,1.832-8.18,2.552-3.534.916-6.414,2.028-6.414,5.3,0,2.552,1.9,4.254,5.3,4.254C400.842,306.806,405.1,304.516,405.62,298.5Z" transform="translate(-41.779 -2.774)" fill="#f8f8ee"/>
    <path id="Контур_4" data-name="Контур 4" d="M438.528,285.842c.916-3.6,3.338-5.955,8.965-5.955h.982v6.283H445.53c-5.5,0-7,2.749-7,9.03v15.838h-6.413V280.149h6.413Z" transform="translate(-55.773 -2.883)" fill="#f8f8ee"/>
    <path id="Контур_5" data-name="Контур 5" d="M467.681,303.64v4.515H461.4V270.074h6.282v11.642a11.566,11.566,0,0,1,9.947-5.1c7.92,0,13.874,5.956,13.874,15.9v.065c0,9.947-5.89,16.23-13.94,16.23A11.585,11.585,0,0,1,467.681,303.64Zm17.081-10.864v-.459c0-6.609-3.4-10.208-8.7-10.208-5.367,0-8.7,4.319-8.7,10.47v.524c0,6.086,3.207,10.209,8.7,10.209C481.227,303.312,484.761,299.451,484.761,292.776Z" transform="translate(-64.375 0)" fill="#f8f8ee"/>
    <path id="Контур_6" data-name="Контур 6" d="M509.659,295.55c0-9.424,6.414-16.034,15.51-16.034s15.445,6.61,15.445,16.034c0,9.292-6.48,15.9-15.576,15.9S509.659,304.974,509.659,295.55Zm24.476.2v-.261c0-6.479-3.468-10.537-8.966-10.537s-9.031,4.058-9.031,10.537v.261c0,6.348,3.4,10.275,8.9,10.275C530.6,306.02,534.135,302.029,534.135,295.746Z" transform="translate(-78.553 -2.774)" fill="#f8f8ee"/>
    <path id="Контур_7" data-name="Контур 7" d="M565.6,308.155h-6.479V270.074H565.6Z" transform="translate(-93.085 0)" fill="#f8f8ee"/>
    <path id="Контур_8" data-name="Контур 8" d="M586.457,308.155c-5.628-.262-7.068-2.814-7.134-7.722v-17.67h-4.908v-5.5h4.908v-7.192h6.217v7.192h6.675v5.5h-6.675v16.884c0,1.964.785,2.879,2.748,2.879h3.665v5.629Z" transform="translate(-97.577 0)" fill="#f8f8ee"/>
    <path id="Контур_9" data-name="Контур 9" d="M246.265,311.719" transform="translate(-1.174 -12.234)" fill="#f8f8ee"/>
    <g id="Сгруппировать_1" data-name="Сгруппировать 1" transform="translate(242.269 277.162)">
      <path id="Контур_10" data-name="Контур 10" d="M274.726,299.309a.538.538,0,0,0,.058.5l.173.253.657.953a.007.007,0,0,0,.007.007l.787,1.141,5.378,7.768a2.992,2.992,0,0,1,.188,3.133,3.187,3.187,0,0,1-.224.368,2.976,2.976,0,0,1-2.462,1.256l-25.872-.022-11.146-.007v-4.433l20.87-.021h.938l11.023.007a.76.76,0,0,0,.621-1.191l-2.418-3.494-3.783-5.465-2.165-3.086a.532.532,0,0,1,.326-.823l17.194-3.825v4.557l-9.768,2.1A.525.525,0,0,0,274.726,299.309Z" transform="translate(-242.269 -283.699)" fill="#f8f8ee"/>
      <path id="Контур_11" data-name="Контур 11" d="M252.419,295.487a.537.537,0,0,0-.058-.5l-.173-.253-.657-.953a.007.007,0,0,0-.007-.007l-.787-1.141-5.378-7.768a2.992,2.992,0,0,1-.188-3.133,3.183,3.183,0,0,1,.224-.368,2.976,2.976,0,0,1,2.462-1.256l25.872.022,11.146.007v4.433l-20.87.021h-.939l-11.023-.007a.76.76,0,0,0-.621,1.191l2.418,3.494,3.783,5.465,2.164,3.086a.532.532,0,0,1-.325.823l-17.194,3.825v-4.557l9.767-2.1A.524.524,0,0,0,252.419,295.487Z" transform="translate(-242.269 -280.11)" fill="#f8f8ee"/>
      <path id="Контур_12" data-name="Контур 12" d="M243.887,311.447" transform="translate(-242.744 -289.316)" fill="#f8f8ee"/>
    </g>
  </g>
</svg>
