<svg xmlns="http://www.w3.org/2000/svg" width="116.535" height="14.947" viewBox="0 0 116.535 14.947">
  <g id="Сгруппировать_120" data-name="Сгруппировать 120" transform="translate(-561.744 -488.917)">
    <path id="Контур_102" data-name="Контур 102" d="M568.185,501.4c1.346,0,2.272-.673,2.272-2.02,0-1.367-.926-2.041-2.272-2.041h-3.976v4.06Zm-.61-6.375c1.367,0,2.146-.589,2.146-1.872,0-1.262-.778-1.851-2.146-1.851h-3.366v3.724Zm-5.831-6.038h5.768c2.882,0,4.671,1.62,4.671,3.724a3.451,3.451,0,0,1-1.788,3.11,3.731,3.731,0,0,1,2.63,3.58c0,2.588-2,4.313-5.26,4.313h-6.02Z" transform="translate(0 -0.059)"/>
    <path id="Контур_103" data-name="Контур 103" d="M654.061,522.555V521.02a2.725,2.725,0,0,0-2.84-2.651c-1.641,0-2.987,1.094-2.987,3.408s1.346,3.408,3.008,3.408a2.7,2.7,0,0,0,2.819-2.63m-8.247-.778c0-3.534,2.314-5.47,5.007-5.47a4.824,4.824,0,0,1,3.24,1.364l.825-1.154h1.573v10.519h-2.4v-1.3a4.43,4.43,0,0,1-3.3,1.512c-2.462,0-4.944-1.936-4.944-5.47" transform="translate(-71.77 -23.382)"/>
    <path id="Контур_104" data-name="Контур 104" d="M815.691,493.193h-2.945l-3.831,4.356-.474.517v-9.081h-2.4v14.727h2.4v-4.873l.474.517,3.831,4.356h2.945l-4.671-5.26Z" transform="translate(-208.556 -0.058)"/>
    <path id="Контур_105" data-name="Контур 105" d="M732.713,525.055c-1.746,0-3.051-1.2-3.051-3.345s1.3-3.345,3.051-3.345a2.681,2.681,0,0,1,2.816,1.919c.549-.11,1.664-.335,2.136-.441-.523-2.257-2.359-3.6-4.973-3.6a5.471,5.471,0,0,0,0,10.94,4.718,4.718,0,0,0,4.961-3.605c-.479-.108-1.586-.331-2.129-.44a2.673,2.673,0,0,1-2.811,1.92" transform="translate(-141.339 -23.325)"/>
    <path id="Контур_106" data-name="Контур 106" d="M732.713,525.055c-1.746,0-3.051-1.2-3.051-3.345s1.3-3.345,3.051-3.345a2.681,2.681,0,0,1,2.816,1.919c.549-.11,1.664-.335,2.136-.441-.523-2.257-2.359-3.6-4.973-3.6a5.471,5.471,0,0,0,0,10.94,4.718,4.718,0,0,0,4.961-3.605c-.479-.108-1.586-.331-2.129-.44a2.673,2.673,0,0,1-2.811,1.92" transform="translate(-141.339 -23.325)"/>
    <path id="Контур_107" data-name="Контур 107" d="M940.941,488.918l-4.377,9.391,0,.008,0-.008-4.377-9.391h-2.64v14.727h2.393v-9.954l3.512,7.6h2.231l3.513-7.6v9.954h2.387V488.918Z" transform="translate(-313.984 0)"/>
    <path id="Контур_108" data-name="Контур 108" d="M1043.811,522.488v-1.536a2.725,2.725,0,0,0-2.84-2.651c-1.641,0-2.987,1.094-2.987,3.408s1.346,3.408,3.009,3.408a2.7,2.7,0,0,0,2.819-2.63m-8.247-.778c0-3.534,2.314-5.47,5.007-5.47a4.824,4.824,0,0,1,3.24,1.364l.825-1.154h1.573v10.519h-2.4v-1.3a4.43,4.43,0,0,1-3.3,1.512c-2.462,0-4.944-1.936-4.944-5.47" transform="translate(-404.497 -23.324)"/>
    <path id="Контур_109" data-name="Контур 109" d="M1119.926,516.748h1.573l.825,1.154a3.123,3.123,0,0,1,2.483-1.313h1.775l.006,2.281h-2.7a1.388,1.388,0,0,0-1.567,1.583v6.814h-2.4Z" transform="translate(-476.517 -23.623)"/>
    <path id="Контур_110" data-name="Контур 110" d="M1314.2,505.415v-5.744h-1.957V497.61h1.957v-2.036l2.419-1.4v3.439h2.356v2.062h-2.356v5.368c0,.694.4,1.01,1.2,1.01h1.052v2.08H1317.1c-1.725,0-2.9-.736-2.9-2.714" transform="translate(-640.694 -4.485)"/>
    <path id="Контур_111" data-name="Контур 111" d="M1242.532,518.2a2.647,2.647,0,0,1,2.861,2.419h-5.743a2.832,2.832,0,0,1,2.882-2.419m2.76,5.192a2.653,2.653,0,0,1-2.718,1.751,2.793,2.793,0,0,1-2.967-2.777h8.058v-.736c0-3.387-2.146-5.386-5.133-5.386a5.272,5.272,0,0,0-5.26,5.47c0,3.282,2.1,5.47,5.26,5.47a4.741,4.741,0,0,0,4.865-3.35c-.624-.134-1.344-.284-2.1-.442" transform="translate(-576.695 -23.324)"/>
    <path id="Контур_112" data-name="Контур 112" d="M1183.486,493.125h-2.946l-4.305,4.859v-9.067h-2.4v14.727h2.4v-4.859l4.305,4.859h2.946l-4.671-5.26Z" transform="translate(-522.54)"/>
    <path id="Контур_113" data-name="Контур 113" d="M868.8,517.745h-2.945l-4.66,5.26,4.66,5.26H868.8l-4.671-5.26Z" transform="translate(-255.64 -24.61)"/>
  </g>
</svg>
