<svg id="NAV_Starbolt_Logo" data-name="NAV Starbolt Logo" xmlns="http://www.w3.org/2000/svg" width="194.535" height="30.01" viewBox="0 0 194.535 30.01">
  <g id="Сгруппировать_147" data-name="Сгруппировать 147" transform="translate(2.176)">
    <path id="Контур_1" data-name="Контур 1" d="M315.813,299.307l4.288-2.27a7.732,7.732,0,0,0,6.457,3.178c2.673,0,4.288-1.21,4.288-3.178,0-2.068-2.775-2.522-6.508-3.329-4.338-.908-8.222-2.421-8.222-7.012,0-4.187,3.935-7.365,8.979-7.365a12.5,12.5,0,0,1,10.291,5.095l-4.288,2.119a6.993,6.993,0,0,0-6-3.178c-2.573,0-4.237,1.211-4.237,3.027,0,1.967,1.614,2.32,5.952,3.179s8.828,2.421,8.828,7.112c0,4.389-3.884,7.617-9.282,7.617A12.7,12.7,0,0,1,315.813,299.307Z" transform="translate(-277.953 -274.292)" fill="#ffe604"/>
    <path id="Контур_2" data-name="Контур 2" d="M364.2,299.428c-4.339-.2-5.448-2.169-5.5-5.952V279.855H354.92v-4.237H358.7v-5.544H363.5v5.544h5.145v4.237H363.5V292.87c0,1.514.6,2.219,2.119,2.219h2.825v4.339Z" transform="translate(-295.771 -270.074)" fill="#ffe604"/>
    <path id="Контур_3" data-name="Контур 3" d="M384.482,297.475c0-5.347,3.986-6.558,9.282-7.719,4.035-.857,6.507-1.109,7.012-2.421v-.353c0-1.967-1.463-3.481-5.095-3.481-3.531,0-5.448,1.614-5.65,4.288v.3h-4.994c.151-5.347,4.389-8.576,10.694-8.576,6.1,0,9.736,2.725,9.736,8.778v11.754l.051,3.682h-4.792v-3.581c-1.615,2.825-4.591,4.187-8.022,4.187C387.609,304.335,384.482,301.561,384.482,297.475Zm16.294-3.329V291.22c-1.463,1.009-3.985,1.412-6.306,1.967-2.724.706-4.944,1.563-4.944,4.086,0,1.967,1.463,3.279,4.086,3.279C397.093,300.552,400.372,298.786,400.776,294.146Z" transform="translate(-309.24 -274.375)" fill="#ffe604"/>
    <path id="Контур_4" data-name="Контур 4" d="M437.059,284.477c.706-2.774,2.573-4.59,6.911-4.59h.757v4.843h-2.27c-4.237,0-5.4,2.119-5.4,6.961V303.9h-4.944v-23.81h4.944Z" transform="translate(-330.942 -274.545)" fill="#ffe604"/>
    <path id="Контур_5" data-name="Контур 5" d="M466.241,295.948v3.48H461.4V270.074h4.843v8.974a8.915,8.915,0,0,1,7.668-3.935c6.1,0,10.695,4.591,10.695,12.258v.05c0,7.668-4.54,12.511-10.745,12.511A8.93,8.93,0,0,1,466.241,295.948Zm13.166-8.374v-.354c0-5.094-2.623-7.869-6.709-7.869-4.137,0-6.71,3.329-6.71,8.071v.4c0,4.691,2.472,7.87,6.71,7.87C476.683,295.7,479.407,292.719,479.407,287.574Z" transform="translate(-344.284 -270.074)" fill="#ffe604"/>
    <path id="Контур_6" data-name="Контур 6" d="M509.659,291.876c0-7.265,4.944-12.36,11.956-12.36s11.906,5.095,11.906,12.36c0,7.163-4.995,12.258-12.006,12.258S509.659,299.14,509.659,291.876Zm18.867.151v-.2c0-4.994-2.673-8.122-6.911-8.122s-6.961,3.128-6.961,8.122v.2c0,4.893,2.623,7.92,6.861,7.92C525.8,299.947,528.526,296.87,528.526,292.026Z" transform="translate(-366.273 -274.375)" fill="#ffe604"/>
    <path id="Контур_7" data-name="Контур 7" d="M564.119,299.428h-4.994V270.074h4.994Z" transform="translate(-388.811 -270.074)" fill="#ffe604"/>
    <path id="Контур_8" data-name="Контур 8" d="M583.7,299.428c-4.338-.2-5.448-2.169-5.5-5.952V279.855h-3.783v-4.237H578.2v-5.544h4.793v5.544h5.146v4.237h-5.146V292.87c0,1.514.606,2.219,2.118,2.219h2.825v4.339Z" transform="translate(-395.777 -270.074)" fill="#ffe604"/>
    <path id="Контур_9" data-name="Контур 9" d="M246.265,311.719" transform="translate(-246.265 -289.048)" fill="#ffe604"/>
  </g>
  <g id="Сгруппировать_1" data-name="Сгруппировать 1" transform="translate(0 5.463)">
    <path id="Контур_10" data-name="Контур 10" d="M267.288,297.709a.414.414,0,0,0,.045.384l.133.195.506.734a.005.005,0,0,0,.005.005l.607.879,4.145,5.988a2.306,2.306,0,0,1,.145,2.415,2.457,2.457,0,0,1-.173.284,2.294,2.294,0,0,1-1.9.968l-19.943-.017-8.592-.005v-3.417l16.087-.016h.723l8.5.005a.586.586,0,0,0,.478-.918l-1.864-2.693-2.916-4.212-1.668-2.379a.41.41,0,0,1,.251-.634l13.254-2.948v3.513l-7.529,1.62A.4.4,0,0,0,267.288,297.709Z" transform="translate(-242.269 -285.676)" fill="#ffe604"/>
    <path id="Контур_11" data-name="Контур 11" d="M250.093,291.963a.414.414,0,0,0-.045-.384l-.133-.195-.506-.734a.005.005,0,0,0-.005-.005l-.607-.879-4.145-5.988a2.306,2.306,0,0,1-.145-2.415,2.454,2.454,0,0,1,.173-.284,2.294,2.294,0,0,1,1.9-.968l19.943.017,8.592.005v3.417l-16.088.016H258.3l-8.5-.005a.586.586,0,0,0-.478.918l1.864,2.693,2.916,4.212,1.668,2.379a.41.41,0,0,1-.25.634l-13.254,2.948v-3.513l7.529-1.62A.4.4,0,0,0,250.093,291.963Z" transform="translate(-242.269 -280.11)" fill="#ffe604"/>
    <path id="Контур_12" data-name="Контур 12" d="M243.887,311.447" transform="translate(-243.006 -294.388)" fill="#ffe604"/>
  </g>
</svg>
