<svg xmlns="http://www.w3.org/2000/svg" width="71.021" height="26.061" viewBox="0 0 71.021 26.061">
  <g id="Сгруппировать_116" data-name="Сгруппировать 116" transform="translate(-58.535 -74.678)" opacity="0.995">
    <path id="Контур_87" data-name="Контур 87" d="M58.535,74.678V87.854a12.884,12.884,0,0,0,12.884,12.884h58.137V74.678ZM72.6,92.38l-2.532.006a9.889,9.889,0,0,1-1.667-.173,3.264,3.264,0,0,1-1.4-.578,2.986,2.986,0,0,1-.961-1.293,5.956,5.956,0,0,1-.348-2.262s0-1.276,0-1.276V80.549h6.722v2.043H68.1v2.57h3.427v2.059H68.1v.832a4.835,4.835,0,0,0,.11,1.106,1.679,1.679,0,0,0,.34.714,1.254,1.254,0,0,0,.57.375,2.641,2.641,0,0,0,.766.088H72.6Zm8,0a24.729,24.729,0,0,1-3.2.2,9.649,9.649,0,0,1-1.614-.132,3.154,3.154,0,0,1-1.359-.56,2.887,2.887,0,0,1-.931-1.252,5.756,5.756,0,0,1-.346-2.191v-4.58a13.878,13.878,0,0,1,2.339,0v4.514a4.77,4.77,0,0,0,.107,1.112,1.626,1.626,0,0,0,.329.692,1.216,1.216,0,0,0,.552.363,2.513,2.513,0,0,0,.774.107,3.855,3.855,0,0,0,1.021-.115V83.862a13.684,13.684,0,0,1,2.323,0Zm6.268-7.117a4.437,4.437,0,0,1-.091.626,2.307,2.307,0,0,0-.4-.033h-.272a3.862,3.862,0,0,0-.626.058,1.437,1.437,0,0,0-.659.3,1.8,1.8,0,0,0-.519.742,3.7,3.7,0,0,0-.206,1.384V92.4c-.2.033-2.131.033-2.34,0V83.862q.247-.049.47-.074a8.13,8.13,0,0,1,.972.008q.238.033.47.082a.967.967,0,0,1,.09.239c.027.1.052.214.074.33s.041.231.058.346l.041.289a4.25,4.25,0,0,1,.89-.914,2.1,2.1,0,0,1,1.318-.4c.11,0,.236.006.379.016a1.474,1.474,0,0,1,.313.05,3.169,3.169,0,0,1,.05.379c.011.143.016.291.016.445Q86.9,84.933,86.873,85.262Zm8.018,4.629a3.916,3.916,0,0,1-.758,1.409,3.472,3.472,0,0,1-1.285.939,4.5,4.5,0,0,1-1.812.338,4.437,4.437,0,0,1-1.8-.338,3.413,3.413,0,0,1-1.268-.939,4.088,4.088,0,0,1-.758-1.409,5.752,5.752,0,0,1-.255-1.746,5.918,5.918,0,0,1,.255-1.763,4.073,4.073,0,0,1,.758-1.425,3.5,3.5,0,0,1,1.268-.947,4.345,4.345,0,0,1,1.8-.346,4.4,4.4,0,0,1,1.812.346,3.562,3.562,0,0,1,1.285.947,3.905,3.905,0,0,1,.758,1.425,6.112,6.112,0,0,1,.247,1.763A5.94,5.94,0,0,1,94.891,89.892Zm8.692.008a3.926,3.926,0,0,1-.906,1.442,4.011,4.011,0,0,1-1.45.914,5.518,5.518,0,0,1-1.944.321q-.281,0-.551-.025t-.453-.058v2.82c-.209.033-2.131.033-2.34,0V83.846a12.259,12.259,0,0,1,1.9.016.948.948,0,0,1,.091.239q.041.157.083.337c.027.122.049.239.065.354l.041.289a3.408,3.408,0,0,1,.362-.519,2.316,2.316,0,0,1,.519-.453,2.9,2.9,0,0,1,.684-.321,2.7,2.7,0,0,1,.84-.123,3.337,3.337,0,0,1,1.326.264,2.931,2.931,0,0,1,1.079.8,3.769,3.769,0,0,1,.717,1.343,6.36,6.36,0,0,1,.256,1.911A5.517,5.517,0,0,1,103.583,89.9Zm8.763-1.063h0Zm.058-.486c-.017.2-.035.361-.057.482l-4.56,0a1.036,1.036,0,0,1-.942-.415.031.031,0,0,0-.056.007,1.862,1.862,0,0,0,.78,1.841,2.816,2.816,0,0,0,1.647.445,6.305,6.305,0,0,0,1.145-.108,6.467,6.467,0,0,0,1.112-.3,3.88,3.88,0,0,1,.313.791,4.045,4.045,0,0,1,.148.989,8.032,8.032,0,0,1-2.9.494A5.618,5.618,0,0,1,107,92.248a3.611,3.611,0,0,1-1.384-.914,3.661,3.661,0,0,1-.791-1.392,5.819,5.819,0,0,1-.255-1.763,5.742,5.742,0,0,1,.263-1.763,4.121,4.121,0,0,1,.783-1.433,3.7,3.7,0,0,1,1.285-.964,4.217,4.217,0,0,1,1.787-.354,3.8,3.8,0,0,1,1.581.313,3.489,3.489,0,0,1,1.178.857,3.616,3.616,0,0,1,.733,1.293,5.1,5.1,0,0,1,.247,1.606Q112.428,88.047,112.4,88.351Zm8.279,6.969c-.347.007-1.215.023-2.151.026h-.174c-.814,0-1.553-.015-1.91-.023l1.982-11.668-2.441.946a4.7,4.7,0,0,1-.778-1.024,2.932,2.932,0,0,1-.3-.8c-.023-.1-.036-.19-.044-.251l4.878-3.534s.75-.061,1.85-.061,1.891.061,1.891.061Z" transform="translate(0 0)"/>
    <path id="Контур_88" data-name="Контур 88" d="M666.195,209.567a1.623,1.623,0,0,0-1.252.462,2.167,2.167,0,0,0-.511,1.3h3.328a2.075,2.075,0,0,0-.437-1.277A1.388,1.388,0,0,0,666.195,209.567Z" transform="translate(-557.539 -124.123)"/>
    <path id="Контур_89" data-name="Контур 89" d="M559.265,213.132a1.493,1.493,0,0,0-.5-.494,1.643,1.643,0,0,0-1.45-.025,1.3,1.3,0,0,0-.47.429,1.875,1.875,0,0,0-.263.634,3.485,3.485,0,0,0-.082.775v2.9a3.584,3.584,0,0,0,1.021.132,1.914,1.914,0,0,0,1.565-.659,3.082,3.082,0,0,0,.544-1.994,5.142,5.142,0,0,0-.082-.947A2.141,2.141,0,0,0,559.265,213.132Z" transform="translate(-458.22 -126.783)"/>
    <path id="Контур_90" data-name="Контур 90" d="M446.007,210.185a1.4,1.4,0,0,0-1.31.684,5,5,0,0,0,0,3.938,1.4,1.4,0,0,0,1.31.684,1.42,1.42,0,0,0,1.326-.684,5,5,0,0,0,0-3.938A1.42,1.42,0,0,0,446.007,210.185Z" transform="translate(-354.971 -124.692)"/>
    <path id="Контур_91" data-name="Контур 91" d="M732.738,252.085h0Z" transform="translate(-620.392 -163.248)"/>
  </g>
</svg>
