<svg id="Сгруппировать_63" data-name="Сгруппировать 63" xmlns="http://www.w3.org/2000/svg" width="190.251" height="16.172" viewBox="0 0 190.251 16.172">
  <path id="Контур_63" data-name="Контур 63" d="M5.947,0c4.4,0,6.182,1.786,6.182,4.348a4.227,4.227,0,0,1-3.761,4.3c2.4.682,3.526,2.538,3.972,6.2a7.151,7.151,0,0,0,.094.752H9.261s-.023-.517-.023-.564C8.862,11.824,7.686,9.919,4.63,9.9H2.938v5.711H0V0ZM2.938,7.639l2.656-.023C8.227,7.616,9.12,6.041,9.12,4.7c0-1.5-.941-2.3-3.361-2.3H2.938Z" transform="translate(0 0.305)" fill="#ffe504"/>
  <path id="Контур_64" data-name="Контур 64" d="M2.986,15.607H0V0H2.986Z" transform="translate(21.387 0.305)" fill="#ffe504"/>
  <path id="Контур_65" data-name="Контур 65" d="M0,0H5.735c4.96,0,7.827,2.7,7.827,7.851,0,5.054-2.961,7.756-8.039,7.756H0ZM3.009,13.115H5.571c3.267,0,4.889-1.716,4.889-5.218v-.14c0-3.6-1.5-5.265-4.748-5.265h-2.7Z" transform="translate(33.89 0.305)" fill="#ffe504"/>
  <path id="Контур_66" data-name="Контур 66" d="M8.509,8.861H2.938v4.184h8.626v2.562H0V0H11.306V2.562H2.938V6.3H8.509Z" transform="translate(56.312 0.305)" fill="#ffe504"/>
  <path id="Контур_67" data-name="Контур 67" d="M0,10.86H3.079c.376,2.021,1.434,2.82,3.667,2.82,1.88,0,2.961-.822,2.961-2.234,0-1.363-1.739-1.692-3.878-2.115C3.243,8.814.423,7.968.423,4.866.423,2.021,2.867,0,6.205,0c3.69,0,6.04,1.881,6.417,5.265H9.59c-.259-1.9-1.363-2.773-3.408-2.773-1.739,0-2.8.846-2.8,2.162,0,1.481,1.951,1.693,4.089,2.116,2.562.494,5.218,1.293,5.218,4.443,0,2.985-2.209,4.96-5.829,4.96C2.726,16.172.517,14.174,0,10.86Z" transform="translate(87.499)" fill="#ffe504"/>
  <path id="Контур_68" data-name="Контур 68" d="M8.344,11.4,11.987,0h4.8V15.607H13.844V2.585L9.519,15.607H6.981L2.82,2.68V15.607H0V0H4.96Z" transform="translate(109.003 0.305)" fill="#ffe504"/>
  <path id="Контур_69" data-name="Контур 69" d="M5.876,0H9.285l5.688,15.607H11.8l-1.481-4.16H4.466l-1.5,4.16H0ZM5.335,8.979H9.5L7.451,3.2Z" transform="translate(134.315 0.305)" fill="#ffe504"/>
  <path id="Контур_70" data-name="Контур 70" d="M5.947,0c4.4,0,6.182,1.786,6.182,4.348a4.227,4.227,0,0,1-3.761,4.3c2.4.682,3.526,2.538,3.972,6.2a7.143,7.143,0,0,0,.094.752H9.261s-.023-.517-.023-.564C8.862,11.824,7.686,9.919,4.63,9.9H2.938v5.711H0V0ZM2.938,7.639l2.655-.023C8.227,7.616,9.12,6.041,9.12,4.7c0-1.5-.941-2.3-3.361-2.3H2.938Z" transform="translate(157.84 0.305)" fill="#ffe504"/>
  <path id="Контур_71" data-name="Контур 71" d="M12.482,2.562H7.733V15.607H4.748V2.562H0V0H12.482Z" transform="translate(177.77 0.305)" fill="#ffe504"/>
</svg>
