<svg xmlns="http://www.w3.org/2000/svg" width="74.481" height="114" viewBox="0 0 74.481 114">
  <g id="s-icon1" transform="translate(-17.691 -5644.785)">
    <g id="Сгруппировать_286" data-name="Сгруппировать 286" transform="translate(17.691 5644.785)">
      <path id="Контур_213" data-name="Контур 213" d="M597.394,1255.763h-3.319v-86.318H579.952v-4.5H567.017l-.1-1.552a6.908,6.908,0,0,0-13.789,0l-.1,1.552H540.412v4.5H522.951v-3.319h14.141v-4.5h12.943a10.228,10.228,0,0,1,19.973,0h13.262v4.5h14.123Z" transform="translate(-522.951 -1153.606)" fill="#151325"/>
      <path id="Контур_214" data-name="Контур 214" d="M597.438,1279.766h-74.47v-89.985h3.319v86.666h71.151Z" transform="translate(-522.957 -1165.766)" fill="#151325"/>
      <g id="Сгруппировать_250" data-name="Сгруппировать 250" transform="translate(11.23 33.19)">
        <rect id="Прямоугольник_97" data-name="Прямоугольник 97" width="28.557" height="3.319" transform="translate(22.856 5.845)" fill="#151325"/>
        <rect id="Прямоугольник_98" data-name="Прямоугольник 98" width="28.557" height="3.319" transform="translate(22.856 34.062)" fill="#151325"/>
        <rect id="Прямоугольник_99" data-name="Прямоугольник 99" width="28.557" height="3.319" transform="translate(22.856 62.812)" fill="#151325"/>
        <path id="Контур_215" data-name="Контур 215" d="M545.731,1217.193l-5.864-5.863,2.347-2.347,3.517,3.516,8.9-8.9,2.347,2.347Z" transform="translate(-539.867 -1203.602)" fill="#151325"/>
        <path id="Контур_216" data-name="Контур 216" d="M545.731,1258.776l-5.864-5.863,2.347-2.347,3.517,3.516,8.9-8.9,2.347,2.347Z" transform="translate(-539.867 -1217.579)" fill="#151325"/>
        <path id="Контур_217" data-name="Контур 217" d="M545.731,1300.359l-5.864-5.863,2.347-2.347,3.517,3.516,8.9-8.9,2.347,2.347Z" transform="translate(-539.867 -1231.557)" fill="#151325"/>
      </g>
    </g>
  </g>
</svg>
