<svg xmlns="http://www.w3.org/2000/svg" width="129.792" height="105.183" viewBox="0 0 129.792 105.183">
  <g id="s-icon2" transform="translate(-6362.064 1237.838)">
    <rect id="Прямоугольник_119" data-name="Прямоугольник 119" width="3.319" height="31.708" transform="translate(6416.915 -1167.06)" fill="#151325"/>
    <rect id="Прямоугольник_118" data-name="Прямоугольник 118" width="20.648" height="3.319" transform="translate(6377.41 -1200.327)" fill="#151325"/>
    <g id="Сгруппировать_275" data-name="Сгруппировать 275" transform="translate(6362.064 -1200.462)">
      <path id="Контур_222" data-name="Контур 222" d="M641.509,1513.953a21.332,21.332,0,1,1,21.332-21.332A21.356,21.356,0,0,1,641.509,1513.953Zm0-39.345a18.013,18.013,0,1,0,18.013,18.013A18.033,18.033,0,0,0,641.509,1474.607Z" transform="translate(-549.006 -1446.145)" fill="#151325"/>
      <path id="Контур_223" data-name="Контур 223" d="M534.3,1513.953a21.332,21.332,0,1,1,21.331-21.332A21.356,21.356,0,0,1,534.3,1513.953Zm0-39.345a18.013,18.013,0,1,0,18.012,18.013A18.033,18.033,0,0,0,534.3,1474.607Z" transform="translate(-512.968 -1446.145)" fill="#151325"/>
      <path id="Контур_224" data-name="Контур 224" d="M638.689,1480.6l-22.443-47.188h17.163a8.265,8.265,0,0,1,8.256,8.256h-3.319a4.942,4.942,0,0,0-4.936-4.937H621.5l20.187,42.443Z" transform="translate(-547.684 -1433.414)" fill="#151325"/>
    </g>
    <path id="Контур_288" data-name="Контур 288" d="M708.48,1427.095" transform="translate(5783.376 -2631.752)" fill="#151325" stroke="#ffde00" stroke-miterlimit="10" stroke-width="5"/>
    <path id="Контур_283" data-name="Контур 283" d="M601.863,1461.025H586.584v-49.19h15.279Zm-11.96-3.319h8.641v-42.551H589.9Z" transform="translate(5824.351 -2626.623)" fill="#151325"/>
    <path id="Контур_284" data-name="Контур 284" d="M594.157,1392.657a7.772,7.772,0,1,1,7.772-7.772A7.781,7.781,0,0,1,594.157,1392.657Zm0-12.224a4.452,4.452,0,1,0,4.453,4.452A4.457,4.457,0,0,0,594.157,1380.433Z" transform="translate(5824.418 -2614.952)" fill="#151325"/>
  </g>
</svg>
