<svg xmlns="http://www.w3.org/2000/svg" width="62.676" height="114.463" viewBox="0 0 62.676 114.463">
  <g id="s-icon8" transform="translate(-6694.172 1239.463)">
    <g id="Сгруппировать_280" data-name="Сгруппировать 280" transform="translate(6694.172 -1239.463)">
      <circle id="Эллипс_68" data-name="Эллипс 68" cx="4.035" cy="4.035" r="4.035" fill="#151325"/>
      <path id="Контур_249" data-name="Контур 249" d="M1061.338,1439.454a37.677,37.677,0,0,1-15.148-3.222,32.63,32.63,0,0,0-26.918-.065l-2.452,1.332,0-2.789v-52.4h3.319v49.858a36.2,36.2,0,0,1,27.381,1.024,33.623,33.623,0,0,0,26.281.463v-29.72h3.319V1435.7l-.871.47A33.59,33.59,0,0,1,1061.338,1439.454Z" transform="translate(-1014.441 -1377.234)" fill="#151325"/>
      <path id="Контур_250" data-name="Контур 250" d="M1061.773,1398.929a37.68,37.68,0,0,1-15.148-3.222,32.63,32.63,0,0,0-26.918-.065l-1.595-2.912c.542-.3,13.456-7.206,29.839-.066a33.237,33.237,0,0,0,27.156.059l1.573,2.923A33.6,33.6,0,0,1,1061.773,1398.929Z" transform="translate(-1014.877 -1379.632)" fill="#151325"/>
      <rect id="Прямоугольник_107" data-name="Прямоугольник 107" width="3.319" height="45.951" transform="translate(2.376 68.512)" fill="#151325"/>
    </g>
  </g>
</svg>
