<svg xmlns="http://www.w3.org/2000/svg" width="109.721" height="109.987" viewBox="0 0 109.721 109.987">
  <g id="s-icon7" transform="translate(-6520.054 1242.76)">
    <path id="Контур_285" data-name="Контур 285" d="M796.626,1442.345h-3.319a30.328,30.328,0,0,1,30.294-30.294v3.319A27.005,27.005,0,0,0,796.626,1442.345Z" transform="translate(5754.862 -2626.695)" fill="#151325"/>
    <g id="Сгруппировать_279" data-name="Сгруппировать 279" transform="translate(6535.273 -1227.279)">
      <path id="Контур_241" data-name="Контур 241" d="M863.557,1476.089l-2.347-2.347a78.975,78.975,0,0,0,10.528-12.921l2.789,1.8A82.208,82.208,0,0,1,863.557,1476.089Z" transform="translate(-803.236 -1415.811)" fill="#151325"/>
      <path id="Контур_242" data-name="Контур 242" d="M829.106,1505.673" transform="translate(-792.445 -1430.887)" fill="#151325" stroke="#ffde00" stroke-miterlimit="10" stroke-width="5"/>
      <g id="Сгруппировать_258" data-name="Сгруппировать 258" transform="translate(0 0)">
        <path id="Контур_243" data-name="Контур 243" d="M797.547,1487.525c-5.12,0-9.317-1.5-12.289-4.47l-.26-.259,0,0-8.426-8.426a9.225,9.225,0,0,1,0-13.016l8.426-8.426a9.214,9.214,0,0,1,13.016,0l13.707,13.707-2.347,2.347-13.707-13.707a5.892,5.892,0,0,0-8.321,0l-8.426,8.426a5.907,5.907,0,0,0,0,8.321l8.426,8.426c.029.029.061.054.092.081l.914.826-.008.024c4.412,3.646,11.925,3.795,21.318.388,10.353-3.755,21.574-11.343,31.6-21.366s17.611-21.245,21.367-31.6c3.414-9.412,3.258-16.936-.41-21.344h0l-.828-.883c-.026-.03-.051-.061-.08-.09l-8.426-8.426a5.892,5.892,0,0,0-8.321,0l-8.426,8.426a5.892,5.892,0,0,0,0,8.321l13.726,13.726-2.347,2.347-13.726-13.727a9.213,9.213,0,0,1,0-13.015l8.426-8.426a9.213,9.213,0,0,1,13.015,0l8.426,8.426c.04.038.078.079.114.119l.15.145c5.247,5.247,5.9,14.315,1.828,25.531-3.918,10.8-11.78,22.453-22.14,32.812s-22.012,18.222-32.812,22.14A39.414,39.414,0,0,1,797.547,1487.525Z" transform="translate(-773.881 -1393.019)" fill="#151325"/>
        <path id="Контур_244" data-name="Контур 244" d="M843.462,1493.639l-1.8-2.79a78.936,78.936,0,0,0,12.976-10.564l2.347,2.347A82.212,82.212,0,0,1,843.462,1493.639Z" transform="translate(-796.666 -1422.353)" fill="#151325"/>
      </g>
    </g>
    <path id="Контур_286" data-name="Контур 286" d="M775.557,1435.321h-3.319a44.389,44.389,0,0,1,44.339-44.338v3.319A41.066,41.066,0,0,0,775.557,1435.321Z" transform="translate(5761.944 -2619.614)" fill="#151325"/>
    <path id="Контур_287" data-name="Контур 287" d="M754.274,1428.34h-3.319A58.707,58.707,0,0,1,809.6,1369.7v3.319A55.384,55.384,0,0,0,754.274,1428.34Z" transform="translate(5769.099 -2612.459)" fill="#151325"/>
  </g>
</svg>
