<svg xmlns="http://www.w3.org/2000/svg" width="97.081" height="113.298" viewBox="0 0 97.081 113.298">
  <g id="s-icon6" transform="translate(-6219.029 1239.028)">
    <g id="Сгруппировать_277" data-name="Сгруппировать 277" transform="translate(6253.854 -1223.294)">
      <path id="Контур_232" data-name="Контур 232" d="M363.514,1457.413a4.929,4.929,0,0,1-2.024-.437,5.01,5.01,0,0,1-2.908-5.542l2.942-15.034h-6.6a4.924,4.924,0,0,1-4.441-2.8,4.994,4.994,0,0,1,.546-5.294L372.7,1400.97a4.907,4.907,0,0,1,5.934-1.512,5.01,5.01,0,0,1,2.908,5.542l-3.712,19.089-3.258-.634,3.708-19.064a1.688,1.688,0,0,0-1-1.9,1.563,1.563,0,0,0-1.972.536l-21.669,27.332a1.684,1.684,0,0,0-.175,1.786,1.63,1.63,0,0,0,1.46.938h10.631l-3.71,18.964a1.69,1.69,0,0,0,1,1.9,1.564,1.564,0,0,0,1.972-.536l21.638-27.439a1.443,1.443,0,0,0,.291-1.614,1.657,1.657,0,0,0-1.545-1h.09v-3.319h-.09a4.994,4.994,0,0,1,4.592,3.007,4.747,4.747,0,0,1-.868,5.146l-21.5,27.273A4.959,4.959,0,0,1,363.514,1457.413Z" transform="translate(-349.965 -1399.021)" fill="#151325"/>
    </g>
    <path id="Контур_281" data-name="Контур 281" d="M365.182,1488.62H338.3a9.637,9.637,0,0,1-9.626-9.626v-11.227H332v11.227a6.314,6.314,0,0,0,6.307,6.307h26.88a6.314,6.314,0,0,0,6.307-6.307v-24.888a6.264,6.264,0,0,0-.1-1.081l-.2-1.125.981-.585a39.085,39.085,0,1,0-59.027-35.479l-.023.487-11.9,16.7a2.1,2.1,0,0,0,1.713,3.325h9.793v14.509a7.758,7.758,0,0,0,7.749,7.75h11.6v3.319h-11.6a11.081,11.081,0,0,1-11.068-11.069v-11.189h-6.474a5.423,5.423,0,0,1-4.417-8.57l11.339-15.916a42.4,42.4,0,1,1,64.938,38.414c.009.171.015.339.015.506v24.888A9.637,9.637,0,0,1,365.182,1488.62Z" transform="translate(5921.522 -2614.349)" fill="#151325"/>
  </g>
</svg>
