<svg xmlns="http://www.w3.org/2000/svg" width="110.146" height="110.122" viewBox="0 0 110.146 110.122">
  <g id="saf1" transform="translate(12468.581 4217.578)">
    <rect id="Прямоугольник_91" data-name="Прямоугольник 91" width="3.319" height="9.915" transform="translate(-12418.81 -4166.147)" fill="#f8f8ee"/>
    <path id="Контур_199" data-name="Контур 199" d="M433.106,1012.926h22.025v18.885a9.059,9.059,0,0,0,18.118,0v-36.4h3.319v36.4a12.378,12.378,0,1,1-24.757,0v-15.566h-18.65l0-1.66" transform="translate(-12892.059 -5151.645)" fill="#f8f8ee"/>
    <path id="Контур_200" data-name="Контур 200" d="M422.188,973.38a51.48,51.48,0,0,1,93.628-42.517l-2.948,1.525a48.162,48.162,0,0,0-87.592,39.772Z" transform="translate(-12887.184 -5120.583)" fill="#f8f8ee"/>
    <path id="Контур_201" data-name="Контур 201" d="M545.08,974.05H502.445c-.271,0-.546-.012-.819-.037h-8.051v-3.319l8.3.008a5.628,5.628,0,0,0,.572.029H545.08a5.551,5.551,0,1,0,0-11.1H529.693V956.31H545.08a8.87,8.87,0,1,1,0,17.74Z" transform="translate(-12912.385 -5138.501)" fill="#f8f8ee"/>
    <path id="Контур_267" data-name="Контур 267" d="M478.405,1046.388a2.669,2.669,0,1,0,2.669,2.668A2.671,2.671,0,0,0,478.405,1046.388Z" transform="translate(-12906.389 -5168.78)" fill="#f8f8ee"/>
  </g>
</svg>
