<svg id="saf2" xmlns="http://www.w3.org/2000/svg" width="62.886" height="107.529" viewBox="0 0 62.886 107.529">
  <path id="Контур_265" data-name="Контур 265" d="M852.781,905.085v22.4h10.183v-3.319H856.1V908.4h56.248v15.761H904.4v65.241a19.888,19.888,0,0,1-39.776,0V938.291H861.3v51.116a23.207,23.207,0,0,0,46.415,0V927.485h7.948v-22.4Z" transform="translate(-852.781 -905.085)" fill="#f8f8ee"/>
  <path id="Контур_266" data-name="Контур 266" d="M882.914,1000.117a11.726,11.726,0,1,0,23.453,0V948.031h-3.319v52.086a8.407,8.407,0,1,1-16.814,0V937.576h18.474v-3.319H882.914Z" transform="translate(-862.91 -914.891)" fill="#f8f8ee"/>
  <circle id="Эллипс_70" data-name="Эллипс 70" cx="2.669" cy="2.669" r="2.669" transform="translate(28.774 8.076)" fill="#f8f8ee"/>
</svg>
