<svg xmlns="http://www.w3.org/2000/svg" width="55.941" height="113.202" viewBox="0 0 55.941 113.202">
  <g id="saf3" transform="translate(-737.158 -5476.185)">
    <path id="Контур_268" data-name="Контур 268" d="M372.937,1305.483H335.268a96.968,96.968,0,0,0-7.44-19,7.434,7.434,0,0,0,0-11.564,7.449,7.449,0,0,1,7.44-7.442h1.8v3.319h-1.8a4.122,4.122,0,0,0,0,8.244v3.319a4.122,4.122,0,0,0,0,8.245v3.319a4.122,4.122,0,0,0,0,8.244h37.669a4.122,4.122,0,0,0,0-8.244V1290.6a4.122,4.122,0,0,0,0-8.245v-3.319a4.122,4.122,0,0,0,0-8.244H350.222v-3.319h22.715a96.967,96.967,0,0,0,7.44,19,7.434,7.434,0,0,0,0,11.564A7.449,7.449,0,0,1,372.937,1305.483Z" transform="translate(409.33 4283.903)" fill="#f8f8ee"/>
    <rect id="Прямоугольник_115" data-name="Прямоугольник 115" width="3.319" height="29.846" transform="translate(744.737 5513.747)" fill="#f8f8ee"/>
    <path id="Контур_269" data-name="Контур 269" d="M355.719,1220.75H352.4v-43.017a10.9,10.9,0,0,1,21.8,0l.011,4.678a5.034,5.034,0,0,0,10.059.054l.014-.3v-3.773a20.862,20.862,0,0,0-41.723,0v13.381h-3.319v-13.381a24.181,24.181,0,0,1,48.362,0v5.884l-.255-.011a8.355,8.355,0,0,1-16.264-.21l-.192-.011-.012-1.571v-4.736a7.583,7.583,0,0,0-15.165,0Z" transform="translate(405.492 4321.978)" fill="#f8f8ee"/>
  </g>
</svg>
