<svg xmlns="http://www.w3.org/2000/svg" width="74.573" height="79.578" viewBox="0 0 74.573 79.578">
  <g id="Сгруппировать_196" data-name="Сгруппировать 196" transform="translate(-51.645 -23.901)">
    <path id="Контур_133" data-name="Контур 133" d="M112.783,38.047,108.539,40.5a30.306,30.306,0,0,0-9.333-5.39v-4.9a6.31,6.31,0,0,0-6.3-6.3H84.956a6.312,6.312,0,0,0-6.3,6.3v4.9a30.242,30.242,0,0,0-9.333,5.39l-4.244-2.451a6.318,6.318,0,0,0-8.616,2.311l-3.971,6.879A6.316,6.316,0,0,0,54.8,55.852L59.042,58.3a27.252,27.252,0,0,0,0,10.777L54.8,71.531a6.316,6.316,0,0,0-2.308,8.616l3.971,6.879a6.309,6.309,0,0,0,8.616,2.308l4.244-2.451a30.315,30.315,0,0,0,9.333,5.39v4.9a6.31,6.31,0,0,0,6.3,6.3H92.9a6.312,6.312,0,0,0,6.3-6.3v-4.9a30.352,30.352,0,0,0,9.333-5.39l4.247,2.451a6.305,6.305,0,0,0,8.612-2.308l3.971-6.879a6.313,6.313,0,0,0-2.308-8.616l-4.244-2.451a28.916,28.916,0,0,0,.054-10.809l4.19-2.419a6.316,6.316,0,0,0,2.308-8.616L121.4,40.358A6.326,6.326,0,0,0,112.783,38.047Zm1.432,15.58c-.263.159-.521.327-.759.5A3.18,3.18,0,0,0,112.2,55.96a2.841,2.841,0,0,0,.054,1.565l-.041.013a24.23,24.23,0,0,1,0,12.3v.016a3.314,3.314,0,0,0,1.149,3.321l.013.013a9.207,9.207,0,0,0,.86.578l5.638,3.206-3.911,6.863-5.638-3.254a8.006,8.006,0,0,0-.936-.463l-.025-.006a3.145,3.145,0,0,0-.73-.152,2.789,2.789,0,0,0-.47-.092,3.167,3.167,0,0,0-2.26.917,24.046,24.046,0,0,1-10.65,6.149l-.025.013a3.057,3.057,0,0,0-.721.359,3.166,3.166,0,0,0-1.184,1.121c-.022.038-.022.089-.044.127A3.181,3.181,0,0,0,92.93,89.6l-.01.025a8.91,8.91,0,0,0-.064,1.019l.044,6.489-7.9.044V90.645a8.914,8.914,0,0,0-.063-1.019l-.01-.025a3.125,3.125,0,0,0-.343-1.038c-.019-.035-.019-.083-.041-.121a3.16,3.16,0,0,0-1.936-1.511,23.984,23.984,0,0,1-10.647-6.149l-.013-.006a3.123,3.123,0,0,0-2.587-.844,3.221,3.221,0,0,0-.863.181l-.022,0a8.564,8.564,0,0,0-.921.457l-5.6,3.279-3.987-6.819,5.682-3.279a9.579,9.579,0,0,0,.825-.552l.019-.022a3.171,3.171,0,0,0,1.149-3.34,24.218,24.218,0,0,1,0-12.3v-.01A3.221,3.221,0,0,0,64.49,54.2l0,0a9,9,0,0,0-.86-.578l-5.641-3.206L61.9,43.548,67.528,46.8a8.868,8.868,0,0,0,.936.467A3.132,3.132,0,0,0,71.95,46.6a23.923,23.923,0,0,1,10.657-6.152c.054-.013.089-.054.14-.07a3.242,3.242,0,0,0,.673-.333,3.29,3.29,0,0,0,.381-.232,3.172,3.172,0,0,0,.5-.571,3.6,3.6,0,0,0,.257-.324,3.178,3.178,0,0,0,.238-.7,3.043,3.043,0,0,0,.137-.438l.01-.029A8.914,8.914,0,0,0,85,36.739l-.044-6.489,7.9-.044v6.533a8,8,0,0,0,.067,1.041l.006.016a3.171,3.171,0,0,0,2.321,2.657A23.985,23.985,0,0,1,105.9,46.6l.013.01a3.123,3.123,0,0,0,3.467.654,8.011,8.011,0,0,0,.921-.457l5.6-3.279,3.987,6.819Z" transform="translate(0 0)" fill="#151325"/>
    <path id="Контур_134" data-name="Контур 134" d="M74.52,31.316a16.249,16.249,0,1,0,16.25,16.25A16.269,16.269,0,0,0,74.52,31.316Zm0,26.151a9.9,9.9,0,1,1,9.9-9.9A9.909,9.909,0,0,1,74.52,57.467Z" transform="translate(14.407 16.124)" fill="#151325"/>
  </g>
</svg>
