<svg xmlns="http://www.w3.org/2000/svg" width="90.181" height="96.234" viewBox="0 0 90.181 96.234">
  <g id="Сгруппировать_196" data-name="Сгруппировать 196" transform="translate(-51.645 -23.901)">
    <path id="Контур_133" data-name="Контур 133" d="M125.58,41.007l-5.133,2.964a36.649,36.649,0,0,0-11.286-6.519V31.525a7.631,7.631,0,0,0-7.624-7.624H91.928A7.633,7.633,0,0,0,84.3,31.525v5.927a36.571,36.571,0,0,0-11.286,6.519l-5.133-2.964A7.64,7.64,0,0,0,57.466,43.8l-4.8,8.319A7.638,7.638,0,0,0,55.458,62.54L60.591,65.5a36.858,36.858,0,0,0-.649,6.519,36.531,36.531,0,0,0,.653,6.515L55.458,81.5a7.638,7.638,0,0,0-2.791,10.419l4.8,8.319a7.63,7.63,0,0,0,10.419,2.791l5.133-2.964a36.661,36.661,0,0,0,11.286,6.518v5.927a7.631,7.631,0,0,0,7.624,7.624h9.609a7.633,7.633,0,0,0,7.624-7.624v-5.927a36.705,36.705,0,0,0,11.286-6.518l5.136,2.964A7.625,7.625,0,0,0,136,100.238l4.8-8.319A7.635,7.635,0,0,0,138.014,81.5l-5.133-2.964a34.968,34.968,0,0,0,.065-13.072l5.067-2.925A7.638,7.638,0,0,0,140.8,52.121L136,43.8A7.651,7.651,0,0,0,125.58,41.007Zm1.731,18.841c-.319.192-.63.4-.918.607a3.845,3.845,0,0,0-1.52,2.215,3.436,3.436,0,0,0,.065,1.893l-.05.015a29.3,29.3,0,0,1,0,14.876v.019a4.008,4.008,0,0,0,1.39,4.016l.015.015a11.134,11.134,0,0,0,1.04.7l6.818,3.877-4.73,8.3L122.6,92.445a9.682,9.682,0,0,0-1.132-.56l-.031-.008a3.8,3.8,0,0,0-.883-.184,3.373,3.373,0,0,0-.568-.111,3.83,3.83,0,0,0-2.733,1.109,29.08,29.08,0,0,1-12.88,7.436l-.031.015a3.7,3.7,0,0,0-.871.434,3.829,3.829,0,0,0-1.432,1.355c-.027.046-.027.107-.054.154a3.847,3.847,0,0,0-.418,1.267l-.012.031a10.776,10.776,0,0,0-.077,1.232l.054,7.847-9.555.054v-7.9a10.78,10.78,0,0,0-.077-1.232l-.012-.031a3.779,3.779,0,0,0-.415-1.255c-.023-.042-.023-.1-.05-.146a3.822,3.822,0,0,0-2.342-1.827,29,29,0,0,1-12.876-7.436l-.015-.008a3.777,3.777,0,0,0-3.129-1.021,3.9,3.9,0,0,0-1.044.219l-.027,0a10.358,10.358,0,0,0-1.113.553L64.115,96.4l-4.822-8.246,6.872-3.966a11.582,11.582,0,0,0,1-.668l.023-.027a3.835,3.835,0,0,0,1.39-4.039,29.287,29.287,0,0,1,0-14.872v-.012a3.9,3.9,0,0,0-1.4-4.031l0,0a10.878,10.878,0,0,0-1.04-.7L59.312,55.96l4.733-8.3,6.806,3.927a10.725,10.725,0,0,0,1.132.564,3.787,3.787,0,0,0,4.215-.795,28.931,28.931,0,0,1,12.887-7.44c.065-.015.107-.065.169-.084a3.921,3.921,0,0,0,.814-.4,3.979,3.979,0,0,0,.461-.28,3.836,3.836,0,0,0,.6-.691,4.353,4.353,0,0,0,.311-.392,3.843,3.843,0,0,0,.288-.845,3.678,3.678,0,0,0,.165-.53l.012-.035a10.78,10.78,0,0,0,.077-1.232l-.054-7.847,9.555-.054v7.9a9.678,9.678,0,0,0,.081,1.259l.008.019a3.835,3.835,0,0,0,2.806,3.213,29,29,0,0,1,12.883,7.44l.015.012a3.777,3.777,0,0,0,4.192.791,9.689,9.689,0,0,0,1.113-.553l6.768-3.966,4.822,8.246Z" transform="translate(0 0)" fill="#151325"/>
    <path id="Контур_134" data-name="Контур 134" d="M77.921,31.316A19.65,19.65,0,1,0,97.573,50.967,19.674,19.674,0,0,0,77.921,31.316Zm0,31.625A11.972,11.972,0,1,1,89.9,50.971,11.983,11.983,0,0,1,77.921,62.941Z" transform="translate(18.809 21.051)" fill="#151325"/>
  </g>
</svg>
