<svg xmlns="http://www.w3.org/2000/svg" width="113.835" height="67.807" viewBox="0 0 113.835 67.807">
  <g id="Сгруппировать_325" data-name="Сгруппировать 325" transform="translate(12783.251 10428.825)">
    <g id="Сгруппировать_307" data-name="Сгруппировать 307" transform="translate(-12783.251 -10428.825)">
      <path id="Контур_218" data-name="Контур 218" d="M868.493,1284.441a21.332,21.332,0,1,1,21.332-21.332A21.356,21.356,0,0,1,868.493,1284.441Zm0-39.345a18.013,18.013,0,1,0,18.012,18.012A18.033,18.033,0,0,0,868.493,1245.1Z" transform="translate(-775.99 -1216.634)" fill="#ffde00"/>
      <path id="Контур_219" data-name="Контур 219" d="M761.284,1284.441a21.332,21.332,0,1,1,21.332-21.332A21.356,21.356,0,0,1,761.284,1284.441Zm0-39.345a18.013,18.013,0,1,0,18.013,18.012A18.033,18.033,0,0,0,761.284,1245.1Z" transform="translate(-739.952 -1216.634)" fill="#ffde00"/>
      <path id="Контур_220" data-name="Контур 220" d="M807.056,1257.7h-39.33l21.614-36.96h35.994v3.319H791.245l-17.732,30.321h32.016l22.25-25.98,2.521,2.159Z" transform="translate(-749.288 -1209.56)" fill="#ffde00"/>
      <rect id="Прямоугольник_101" data-name="Прямоугольник 101" width="3.32" height="37.252" transform="matrix(0.903, -0.43, 0.43, 0.903, 39.505, 13.547)" fill="#ffde00"/>
      <rect id="Прямоугольник_102" data-name="Прямоугольник 102" width="20.648" height="3.319" transform="translate(28.356 0)" fill="#ffde00"/>
      <path id="Контур_221" data-name="Контур 221" d="M865.673,1251.09,843.229,1203.9h17.163a8.265,8.265,0,0,1,8.256,8.256h-3.319a4.942,4.942,0,0,0-4.936-4.937h-11.91l20.188,42.443Z" transform="translate(-774.668 -1203.902)" fill="#ffde00"/>
    </g>
  </g>
</svg>
