<svg xmlns="http://www.w3.org/2000/svg" width="113.348" height="68.577" viewBox="0 0 113.348 68.577">
  <g id="Сгруппировать_327" data-name="Сгруппировать 327" transform="translate(12369.501 10429.583)">
    <path id="Контур_292" data-name="Контур 292" d="M1502.584,1283.75" transform="translate(-13779.558 -11659.568)" fill="#f8f8ee" stroke="#ffde00" stroke-miterlimit="10" stroke-width="5"/>
    <g id="Сгруппировать_309" data-name="Сгруппировать 309" transform="translate(-12369.501 -10429.583)">
      <path id="Контур_257" data-name="Контур 257" d="M1494.084,1291.062a14.811,14.811,0,1,1,14.811-14.811A14.829,14.829,0,0,1,1494.084,1291.062Zm0-26.3a11.492,11.492,0,1,0,11.491,11.492A11.505,11.505,0,0,0,1494.084,1264.758Z" transform="translate(-1402.22 -1222.485)" fill="#f8f8ee"/>
      <path id="Контур_258" data-name="Контур 258" d="M1387.946,1298.153a15.636,15.636,0,0,1-15.617-15.618h3.319a12.3,12.3,0,1,0,24.6,0h3.319A15.636,15.636,0,0,1,1387.946,1298.153Z" transform="translate(-1366.272 -1229.576)" fill="#f8f8ee"/>
      <path id="Контур_259" data-name="Контур 259" d="M1411.812,1235.8H1376.63a6.418,6.418,0,0,1,0-12.836h35.182a6.418,6.418,0,0,1,0,12.836Zm-35.182-9.516a3.1,3.1,0,0,0,0,6.2h35.182a3.1,3.1,0,0,0,0-6.2Z" transform="translate(-1365.561 -1209.551)" fill="#f8f8ee"/>
      <path id="Контур_260" data-name="Контур 260" d="M1533.947,1282.535" transform="translate(-1420.599 -1229.576)" fill="#f8f8ee" stroke="#ffde00" stroke-miterlimit="10" stroke-width="5"/>
      <path id="Контур_261" data-name="Контур 261" d="M1427.417,1257.379h-63.593l-.261-1.342c-.041-.209-3.862-21.025,14.463-29.962l1.455,2.983c-13.662,6.663-13.331,20.593-12.851,25H1425.9l21.968-25.242-15.782-22.737h-5.258v8.608l-.046,23.574-3.319-.007.046-23.57v-11.924h10.314l18.245,26.285Z" transform="translate(-1363.205 -1202.761)" fill="#f8f8ee"/>
      <path id="Контур_262" data-name="Контур 262" d="M1434.539,1259.627h-3.889a11.166,11.166,0,0,1,0-22.332v3.319a7.847,7.847,0,1,0,0,15.694h3.889a7.855,7.855,0,0,0,7.846-7.847h3.319A11.179,11.179,0,0,1,1434.539,1259.627Z" transform="translate(-1382.123 -1214.369)" fill="#f8f8ee"/>
      <rect id="Прямоугольник_114" data-name="Прямоугольник 114" width="27.374" height="3.319" transform="translate(41.749)" fill="#f8f8ee"/>
    </g>
  </g>
</svg>
